G04 (created by PCBNEW-RS274X (2012-01-19 BZR 3256)-stable) date 4/10/2013 11:47:38 AM*
G01*
G70*
G90*
%MOIN*%
G04 Gerber Fmt 3.4, Leading zero omitted, Abs format*
%FSLAX34Y34*%
G04 APERTURE LIST*
%ADD10C,0.006000*%
%ADD11R,0.106600X0.157800*%
%ADD12R,0.045000X0.065000*%
%ADD13R,0.065000X0.045000*%
%ADD14C,0.085000*%
%ADD15R,0.080000X0.080000*%
%ADD16C,0.080000*%
G04 APERTURE END LIST*
G54D10*
G54D11*
X72300Y-47300D03*
G54D12*
X59700Y-45200D03*
X60300Y-45200D03*
G54D13*
X62400Y-47600D03*
X62400Y-47000D03*
G54D14*
X73500Y-44000D03*
X72500Y-42000D03*
X74500Y-42000D03*
X72500Y-44000D03*
X74500Y-44000D03*
G54D15*
X58000Y-41500D03*
G54D16*
X59000Y-41500D03*
X60000Y-41500D03*
X61000Y-41500D03*
X62000Y-41500D03*
G54D15*
X54600Y-41000D03*
G54D16*
X54600Y-42000D03*
X53600Y-41000D03*
X53600Y-42000D03*
X52600Y-41000D03*
X52600Y-42000D03*
X51600Y-41000D03*
X51600Y-42000D03*
G54D15*
X77100Y-43000D03*
G54D16*
X77100Y-42000D03*
G54D15*
X48500Y-41000D03*
G54D16*
X48500Y-42000D03*
X48500Y-43000D03*
X48500Y-44000D03*
X48500Y-45000D03*
X48500Y-46000D03*
G54D15*
X48400Y-47800D03*
G54D16*
X48400Y-48800D03*
X48400Y-49800D03*
X48400Y-50800D03*
X48400Y-51800D03*
X48400Y-52800D03*
G54D15*
X61400Y-55800D03*
G54D16*
X61400Y-54800D03*
X60400Y-55800D03*
X60400Y-54800D03*
X59400Y-55800D03*
X59400Y-54800D03*
X58400Y-55800D03*
X58400Y-54800D03*
X57400Y-55800D03*
X57400Y-54800D03*
X56400Y-55800D03*
X56400Y-54800D03*
X55400Y-55800D03*
X55400Y-54800D03*
X54400Y-55800D03*
X54400Y-54800D03*
X53400Y-55800D03*
X53400Y-54800D03*
X52400Y-55800D03*
X52400Y-54800D03*
X51400Y-55800D03*
X51400Y-54800D03*
X50400Y-55800D03*
X50400Y-54800D03*
X49400Y-55800D03*
X49400Y-54800D03*
X48400Y-55800D03*
X48400Y-54800D03*
M02*
