M48
;DRILL file {Pcbnew (2012-01-19 BZR 3256)-stable} date 4/10/2013 11:47:45 AM
;FORMAT={-:-/ absolute / inch / decimal}
FMAT,2
INCH,TZ
T1C0.020
T2C0.040
T3C0.045
%
G90
G05
M72
T1
X4.932Y-4.838
X4.950Y-4.520
X5.024Y-4.400
X5.030Y-4.586
X5.030Y-4.876
X5.030Y-5.180
X5.074Y-4.630
X5.080Y-4.908
X5.094Y-5.286
X5.120Y-4.720
X5.132Y-5.404
X5.166Y-5.248
X5.200Y-5.396
X5.252Y-4.674
X5.330Y-4.520
X5.386Y-4.640
X5.406Y-4.780
X5.640Y-5.358
X5.684Y-4.612
X5.690Y-5.530
X5.744Y-5.344
X5.840Y-5.328
X5.864Y-4.808
X5.866Y-4.740
X5.886Y-4.308
X5.888Y-4.662
X5.888Y-5.434
X5.916Y-5.026
X5.916Y-5.238
X5.926Y-4.364
X5.928Y-4.814
X5.944Y-5.292
X5.950Y-5.080
X5.958Y-4.892
X5.966Y-4.586
X6.012Y-4.234
X6.014Y-4.872
X6.020Y-4.452
X6.026Y-4.588
X6.052Y-5.216
X6.072Y-4.232
X6.080Y-4.450
X6.086Y-4.590
X6.092Y-5.358
X6.130Y-5.310
X6.144Y-4.588
X6.144Y-5.252
X6.146Y-4.646
X6.170Y-4.830
X6.176Y-4.696
X6.176Y-4.756
X6.234Y-5.456
X6.252Y-5.398
X6.262Y-4.948
X6.284Y-4.082
X6.304Y-4.988
X6.342Y-4.870
X6.366Y-4.204
X6.432Y-4.192
X6.468Y-4.088
X6.472Y-4.270
X6.478Y-4.150
X6.508Y-4.508
X6.512Y-4.864
X6.538Y-4.318
X6.554Y-5.314
X6.592Y-5.064
X6.594Y-5.376
X6.622Y-4.312
X6.622Y-4.370
X6.668Y-5.022
X6.678Y-5.380
X6.700Y-4.314
X6.700Y-4.770
X6.742Y-4.666
X6.756Y-4.364
X6.806Y-4.316
X6.808Y-5.370
X6.824Y-4.408
X6.824Y-5.304
X6.886Y-5.198
X6.888Y-4.632
X6.922Y-4.568
X6.924Y-4.084
X6.924Y-4.150
X6.942Y-5.384
X6.954Y-4.228
X7.005Y-4.825
X7.030Y-5.374
X7.135Y-4.775
X7.145Y-5.015
X7.150Y-5.458
X7.294Y-5.350
X7.310Y-4.655
X7.325Y-4.805
X7.375Y-4.725
X7.408Y-5.462
X7.430Y-5.280
X7.445Y-5.015
X7.470Y-5.144
X7.475Y-4.890
X7.494Y-5.464
X7.530Y-4.785
X7.554Y-4.936
X7.565Y-4.680
X7.596Y-5.452
X7.625Y-4.885
X7.670Y-4.725
X7.698Y-4.964
X7.705Y-4.885
T2
X4.840Y-4.780
X4.840Y-4.880
X4.840Y-4.980
X4.840Y-5.080
X4.840Y-5.180
X4.840Y-5.280
X4.840Y-5.480
X4.840Y-5.580
X4.850Y-4.100
X4.850Y-4.200
X4.850Y-4.300
X4.850Y-4.400
X4.850Y-4.500
X4.850Y-4.600
X4.940Y-5.480
X4.940Y-5.580
X5.040Y-5.480
X5.040Y-5.580
X5.140Y-5.480
X5.140Y-5.580
X5.160Y-4.100
X5.160Y-4.200
X5.240Y-5.480
X5.240Y-5.580
X5.260Y-4.100
X5.260Y-4.200
X5.340Y-5.480
X5.340Y-5.580
X5.360Y-4.100
X5.360Y-4.200
X5.440Y-5.480
X5.440Y-5.580
X5.460Y-4.100
X5.460Y-4.200
X5.540Y-5.480
X5.540Y-5.580
X5.640Y-5.480
X5.640Y-5.580
X5.740Y-5.480
X5.740Y-5.580
X5.800Y-4.150
X5.840Y-5.480
X5.840Y-5.580
X5.900Y-4.150
X5.940Y-5.480
X5.940Y-5.580
X6.000Y-4.150
X6.040Y-5.480
X6.040Y-5.580
X6.100Y-4.150
X6.140Y-5.480
X6.140Y-5.580
X6.200Y-4.150
X7.710Y-4.200
X7.710Y-4.300
T3
X7.250Y-4.200
X7.250Y-4.400
X7.350Y-4.400
X7.450Y-4.200
X7.450Y-4.400
T0
M30
