G04 (created by PCBNEW-RS274X (2012-01-19 BZR 3256)-stable) date 4/10/2013 11:47:38 AM*
G01*
G70*
G90*
%MOIN*%
G04 Gerber Fmt 3.4, Leading zero omitted, Abs format*
%FSLAX34Y34*%
G04 APERTURE LIST*
%ADD10C,0.006000*%
%ADD11C,0.005000*%
%ADD12C,0.004500*%
G04 APERTURE END LIST*
G54D10*
G54D11*
X59550Y-45450D02*
X60450Y-45450D01*
X60450Y-45450D02*
X60450Y-44950D01*
X60450Y-44950D02*
X59550Y-44950D01*
X59550Y-44950D02*
X59550Y-45450D01*
X62650Y-47750D02*
X62650Y-46850D01*
X62650Y-46850D02*
X62150Y-46850D01*
X62150Y-46850D02*
X62150Y-47750D01*
X62150Y-47750D02*
X62650Y-47750D01*
G54D12*
X60029Y-44822D02*
X60038Y-44831D01*
X60064Y-44841D01*
X60081Y-44841D01*
X60106Y-44831D01*
X60124Y-44812D01*
X60132Y-44793D01*
X60141Y-44755D01*
X60141Y-44727D01*
X60132Y-44689D01*
X60124Y-44670D01*
X60106Y-44650D01*
X60081Y-44641D01*
X60064Y-44641D01*
X60038Y-44650D01*
X60029Y-44660D01*
X59875Y-44641D02*
X59909Y-44641D01*
X59926Y-44650D01*
X59935Y-44660D01*
X59952Y-44689D01*
X59961Y-44727D01*
X59961Y-44803D01*
X59952Y-44822D01*
X59944Y-44831D01*
X59926Y-44841D01*
X59892Y-44841D01*
X59875Y-44831D01*
X59866Y-44822D01*
X59858Y-44803D01*
X59858Y-44755D01*
X59866Y-44736D01*
X59875Y-44727D01*
X59892Y-44717D01*
X59926Y-44717D01*
X59944Y-44727D01*
X59952Y-44736D01*
X59961Y-44755D01*
X61929Y-47362D02*
X61938Y-47371D01*
X61964Y-47381D01*
X61981Y-47381D01*
X62006Y-47371D01*
X62024Y-47352D01*
X62032Y-47333D01*
X62041Y-47295D01*
X62041Y-47267D01*
X62032Y-47229D01*
X62024Y-47210D01*
X62006Y-47190D01*
X61981Y-47181D01*
X61964Y-47181D01*
X61938Y-47190D01*
X61929Y-47200D01*
X61869Y-47181D02*
X61749Y-47181D01*
X61826Y-47381D01*
M02*
