G04 (created by PCBNEW-RS274X (2012-01-19 BZR 3256)-stable) date 4/10/2013 11:47:38 AM*
G01*
G70*
G90*
%MOIN*%
G04 Gerber Fmt 3.4, Leading zero omitted, Abs format*
%FSLAX34Y34*%
G04 APERTURE LIST*
%ADD10C,0.006000*%
%ADD11R,0.106600X0.157800*%
%ADD12R,0.098700X0.063300*%
%ADD13R,0.065000X0.045000*%
%ADD14R,0.045000X0.065000*%
%ADD15C,0.085000*%
%ADD16R,0.080000X0.080000*%
%ADD17C,0.080000*%
%ADD18R,0.051400X0.051400*%
%ADD19R,0.098700X0.035700*%
%ADD20R,0.039700X0.079100*%
%ADD21R,0.079100X0.039700*%
%ADD22R,0.050000X0.050000*%
%ADD23R,0.083000X0.106600*%
%ADD24R,0.047600X0.090900*%
%ADD25R,0.106600X0.083000*%
%ADD26R,0.090900X0.047600*%
G04 APERTURE END LIST*
G54D10*
G54D11*
X72300Y-47300D03*
G54D12*
X74623Y-48206D03*
X74623Y-47300D03*
X74623Y-46394D03*
G54D13*
X76300Y-46200D03*
X76300Y-46800D03*
X77100Y-46200D03*
X77100Y-46800D03*
X76300Y-47700D03*
X76300Y-48300D03*
X77100Y-47700D03*
X77100Y-48300D03*
G54D14*
X54700Y-47800D03*
X55300Y-47800D03*
G54D13*
X59900Y-52400D03*
X59900Y-51800D03*
X70000Y-47200D03*
X70000Y-47800D03*
X70000Y-45900D03*
X70000Y-46500D03*
X65250Y-53700D03*
X65250Y-54300D03*
G54D14*
X72600Y-50100D03*
X72000Y-50100D03*
G54D13*
X68750Y-53700D03*
X68750Y-54300D03*
X72250Y-53700D03*
X72250Y-54300D03*
G54D14*
X74950Y-54000D03*
X75550Y-54000D03*
X74950Y-52750D03*
X75550Y-52750D03*
G54D13*
X65000Y-46300D03*
X65000Y-46900D03*
G54D15*
X73500Y-44000D03*
X72500Y-42000D03*
X74500Y-42000D03*
X72500Y-44000D03*
X74500Y-44000D03*
G54D16*
X58000Y-41500D03*
G54D17*
X59000Y-41500D03*
X60000Y-41500D03*
X61000Y-41500D03*
X62000Y-41500D03*
G54D16*
X54600Y-41000D03*
G54D17*
X54600Y-42000D03*
X53600Y-41000D03*
X53600Y-42000D03*
X52600Y-41000D03*
X52600Y-42000D03*
X51600Y-41000D03*
X51600Y-42000D03*
G54D16*
X77100Y-43000D03*
G54D17*
X77100Y-42000D03*
G54D16*
X48500Y-41000D03*
G54D17*
X48500Y-42000D03*
X48500Y-43000D03*
X48500Y-44000D03*
X48500Y-45000D03*
X48500Y-46000D03*
G54D16*
X48400Y-47800D03*
G54D17*
X48400Y-48800D03*
X48400Y-49800D03*
X48400Y-50800D03*
X48400Y-51800D03*
X48400Y-52800D03*
G54D18*
X73205Y-50100D03*
X73795Y-50100D03*
G54D19*
X66181Y-46260D03*
X66181Y-46654D03*
X66181Y-47048D03*
G54D20*
X58624Y-45194D03*
X58939Y-45194D03*
X59254Y-45194D03*
X59569Y-45194D03*
X59884Y-45194D03*
X60199Y-45194D03*
X60514Y-45194D03*
X60829Y-45194D03*
X61144Y-45194D03*
X61459Y-45194D03*
X61774Y-45194D03*
G54D21*
X62442Y-49015D03*
X62442Y-48700D03*
X62442Y-48385D03*
X62442Y-48070D03*
X62442Y-47755D03*
X62442Y-47440D03*
X62442Y-47125D03*
X62442Y-46810D03*
X62442Y-46495D03*
X62442Y-46180D03*
X62442Y-45865D03*
G54D20*
X61774Y-49604D03*
X61459Y-49604D03*
X61144Y-49604D03*
X60829Y-49604D03*
X60514Y-49604D03*
X60199Y-49604D03*
X59884Y-49604D03*
X59569Y-49604D03*
X59254Y-49604D03*
X58939Y-49604D03*
X58624Y-49604D03*
G54D21*
X57953Y-45865D03*
X57953Y-46180D03*
X57953Y-46495D03*
X57953Y-46810D03*
X57953Y-47125D03*
X57953Y-47440D03*
X57953Y-47755D03*
X57953Y-48070D03*
X57953Y-48385D03*
X57953Y-48700D03*
X57953Y-49015D03*
G54D16*
X61400Y-55800D03*
G54D17*
X61400Y-54800D03*
X60400Y-55800D03*
X60400Y-54800D03*
X59400Y-55800D03*
X59400Y-54800D03*
X58400Y-55800D03*
X58400Y-54800D03*
X57400Y-55800D03*
X57400Y-54800D03*
X56400Y-55800D03*
X56400Y-54800D03*
X55400Y-55800D03*
X55400Y-54800D03*
X54400Y-55800D03*
X54400Y-54800D03*
X53400Y-55800D03*
X53400Y-54800D03*
X52400Y-55800D03*
X52400Y-54800D03*
X51400Y-55800D03*
X51400Y-54800D03*
X50400Y-55800D03*
X50400Y-54800D03*
X49400Y-55800D03*
X49400Y-54800D03*
X48400Y-55800D03*
X48400Y-54800D03*
G54D18*
X66200Y-40805D03*
X66200Y-41395D03*
X67800Y-40805D03*
X67800Y-41395D03*
G54D13*
X65400Y-42000D03*
X65400Y-42600D03*
X66200Y-42000D03*
X66200Y-42600D03*
X67000Y-42000D03*
X67000Y-42600D03*
X67800Y-42000D03*
X67800Y-42600D03*
X68600Y-42000D03*
X68600Y-42600D03*
G54D18*
X65400Y-40805D03*
X65400Y-41395D03*
X67000Y-40805D03*
X67000Y-41395D03*
X68600Y-40805D03*
X68600Y-41395D03*
G54D22*
X70160Y-44140D03*
X70530Y-45040D03*
X69790Y-45040D03*
G54D23*
X67421Y-55925D03*
X65079Y-55925D03*
G54D24*
X66496Y-54626D03*
X66004Y-54626D03*
G54D23*
X70921Y-55925D03*
X68579Y-55925D03*
G54D24*
X69996Y-54626D03*
X69504Y-54626D03*
G54D23*
X74421Y-55925D03*
X72079Y-55925D03*
G54D24*
X73496Y-54626D03*
X73004Y-54626D03*
G54D25*
X76925Y-54079D03*
X76925Y-56421D03*
G54D26*
X75626Y-55004D03*
X75626Y-55496D03*
G54D25*
X76925Y-50579D03*
X76925Y-52921D03*
G54D26*
X75626Y-51504D03*
X75626Y-51996D03*
M02*
