G04 (created by PCBNEW-RS274X (2012-01-19 BZR 3256)-stable) date 4/11/2013 5:03:57 PM*
G01*
G70*
G90*
%MOIN*%
G04 Gerber Fmt 3.4, Leading zero omitted, Abs format*
%FSLAX34Y34*%
G04 APERTURE LIST*
%ADD10C,0.006000*%
%ADD11R,0.086600X0.137800*%
%ADD12R,0.078700X0.043300*%
%ADD13R,0.045000X0.025000*%
%ADD14R,0.025000X0.045000*%
%ADD15C,0.065000*%
%ADD16R,0.060000X0.060000*%
%ADD17C,0.060000*%
%ADD18R,0.031400X0.031400*%
%ADD19R,0.078700X0.015700*%
%ADD20R,0.019700X0.059100*%
%ADD21R,0.059100X0.019700*%
%ADD22R,0.030000X0.030000*%
%ADD23R,0.063000X0.086600*%
%ADD24R,0.027600X0.070900*%
%ADD25R,0.086600X0.063000*%
%ADD26R,0.070900X0.027600*%
%ADD27C,0.050000*%
%ADD28C,0.007000*%
%ADD29C,0.010000*%
G04 APERTURE END LIST*
G54D10*
G54D11*
X72300Y-47300D03*
G54D12*
X74623Y-48206D03*
X74623Y-47300D03*
X74623Y-46394D03*
G54D13*
X76300Y-46200D03*
X76300Y-46800D03*
X77100Y-46200D03*
X77100Y-46800D03*
X76300Y-47700D03*
X76300Y-48300D03*
X77100Y-47700D03*
X77100Y-48300D03*
G54D14*
X54700Y-47800D03*
X55300Y-47800D03*
G54D13*
X59900Y-52400D03*
X59900Y-51800D03*
X70000Y-47200D03*
X70000Y-47800D03*
X70000Y-45900D03*
X70000Y-46500D03*
X65250Y-53700D03*
X65250Y-54300D03*
G54D14*
X72600Y-50100D03*
X72000Y-50100D03*
G54D13*
X68750Y-53700D03*
X68750Y-54300D03*
X72250Y-53700D03*
X72250Y-54300D03*
G54D14*
X74950Y-54000D03*
X75550Y-54000D03*
X74950Y-52750D03*
X75550Y-52750D03*
G54D13*
X65000Y-46300D03*
X65000Y-46900D03*
G54D15*
X73500Y-44000D03*
X72500Y-42000D03*
X74500Y-42000D03*
X72500Y-44000D03*
X74500Y-44000D03*
G54D16*
X58000Y-41500D03*
G54D17*
X59000Y-41500D03*
X60000Y-41500D03*
X61000Y-41500D03*
X62000Y-41500D03*
G54D16*
X54600Y-41000D03*
G54D17*
X54600Y-42000D03*
X53600Y-41000D03*
X53600Y-42000D03*
X52600Y-41000D03*
X52600Y-42000D03*
X51600Y-41000D03*
X51600Y-42000D03*
G54D16*
X77100Y-43000D03*
G54D17*
X77100Y-42000D03*
G54D16*
X48500Y-41000D03*
G54D17*
X48500Y-42000D03*
X48500Y-43000D03*
X48500Y-44000D03*
X48500Y-45000D03*
X48500Y-46000D03*
G54D16*
X48400Y-47800D03*
G54D17*
X48400Y-48800D03*
X48400Y-49800D03*
X48400Y-50800D03*
X48400Y-51800D03*
X48400Y-52800D03*
G54D18*
X73205Y-50100D03*
X73795Y-50100D03*
G54D19*
X66181Y-46260D03*
X66181Y-46654D03*
X66181Y-47048D03*
G54D20*
X58624Y-45194D03*
X58939Y-45194D03*
X59254Y-45194D03*
X59569Y-45194D03*
X59884Y-45194D03*
X60199Y-45194D03*
X60514Y-45194D03*
X60829Y-45194D03*
X61144Y-45194D03*
X61459Y-45194D03*
X61774Y-45194D03*
G54D21*
X62442Y-49015D03*
X62442Y-48700D03*
X62442Y-48385D03*
X62442Y-48070D03*
X62442Y-47755D03*
X62442Y-47440D03*
X62442Y-47125D03*
X62442Y-46810D03*
X62442Y-46495D03*
X62442Y-46180D03*
X62442Y-45865D03*
G54D20*
X61774Y-49604D03*
X61459Y-49604D03*
X61144Y-49604D03*
X60829Y-49604D03*
X60514Y-49604D03*
X60199Y-49604D03*
X59884Y-49604D03*
X59569Y-49604D03*
X59254Y-49604D03*
X58939Y-49604D03*
X58624Y-49604D03*
G54D21*
X57953Y-45865D03*
X57953Y-46180D03*
X57953Y-46495D03*
X57953Y-46810D03*
X57953Y-47125D03*
X57953Y-47440D03*
X57953Y-47755D03*
X57953Y-48070D03*
X57953Y-48385D03*
X57953Y-48700D03*
X57953Y-49015D03*
G54D16*
X61400Y-55800D03*
G54D17*
X61400Y-54800D03*
X60400Y-55800D03*
X60400Y-54800D03*
X59400Y-55800D03*
X59400Y-54800D03*
X58400Y-55800D03*
X58400Y-54800D03*
X57400Y-55800D03*
X57400Y-54800D03*
X56400Y-55800D03*
X56400Y-54800D03*
X55400Y-55800D03*
X55400Y-54800D03*
X54400Y-55800D03*
X54400Y-54800D03*
X53400Y-55800D03*
X53400Y-54800D03*
X52400Y-55800D03*
X52400Y-54800D03*
X51400Y-55800D03*
X51400Y-54800D03*
X50400Y-55800D03*
X50400Y-54800D03*
X49400Y-55800D03*
X49400Y-54800D03*
X48400Y-55800D03*
X48400Y-54800D03*
G54D18*
X66200Y-40805D03*
X66200Y-41395D03*
X67800Y-40805D03*
X67800Y-41395D03*
G54D13*
X65400Y-42000D03*
X65400Y-42600D03*
X66200Y-42000D03*
X66200Y-42600D03*
X67000Y-42000D03*
X67000Y-42600D03*
X67800Y-42000D03*
X67800Y-42600D03*
X68600Y-42000D03*
X68600Y-42600D03*
G54D18*
X65400Y-40805D03*
X65400Y-41395D03*
X67000Y-40805D03*
X67000Y-41395D03*
X68600Y-40805D03*
X68600Y-41395D03*
G54D22*
X70160Y-44140D03*
X70530Y-45040D03*
X69790Y-45040D03*
G54D23*
X67421Y-55925D03*
X65079Y-55925D03*
G54D24*
X66496Y-54626D03*
X66004Y-54626D03*
G54D23*
X70921Y-55925D03*
X68579Y-55925D03*
G54D24*
X69996Y-54626D03*
X69504Y-54626D03*
G54D23*
X74421Y-55925D03*
X72079Y-55925D03*
G54D24*
X73496Y-54626D03*
X73004Y-54626D03*
G54D25*
X76925Y-54079D03*
X76925Y-56421D03*
G54D26*
X75626Y-55004D03*
X75626Y-55496D03*
G54D25*
X76925Y-50579D03*
X76925Y-52921D03*
G54D26*
X75626Y-51504D03*
X75626Y-51996D03*
G54D27*
X51200Y-47200D03*
X60200Y-44520D03*
X60120Y-42340D03*
X60800Y-44500D03*
X60720Y-42320D03*
X49500Y-45200D03*
X59500Y-50800D03*
X50940Y-52860D03*
X59440Y-52920D03*
X58880Y-54340D03*
X58640Y-48080D03*
X59280Y-48140D03*
X68060Y-43160D03*
X63660Y-42040D03*
X58860Y-43080D03*
X67560Y-43640D03*
X59260Y-43640D03*
X59580Y-48920D03*
X64720Y-42700D03*
X65920Y-50640D03*
X65380Y-43180D03*
X66220Y-43120D03*
X66680Y-50220D03*
X67000Y-43140D03*
X67000Y-47700D03*
X59160Y-52380D03*
X51660Y-52480D03*
X51320Y-54040D03*
X59160Y-50260D03*
X60920Y-53580D03*
X56400Y-53580D03*
X60860Y-45900D03*
X61440Y-45880D03*
X57440Y-53440D03*
X61300Y-53100D03*
X61460Y-46460D03*
X58400Y-53280D03*
X61440Y-52520D03*
X50740Y-46300D03*
X50800Y-49080D03*
X50300Y-45860D03*
X50240Y-44000D03*
X49320Y-48380D03*
X50300Y-51800D03*
X50300Y-48760D03*
X52000Y-53960D03*
X62620Y-49480D03*
X62520Y-53980D03*
X53300Y-45200D03*
X74750Y-48900D03*
X74080Y-54620D03*
X60140Y-48720D03*
X75300Y-47850D03*
X75960Y-54520D03*
X74700Y-51440D03*
X76250Y-48850D03*
X70050Y-48250D03*
X75650Y-46800D03*
X77050Y-48850D03*
X67420Y-46660D03*
X76700Y-47250D03*
X66780Y-53800D03*
X70300Y-53740D03*
X58660Y-47400D03*
X74450Y-50150D03*
X54060Y-47800D03*
X60260Y-45880D03*
X61760Y-46960D03*
X58880Y-46620D03*
X68240Y-53040D03*
X68240Y-44080D03*
X61700Y-48300D03*
X63040Y-49880D03*
X62340Y-54560D03*
X56840Y-46120D03*
X71500Y-54580D03*
X56900Y-55300D03*
X68860Y-51980D03*
X68880Y-46320D03*
X62840Y-40820D03*
X63420Y-48700D03*
X52520Y-46740D03*
X65080Y-45080D03*
X65120Y-48640D03*
X65940Y-53760D03*
X66220Y-43700D03*
X53860Y-46400D03*
X69420Y-53840D03*
X69220Y-45680D03*
X64780Y-41500D03*
X76980Y-49640D03*
X73750Y-47250D03*
X69540Y-42280D03*
X69240Y-40840D03*
X64680Y-40880D03*
X69240Y-41500D03*
X60520Y-52160D03*
X61760Y-47560D03*
X73100Y-46550D03*
X74940Y-54640D03*
X68080Y-53700D03*
X73250Y-48050D03*
X74300Y-52800D03*
X65540Y-53140D03*
X59660Y-45860D03*
X75540Y-49360D03*
X64320Y-41920D03*
X71350Y-47750D03*
X71450Y-50150D03*
X72940Y-53500D03*
G54D28*
X55100Y-43400D02*
X55400Y-43400D01*
X54900Y-44300D02*
X54700Y-44100D01*
X55100Y-43400D02*
X55100Y-44300D01*
X55100Y-44300D02*
X54900Y-44300D01*
X54700Y-43400D02*
X55100Y-43400D01*
G54D29*
X70160Y-44140D02*
X72360Y-44140D01*
X73740Y-45511D02*
X76250Y-45511D01*
X72500Y-44271D02*
X73740Y-45511D01*
X72500Y-44000D02*
X72500Y-44271D01*
X76250Y-45511D02*
X76250Y-46150D01*
X73740Y-45511D02*
X74623Y-46394D01*
X77011Y-45511D02*
X77100Y-45600D01*
X76250Y-45511D02*
X77011Y-45511D01*
X77100Y-45600D02*
X77100Y-46200D01*
X72360Y-44140D02*
X72500Y-44000D01*
X76250Y-46150D02*
X76300Y-46200D01*
G54D28*
X51275Y-47125D02*
X51200Y-47200D01*
X57953Y-47125D02*
X51275Y-47125D01*
X60514Y-44834D02*
X60200Y-44520D01*
X55820Y-42220D02*
X54600Y-41000D01*
X60000Y-42220D02*
X55820Y-42220D01*
X60514Y-45194D02*
X60514Y-44834D01*
X60120Y-42340D02*
X60000Y-42220D01*
X60720Y-42320D02*
X60320Y-42720D01*
X60829Y-45194D02*
X60829Y-44529D01*
X60829Y-44529D02*
X60800Y-44500D01*
X59500Y-42372D02*
X55758Y-42372D01*
X59848Y-42720D02*
X59500Y-42372D01*
X54926Y-41540D02*
X54140Y-41540D01*
X54140Y-41540D02*
X53600Y-41000D01*
X60320Y-42720D02*
X59848Y-42720D01*
X55758Y-42372D02*
X54926Y-41540D01*
X57860Y-45042D02*
X53702Y-45042D01*
X58939Y-44799D02*
X58860Y-44720D01*
X53480Y-44820D02*
X53080Y-44820D01*
X58939Y-45194D02*
X58939Y-44799D01*
X58182Y-44720D02*
X57860Y-45042D01*
X52700Y-45200D02*
X49500Y-45200D01*
X53702Y-45042D02*
X53480Y-44820D01*
X53080Y-44820D02*
X52700Y-45200D01*
X58860Y-44720D02*
X58182Y-44720D01*
X59440Y-52920D02*
X59380Y-52860D01*
X59569Y-50731D02*
X59500Y-50800D01*
X59380Y-52860D02*
X50940Y-52860D01*
X59569Y-50691D02*
X59569Y-49604D01*
X59569Y-50691D02*
X59569Y-50731D01*
X57953Y-48070D02*
X58630Y-48070D01*
X59108Y-54112D02*
X60712Y-54112D01*
X60712Y-54112D02*
X61400Y-54800D01*
X58880Y-54340D02*
X59108Y-54112D01*
X58630Y-48070D02*
X58640Y-48080D01*
X58624Y-48956D02*
X58624Y-49604D01*
X63380Y-42320D02*
X63660Y-42040D01*
X58860Y-43080D02*
X59040Y-43260D01*
X59040Y-43260D02*
X63380Y-43260D01*
X68060Y-43160D02*
X67800Y-42900D01*
X63380Y-43260D02*
X63380Y-42320D01*
X58624Y-48956D02*
X59280Y-48300D01*
X59280Y-48300D02*
X59280Y-48140D01*
X67800Y-42600D02*
X67800Y-42900D01*
X67640Y-43560D02*
X68720Y-43560D01*
X58939Y-49604D02*
X58939Y-49141D01*
X59160Y-48920D02*
X59580Y-48920D01*
X68720Y-43560D02*
X68600Y-43440D01*
X58939Y-49141D02*
X59160Y-48920D01*
X67560Y-43640D02*
X67640Y-43560D01*
X59480Y-43420D02*
X64000Y-43420D01*
X64000Y-43420D02*
X64720Y-42700D01*
X59260Y-43640D02*
X59480Y-43420D01*
X68600Y-43440D02*
X68600Y-42600D01*
X60829Y-49604D02*
X60829Y-50063D01*
X65380Y-43180D02*
X65400Y-43160D01*
X60829Y-50063D02*
X61178Y-50412D01*
X65400Y-43160D02*
X65400Y-42600D01*
X61178Y-50412D02*
X65692Y-50412D01*
X65692Y-50412D02*
X65920Y-50640D01*
X66220Y-43120D02*
X66200Y-43100D01*
X66200Y-43100D02*
X66200Y-42600D01*
X61144Y-50164D02*
X61240Y-50260D01*
X61240Y-50260D02*
X66640Y-50260D01*
X61144Y-49604D02*
X61144Y-50164D01*
X66640Y-50260D02*
X66680Y-50220D01*
X67000Y-43140D02*
X67000Y-42600D01*
X62442Y-47755D02*
X66945Y-47755D01*
X66945Y-47755D02*
X67000Y-47700D01*
X59254Y-50166D02*
X59160Y-50260D01*
X59160Y-52380D02*
X58832Y-52708D01*
X50940Y-55340D02*
X51400Y-55800D01*
X51320Y-54040D02*
X50940Y-54420D01*
X58832Y-52708D02*
X51888Y-52708D01*
X50940Y-54420D02*
X50940Y-55340D01*
X51888Y-52708D02*
X51660Y-52480D01*
X59254Y-49604D02*
X59254Y-50166D01*
X60920Y-53580D02*
X60692Y-53808D01*
X56628Y-53808D02*
X56400Y-53580D01*
X61144Y-45616D02*
X60860Y-45900D01*
X60692Y-53808D02*
X56628Y-53808D01*
X61144Y-45194D02*
X61144Y-45616D01*
X61300Y-53100D02*
X61200Y-53200D01*
X61200Y-53200D02*
X60756Y-53200D01*
X61459Y-45194D02*
X61459Y-45861D01*
X60300Y-53656D02*
X57656Y-53656D01*
X61459Y-45861D02*
X61440Y-45880D01*
X60756Y-53200D02*
X60300Y-53656D01*
X57656Y-53656D02*
X57440Y-53440D01*
X58624Y-53504D02*
X58400Y-53280D01*
X61820Y-46100D02*
X61460Y-46460D01*
X61022Y-52720D02*
X60238Y-53504D01*
X61774Y-45194D02*
X61774Y-45654D01*
X60238Y-53504D02*
X58624Y-53504D01*
X61240Y-52720D02*
X61022Y-52720D01*
X61440Y-52520D02*
X61240Y-52720D01*
X61774Y-45654D02*
X61820Y-45700D01*
X61820Y-45700D02*
X61820Y-46100D01*
X50700Y-46260D02*
X50000Y-46260D01*
X50000Y-46260D02*
X48740Y-45000D01*
X50740Y-46300D02*
X50700Y-46260D01*
X57953Y-49015D02*
X50865Y-49015D01*
X48740Y-45000D02*
X48500Y-45000D01*
X50865Y-49015D02*
X50800Y-49080D01*
X55060Y-45865D02*
X50305Y-45865D01*
X50240Y-44000D02*
X48500Y-44000D01*
X55579Y-45346D02*
X55060Y-45865D01*
X57106Y-45346D02*
X55579Y-45346D01*
X57625Y-45865D02*
X57106Y-45346D01*
X50305Y-45865D02*
X50300Y-45860D01*
X57953Y-45865D02*
X57625Y-45865D01*
X57953Y-48385D02*
X49325Y-48385D01*
X49325Y-48385D02*
X49320Y-48380D01*
X50300Y-51800D02*
X48400Y-51800D01*
X57953Y-48700D02*
X50360Y-48700D01*
X50360Y-48700D02*
X50300Y-48760D01*
X62520Y-53980D02*
X62500Y-53960D01*
X62442Y-49302D02*
X62620Y-49480D01*
X62442Y-49015D02*
X62442Y-49302D01*
X62500Y-53960D02*
X52000Y-53960D01*
X58624Y-45194D02*
X53306Y-45194D01*
X53306Y-45194D02*
X53300Y-45200D01*
X77100Y-48300D02*
X77100Y-48800D01*
X67414Y-46654D02*
X67420Y-46660D01*
X74623Y-48206D02*
X74623Y-48773D01*
X74623Y-48206D02*
X74944Y-48206D01*
X66496Y-54084D02*
X66780Y-53800D01*
X77100Y-46800D02*
X77100Y-46850D01*
X58620Y-47440D02*
X58660Y-47400D01*
X61925Y-47125D02*
X61760Y-46960D01*
X77100Y-46850D02*
X76700Y-47250D01*
X76300Y-48800D02*
X76250Y-48850D01*
X74944Y-48206D02*
X75300Y-47850D01*
X77100Y-48800D02*
X77050Y-48850D01*
X70000Y-47800D02*
X70000Y-48200D01*
X70000Y-48200D02*
X70050Y-48250D01*
X76300Y-48300D02*
X76300Y-48800D01*
X73795Y-50100D02*
X74400Y-50100D01*
X60199Y-45819D02*
X60260Y-45880D01*
X74623Y-48773D02*
X74750Y-48900D01*
X74400Y-50100D02*
X74450Y-50150D01*
X76300Y-46800D02*
X75650Y-46800D01*
X73496Y-54626D02*
X74074Y-54626D01*
X60199Y-45819D02*
X60199Y-45194D01*
X75626Y-51504D02*
X74764Y-51504D01*
X74074Y-54626D02*
X74080Y-54620D01*
X74764Y-51504D02*
X74700Y-51440D01*
X69996Y-54626D02*
X69996Y-54044D01*
X66496Y-54626D02*
X66496Y-54084D01*
X69996Y-54044D02*
X70300Y-53740D01*
X75626Y-54854D02*
X75960Y-54520D01*
X66181Y-46654D02*
X67414Y-46654D01*
X75626Y-55004D02*
X75626Y-54854D01*
X60199Y-48779D02*
X60140Y-48720D01*
X54700Y-47800D02*
X54060Y-47800D01*
X60199Y-49604D02*
X60199Y-48779D01*
X57953Y-47440D02*
X58620Y-47440D01*
X61925Y-47125D02*
X62442Y-47125D01*
X59520Y-46620D02*
X58880Y-46620D01*
X60514Y-47614D02*
X59520Y-46620D01*
X60514Y-49604D02*
X60514Y-47614D01*
X74500Y-53440D02*
X74990Y-53440D01*
X74990Y-53440D02*
X75550Y-54000D01*
X73900Y-53440D02*
X74500Y-53440D01*
X73340Y-52880D02*
X73900Y-53440D01*
X68240Y-53040D02*
X68400Y-52880D01*
X68400Y-52880D02*
X73340Y-52880D01*
X59569Y-44511D02*
X60000Y-44080D01*
X60000Y-44080D02*
X68240Y-44080D01*
X59569Y-45194D02*
X59569Y-44511D01*
X74500Y-54780D02*
X74500Y-53440D01*
X75216Y-55496D02*
X74500Y-54780D01*
X75626Y-55496D02*
X75216Y-55496D01*
X67000Y-41395D02*
X67000Y-42000D01*
X65400Y-42000D02*
X65400Y-41395D01*
X66200Y-41395D02*
X66200Y-42000D01*
X67800Y-42000D02*
X67800Y-41395D01*
X68600Y-41395D02*
X68600Y-42000D01*
X61459Y-48541D02*
X61700Y-48300D01*
X61459Y-49604D02*
X61459Y-48541D01*
X65000Y-46900D02*
X63100Y-46900D01*
X65000Y-46900D02*
X65360Y-46900D01*
X63010Y-46810D02*
X62442Y-46810D01*
X63100Y-46900D02*
X63010Y-46810D01*
X65508Y-47048D02*
X66181Y-47048D01*
X65360Y-46900D02*
X65508Y-47048D01*
X62024Y-49604D02*
X62300Y-49880D01*
X62300Y-49880D02*
X63040Y-49880D01*
X61774Y-49604D02*
X62024Y-49604D01*
X71780Y-54300D02*
X72250Y-54300D01*
X56900Y-55300D02*
X61600Y-55300D01*
X61600Y-55300D02*
X62340Y-54560D01*
X71500Y-54580D02*
X72958Y-54580D01*
X72958Y-54580D02*
X73004Y-54626D01*
X57953Y-46180D02*
X56900Y-46180D01*
X56900Y-46180D02*
X56840Y-46120D01*
X71500Y-54580D02*
X71780Y-54300D01*
X75550Y-52072D02*
X75626Y-51996D01*
X75550Y-52750D02*
X75550Y-52072D01*
X62442Y-46180D02*
X63860Y-46180D01*
X68392Y-45832D02*
X68880Y-46320D01*
X64032Y-46180D02*
X64380Y-45832D01*
X64380Y-45832D02*
X68392Y-45832D01*
X63860Y-46180D02*
X63840Y-46180D01*
X68860Y-51980D02*
X68876Y-51996D01*
X63860Y-46180D02*
X64032Y-46180D01*
X68876Y-51996D02*
X75626Y-51996D01*
X62840Y-40820D02*
X62460Y-40440D01*
X53160Y-40440D02*
X52600Y-41000D01*
X62442Y-48700D02*
X63420Y-48700D01*
X62460Y-40440D02*
X53160Y-40440D01*
X52590Y-46810D02*
X52520Y-46740D01*
X57953Y-46810D02*
X52590Y-46810D01*
X65120Y-45040D02*
X65080Y-45080D01*
X64702Y-48222D02*
X63238Y-48222D01*
X65120Y-48640D02*
X64702Y-48222D01*
X63238Y-48222D02*
X63075Y-48385D01*
X69790Y-45040D02*
X65120Y-45040D01*
X63075Y-48385D02*
X62442Y-48385D01*
X66004Y-53824D02*
X66004Y-54626D01*
X65992Y-43928D02*
X66220Y-43700D01*
X65940Y-53760D02*
X66004Y-53824D01*
X65940Y-53760D02*
X65790Y-53760D01*
X59254Y-44612D02*
X59938Y-43928D01*
X65790Y-53760D02*
X65250Y-54300D01*
X59254Y-45194D02*
X59254Y-44612D01*
X59938Y-43928D02*
X65992Y-43928D01*
X57953Y-46495D02*
X53955Y-46495D01*
X53955Y-46495D02*
X53860Y-46400D01*
X66141Y-46300D02*
X66181Y-46260D01*
X65000Y-46300D02*
X64620Y-46300D01*
X64620Y-46300D02*
X64425Y-46495D01*
X64425Y-46495D02*
X62442Y-46495D01*
X65000Y-46300D02*
X66141Y-46300D01*
X69640Y-47200D02*
X69360Y-47480D01*
X69360Y-47480D02*
X69360Y-47940D01*
X70000Y-47200D02*
X69640Y-47200D01*
X69230Y-48070D02*
X62442Y-48070D01*
X70000Y-46500D02*
X70000Y-47200D01*
X69360Y-47940D02*
X69230Y-48070D01*
X63295Y-45865D02*
X63480Y-45680D01*
X62442Y-45865D02*
X63295Y-45865D01*
X69504Y-53924D02*
X69504Y-54626D01*
X69420Y-53840D02*
X69504Y-53924D01*
X63480Y-45680D02*
X69220Y-45680D01*
X69210Y-53840D02*
X68750Y-54300D01*
X69420Y-53840D02*
X69210Y-53840D01*
X70040Y-45900D02*
X70530Y-45410D01*
X70000Y-45900D02*
X70040Y-45900D01*
X70530Y-45410D02*
X70530Y-45040D01*
G54D29*
X77100Y-43000D02*
X74500Y-43000D01*
X74500Y-43000D02*
X73500Y-44000D01*
G54D28*
X72600Y-50100D02*
X73205Y-50100D01*
X55300Y-47800D02*
X57908Y-47800D01*
X57908Y-47800D02*
X57953Y-47755D01*
X59900Y-49620D02*
X59884Y-49604D01*
X59900Y-51800D02*
X59900Y-49620D01*
X67480Y-42300D02*
X69520Y-42300D01*
X77360Y-47700D02*
X77540Y-47880D01*
X77540Y-49080D02*
X76980Y-49640D01*
X65400Y-40805D02*
X64755Y-40805D01*
X77100Y-47700D02*
X77360Y-47700D01*
X68200Y-40805D02*
X68200Y-41120D01*
X67380Y-40805D02*
X67380Y-42200D01*
X67380Y-42200D02*
X67480Y-42300D01*
X66600Y-40805D02*
X67000Y-40805D01*
X59884Y-45636D02*
X59660Y-45860D01*
X68200Y-41120D02*
X68220Y-41100D01*
X64720Y-42320D02*
X64320Y-41920D01*
X66600Y-42300D02*
X66580Y-42320D01*
X64780Y-41440D02*
X64780Y-41500D01*
X65700Y-41080D02*
X65140Y-41080D01*
X75540Y-48280D02*
X75540Y-49360D01*
X59884Y-45636D02*
X59884Y-45194D01*
X66200Y-40805D02*
X66600Y-40805D01*
X67000Y-40805D02*
X67380Y-40805D01*
X67800Y-40805D02*
X68200Y-40805D01*
X68840Y-41100D02*
X69240Y-41500D01*
X68220Y-41100D02*
X68840Y-41100D01*
X65820Y-40805D02*
X65820Y-40960D01*
X66600Y-40805D02*
X66600Y-42300D01*
X66580Y-42320D02*
X64720Y-42320D01*
X72300Y-47300D02*
X72500Y-47300D01*
X67380Y-40805D02*
X67800Y-40805D01*
X68200Y-40805D02*
X68600Y-40805D01*
X68600Y-40805D02*
X68635Y-40840D01*
X68635Y-40840D02*
X69240Y-40840D01*
X64755Y-40805D02*
X64680Y-40880D01*
X65820Y-40960D02*
X65700Y-41080D01*
X77540Y-47880D02*
X77540Y-49080D01*
X65140Y-41080D02*
X64780Y-41440D01*
X74350Y-52750D02*
X74300Y-52800D01*
X65400Y-40805D02*
X65820Y-40805D01*
X73800Y-47300D02*
X73750Y-47250D01*
X76120Y-47700D02*
X75540Y-48280D01*
X74950Y-54630D02*
X74940Y-54640D01*
X74950Y-54000D02*
X74950Y-54630D01*
X65250Y-53700D02*
X65250Y-53430D01*
X71800Y-47300D02*
X71350Y-47750D01*
X68750Y-53700D02*
X68080Y-53700D01*
X65250Y-53430D02*
X65540Y-53140D01*
X72740Y-53700D02*
X72940Y-53500D01*
X74950Y-52750D02*
X74350Y-52750D01*
X59900Y-52400D02*
X60280Y-52400D01*
X72300Y-47300D02*
X71800Y-47300D01*
X69520Y-42300D02*
X69540Y-42280D01*
X74623Y-47300D02*
X73800Y-47300D01*
X61880Y-47440D02*
X61760Y-47560D01*
X72250Y-53700D02*
X72740Y-53700D01*
X72300Y-47300D02*
X72350Y-47300D01*
X61880Y-47440D02*
X62442Y-47440D01*
X65820Y-40805D02*
X66200Y-40805D01*
X72000Y-50100D02*
X71500Y-50100D01*
X76300Y-47700D02*
X76120Y-47700D01*
X72350Y-47300D02*
X73100Y-46550D01*
X72500Y-47300D02*
X73250Y-48050D01*
X60280Y-52400D02*
X60520Y-52160D01*
X71500Y-50100D02*
X71450Y-50150D01*
M02*
