G04 (created by PCBNEW-RS274X (2012-01-19 BZR 3256)-stable) date 4/10/2013 11:47:38 AM*
G01*
G70*
G90*
%MOIN*%
G04 Gerber Fmt 3.4, Leading zero omitted, Abs format*
%FSLAX34Y34*%
G04 APERTURE LIST*
%ADD10C,0.006000*%
%ADD11C,0.065000*%
%ADD12R,0.060000X0.060000*%
%ADD13C,0.060000*%
%ADD14C,0.050000*%
%ADD15C,0.007000*%
%ADD16C,0.010000*%
G04 APERTURE END LIST*
G54D10*
G54D11*
X73500Y-44000D03*
X72500Y-42000D03*
X74500Y-42000D03*
X72500Y-44000D03*
X74500Y-44000D03*
G54D12*
X58000Y-41500D03*
G54D13*
X59000Y-41500D03*
X60000Y-41500D03*
X61000Y-41500D03*
X62000Y-41500D03*
G54D12*
X54600Y-41000D03*
G54D13*
X54600Y-42000D03*
X53600Y-41000D03*
X53600Y-42000D03*
X52600Y-41000D03*
X52600Y-42000D03*
X51600Y-41000D03*
X51600Y-42000D03*
G54D12*
X77100Y-43000D03*
G54D13*
X77100Y-42000D03*
G54D12*
X48500Y-41000D03*
G54D13*
X48500Y-42000D03*
X48500Y-43000D03*
X48500Y-44000D03*
X48500Y-45000D03*
X48500Y-46000D03*
G54D12*
X48400Y-47800D03*
G54D13*
X48400Y-48800D03*
X48400Y-49800D03*
X48400Y-50800D03*
X48400Y-51800D03*
X48400Y-52800D03*
G54D12*
X61400Y-55800D03*
G54D13*
X61400Y-54800D03*
X60400Y-55800D03*
X60400Y-54800D03*
X59400Y-55800D03*
X59400Y-54800D03*
X58400Y-55800D03*
X58400Y-54800D03*
X57400Y-55800D03*
X57400Y-54800D03*
X56400Y-55800D03*
X56400Y-54800D03*
X55400Y-55800D03*
X55400Y-54800D03*
X54400Y-55800D03*
X54400Y-54800D03*
X53400Y-55800D03*
X53400Y-54800D03*
X52400Y-55800D03*
X52400Y-54800D03*
X51400Y-55800D03*
X51400Y-54800D03*
X50400Y-55800D03*
X50400Y-54800D03*
X49400Y-55800D03*
X49400Y-54800D03*
X48400Y-55800D03*
X48400Y-54800D03*
G54D14*
X51200Y-47200D03*
X60120Y-42340D03*
X60200Y-44520D03*
X60720Y-42320D03*
X60800Y-44500D03*
X49500Y-45200D03*
X50940Y-52860D03*
X59440Y-52920D03*
X59500Y-50800D03*
X58880Y-54340D03*
X58640Y-48080D03*
X58860Y-43080D03*
X63660Y-42040D03*
X68060Y-43160D03*
X59280Y-48140D03*
X64720Y-42700D03*
X67560Y-43640D03*
X59580Y-48920D03*
X59260Y-43640D03*
X65920Y-50640D03*
X65380Y-43180D03*
X66680Y-50220D03*
X66220Y-43120D03*
X67000Y-43140D03*
X67000Y-47700D03*
X51660Y-52480D03*
X51320Y-54040D03*
X59160Y-50260D03*
X59160Y-52380D03*
X60920Y-53580D03*
X56400Y-53580D03*
X60860Y-45900D03*
X57440Y-53440D03*
X61300Y-53100D03*
X61440Y-45880D03*
X58400Y-53280D03*
X61460Y-46460D03*
X61440Y-52520D03*
X50800Y-49080D03*
X50740Y-46300D03*
X50300Y-45860D03*
X50240Y-44000D03*
X49320Y-48380D03*
X50300Y-51800D03*
X50300Y-48760D03*
X52000Y-53960D03*
X62520Y-53980D03*
X62620Y-49480D03*
X53300Y-45200D03*
X70300Y-53740D03*
X66780Y-53800D03*
X74700Y-51440D03*
X74450Y-50150D03*
X54060Y-47800D03*
X60260Y-45880D03*
X61760Y-46960D03*
X58660Y-47400D03*
X74080Y-54620D03*
X60140Y-48720D03*
X74750Y-48900D03*
X75960Y-54520D03*
X75300Y-47850D03*
X76700Y-47250D03*
X76250Y-48850D03*
X70050Y-48250D03*
X75650Y-46800D03*
X77050Y-48850D03*
X67420Y-46660D03*
X58880Y-46620D03*
X68240Y-44080D03*
X68240Y-53040D03*
X61700Y-48300D03*
X63040Y-49880D03*
X62340Y-54560D03*
X56840Y-46120D03*
X56900Y-55300D03*
X71500Y-54580D03*
X68860Y-51980D03*
X68880Y-46320D03*
X62840Y-40820D03*
X63420Y-48700D03*
X52520Y-46740D03*
X65080Y-45080D03*
X65120Y-48640D03*
X66220Y-43700D03*
X65940Y-53760D03*
X53860Y-46400D03*
X69220Y-45680D03*
X69420Y-53840D03*
X68080Y-53700D03*
X65540Y-53140D03*
X74300Y-52800D03*
X73250Y-48050D03*
X74940Y-54640D03*
X73100Y-46550D03*
X61760Y-47560D03*
X71450Y-50150D03*
X72940Y-53500D03*
X71350Y-47750D03*
X64320Y-41920D03*
X75540Y-49360D03*
X59660Y-45860D03*
X73750Y-47250D03*
X76980Y-49640D03*
X64780Y-41500D03*
X69240Y-41500D03*
X69540Y-42280D03*
X60520Y-52160D03*
X64680Y-40880D03*
X69240Y-40840D03*
G54D15*
X56000Y-43900D02*
X55700Y-43600D01*
X55400Y-43900D02*
X56000Y-43900D01*
X56000Y-43900D02*
X55700Y-44200D01*
G54D10*
G36*
X77450Y-56450D02*
X76459Y-56450D01*
X76459Y-54619D01*
X76459Y-54421D01*
X76383Y-54238D01*
X76243Y-54097D01*
X76059Y-54021D01*
X75861Y-54021D01*
X75678Y-54097D01*
X75537Y-54237D01*
X75461Y-54421D01*
X75461Y-54619D01*
X75537Y-54802D01*
X75677Y-54943D01*
X75861Y-55019D01*
X76059Y-55019D01*
X76242Y-54943D01*
X76383Y-54803D01*
X76459Y-54619D01*
X76459Y-56450D01*
X75249Y-56450D01*
X75249Y-48999D01*
X75249Y-48801D01*
X75173Y-48618D01*
X75033Y-48477D01*
X74849Y-48401D01*
X74651Y-48401D01*
X74468Y-48477D01*
X74327Y-48617D01*
X74251Y-48801D01*
X74251Y-48999D01*
X74327Y-49182D01*
X74467Y-49323D01*
X74651Y-49399D01*
X74849Y-49399D01*
X75032Y-49323D01*
X75173Y-49183D01*
X75249Y-48999D01*
X75249Y-56450D01*
X75199Y-56450D01*
X75199Y-51539D01*
X75199Y-51341D01*
X75123Y-51158D01*
X74983Y-51017D01*
X74949Y-51002D01*
X74949Y-50249D01*
X74949Y-50051D01*
X74873Y-49868D01*
X74733Y-49727D01*
X74549Y-49651D01*
X74351Y-49651D01*
X74168Y-49727D01*
X74027Y-49867D01*
X73951Y-50051D01*
X73951Y-50249D01*
X74027Y-50432D01*
X74167Y-50573D01*
X74351Y-50649D01*
X74549Y-50649D01*
X74732Y-50573D01*
X74873Y-50433D01*
X74949Y-50249D01*
X74949Y-51002D01*
X74799Y-50941D01*
X74601Y-50941D01*
X74418Y-51017D01*
X74277Y-51157D01*
X74201Y-51341D01*
X74201Y-51539D01*
X74277Y-51722D01*
X74417Y-51863D01*
X74601Y-51939D01*
X74799Y-51939D01*
X74982Y-51863D01*
X75123Y-51723D01*
X75199Y-51539D01*
X75199Y-56450D01*
X74579Y-56450D01*
X74579Y-54719D01*
X74579Y-54521D01*
X74503Y-54338D01*
X74363Y-54197D01*
X74179Y-54121D01*
X73981Y-54121D01*
X73798Y-54197D01*
X73657Y-54337D01*
X73581Y-54521D01*
X73581Y-54719D01*
X73657Y-54902D01*
X73797Y-55043D01*
X73981Y-55119D01*
X74179Y-55119D01*
X74362Y-55043D01*
X74503Y-54903D01*
X74579Y-54719D01*
X74579Y-56450D01*
X71999Y-56450D01*
X71999Y-54679D01*
X71999Y-54481D01*
X71923Y-54298D01*
X71783Y-54157D01*
X71599Y-54081D01*
X71401Y-54081D01*
X71218Y-54157D01*
X71077Y-54297D01*
X71001Y-54481D01*
X71001Y-54679D01*
X71077Y-54862D01*
X71217Y-55003D01*
X71401Y-55079D01*
X71599Y-55079D01*
X71782Y-55003D01*
X71923Y-54863D01*
X71999Y-54679D01*
X71999Y-56450D01*
X70799Y-56450D01*
X70799Y-53839D01*
X70799Y-53641D01*
X70723Y-53458D01*
X70583Y-53317D01*
X70549Y-53302D01*
X70549Y-48349D01*
X70549Y-48151D01*
X70473Y-47968D01*
X70333Y-47827D01*
X70149Y-47751D01*
X69951Y-47751D01*
X69768Y-47827D01*
X69719Y-47875D01*
X69719Y-45779D01*
X69719Y-45581D01*
X69643Y-45398D01*
X69503Y-45257D01*
X69319Y-45181D01*
X69121Y-45181D01*
X68938Y-45257D01*
X68797Y-45397D01*
X68739Y-45537D01*
X68739Y-44179D01*
X68739Y-43981D01*
X68663Y-43798D01*
X68523Y-43657D01*
X68342Y-43582D01*
X68483Y-43443D01*
X68559Y-43259D01*
X68559Y-43061D01*
X68483Y-42878D01*
X68343Y-42737D01*
X68159Y-42661D01*
X67961Y-42661D01*
X67778Y-42737D01*
X67637Y-42877D01*
X67561Y-43061D01*
X67561Y-43141D01*
X67499Y-43141D01*
X67499Y-43041D01*
X67423Y-42858D01*
X67283Y-42717D01*
X67099Y-42641D01*
X66901Y-42641D01*
X66718Y-42717D01*
X66619Y-42814D01*
X66503Y-42697D01*
X66319Y-42621D01*
X66121Y-42621D01*
X65938Y-42697D01*
X65797Y-42837D01*
X65780Y-42875D01*
X65663Y-42757D01*
X65479Y-42681D01*
X65281Y-42681D01*
X65219Y-42706D01*
X65219Y-42601D01*
X65143Y-42418D01*
X65003Y-42277D01*
X64819Y-42201D01*
X64621Y-42201D01*
X64438Y-42277D01*
X64297Y-42417D01*
X64221Y-42601D01*
X64221Y-42799D01*
X64297Y-42982D01*
X64437Y-43123D01*
X64621Y-43199D01*
X64819Y-43199D01*
X64881Y-43173D01*
X64881Y-43279D01*
X64957Y-43462D01*
X65097Y-43603D01*
X65281Y-43679D01*
X65479Y-43679D01*
X65662Y-43603D01*
X65760Y-43505D01*
X65721Y-43601D01*
X65721Y-43799D01*
X65797Y-43982D01*
X65937Y-44123D01*
X66121Y-44199D01*
X66319Y-44199D01*
X66502Y-44123D01*
X66643Y-43983D01*
X66719Y-43799D01*
X66719Y-43601D01*
X66693Y-43539D01*
X66717Y-43563D01*
X66901Y-43639D01*
X67061Y-43639D01*
X67061Y-43739D01*
X67137Y-43922D01*
X67277Y-44063D01*
X67461Y-44139D01*
X67659Y-44139D01*
X67741Y-44104D01*
X67741Y-44179D01*
X67817Y-44362D01*
X67957Y-44503D01*
X68141Y-44579D01*
X68339Y-44579D01*
X68522Y-44503D01*
X68663Y-44363D01*
X68739Y-44179D01*
X68739Y-45537D01*
X68721Y-45581D01*
X68721Y-45779D01*
X68744Y-45836D01*
X68598Y-45897D01*
X68457Y-46037D01*
X68381Y-46221D01*
X68381Y-46419D01*
X68457Y-46602D01*
X68597Y-46743D01*
X68781Y-46819D01*
X68979Y-46819D01*
X69162Y-46743D01*
X69303Y-46603D01*
X69379Y-46419D01*
X69379Y-46221D01*
X69355Y-46163D01*
X69502Y-46103D01*
X69643Y-45963D01*
X69719Y-45779D01*
X69719Y-47875D01*
X69627Y-47967D01*
X69551Y-48151D01*
X69551Y-48349D01*
X69627Y-48532D01*
X69767Y-48673D01*
X69951Y-48749D01*
X70149Y-48749D01*
X70332Y-48673D01*
X70473Y-48533D01*
X70549Y-48349D01*
X70549Y-53302D01*
X70399Y-53241D01*
X70201Y-53241D01*
X70018Y-53317D01*
X69877Y-53457D01*
X69837Y-53552D01*
X69703Y-53417D01*
X69519Y-53341D01*
X69359Y-53341D01*
X69359Y-52079D01*
X69359Y-51881D01*
X69283Y-51698D01*
X69143Y-51557D01*
X68959Y-51481D01*
X68761Y-51481D01*
X68578Y-51557D01*
X68437Y-51697D01*
X68361Y-51881D01*
X68361Y-52079D01*
X68437Y-52262D01*
X68577Y-52403D01*
X68761Y-52479D01*
X68959Y-52479D01*
X69142Y-52403D01*
X69283Y-52263D01*
X69359Y-52079D01*
X69359Y-53341D01*
X69321Y-53341D01*
X69138Y-53417D01*
X68997Y-53557D01*
X68921Y-53741D01*
X68921Y-53939D01*
X68997Y-54122D01*
X69137Y-54263D01*
X69321Y-54339D01*
X69519Y-54339D01*
X69702Y-54263D01*
X69843Y-54123D01*
X69882Y-54027D01*
X70017Y-54163D01*
X70201Y-54239D01*
X70399Y-54239D01*
X70582Y-54163D01*
X70723Y-54023D01*
X70799Y-53839D01*
X70799Y-56450D01*
X68739Y-56450D01*
X68739Y-53139D01*
X68739Y-52941D01*
X68663Y-52758D01*
X68523Y-52617D01*
X68339Y-52541D01*
X68141Y-52541D01*
X67958Y-52617D01*
X67919Y-52655D01*
X67919Y-46759D01*
X67919Y-46561D01*
X67843Y-46378D01*
X67703Y-46237D01*
X67519Y-46161D01*
X67321Y-46161D01*
X67138Y-46237D01*
X66997Y-46377D01*
X66921Y-46561D01*
X66921Y-46759D01*
X66997Y-46942D01*
X67137Y-47083D01*
X67321Y-47159D01*
X67519Y-47159D01*
X67702Y-47083D01*
X67843Y-46943D01*
X67919Y-46759D01*
X67919Y-52655D01*
X67817Y-52757D01*
X67741Y-52941D01*
X67741Y-53139D01*
X67817Y-53322D01*
X67957Y-53463D01*
X68141Y-53539D01*
X68339Y-53539D01*
X68522Y-53463D01*
X68663Y-53323D01*
X68739Y-53139D01*
X68739Y-56450D01*
X67499Y-56450D01*
X67499Y-47799D01*
X67499Y-47601D01*
X67423Y-47418D01*
X67283Y-47277D01*
X67099Y-47201D01*
X66901Y-47201D01*
X66718Y-47277D01*
X66577Y-47417D01*
X66501Y-47601D01*
X66501Y-47799D01*
X66577Y-47982D01*
X66717Y-48123D01*
X66901Y-48199D01*
X67099Y-48199D01*
X67282Y-48123D01*
X67423Y-47983D01*
X67499Y-47799D01*
X67499Y-56450D01*
X67279Y-56450D01*
X67279Y-53899D01*
X67279Y-53701D01*
X67203Y-53518D01*
X67179Y-53493D01*
X67179Y-50319D01*
X67179Y-50121D01*
X67103Y-49938D01*
X66963Y-49797D01*
X66779Y-49721D01*
X66581Y-49721D01*
X66398Y-49797D01*
X66257Y-49937D01*
X66181Y-50121D01*
X66181Y-50207D01*
X66019Y-50141D01*
X65821Y-50141D01*
X65638Y-50217D01*
X65619Y-50235D01*
X65619Y-48739D01*
X65619Y-48541D01*
X65579Y-48444D01*
X65579Y-45179D01*
X65579Y-44981D01*
X65503Y-44798D01*
X65363Y-44657D01*
X65179Y-44581D01*
X64981Y-44581D01*
X64798Y-44657D01*
X64657Y-44797D01*
X64581Y-44981D01*
X64581Y-45179D01*
X64657Y-45362D01*
X64797Y-45503D01*
X64981Y-45579D01*
X65179Y-45579D01*
X65362Y-45503D01*
X65503Y-45363D01*
X65579Y-45179D01*
X65579Y-48444D01*
X65543Y-48358D01*
X65403Y-48217D01*
X65219Y-48141D01*
X65021Y-48141D01*
X64838Y-48217D01*
X64697Y-48357D01*
X64621Y-48541D01*
X64621Y-48739D01*
X64697Y-48922D01*
X64837Y-49063D01*
X65021Y-49139D01*
X65219Y-49139D01*
X65402Y-49063D01*
X65543Y-48923D01*
X65619Y-48739D01*
X65619Y-50235D01*
X65497Y-50357D01*
X65421Y-50541D01*
X65421Y-50739D01*
X65497Y-50922D01*
X65637Y-51063D01*
X65821Y-51139D01*
X66019Y-51139D01*
X66202Y-51063D01*
X66343Y-50923D01*
X66419Y-50739D01*
X66419Y-50652D01*
X66581Y-50719D01*
X66779Y-50719D01*
X66962Y-50643D01*
X67103Y-50503D01*
X67179Y-50319D01*
X67179Y-53493D01*
X67063Y-53377D01*
X66879Y-53301D01*
X66681Y-53301D01*
X66498Y-53377D01*
X66372Y-53501D01*
X66363Y-53478D01*
X66223Y-53337D01*
X66039Y-53261D01*
X65841Y-53261D01*
X65658Y-53337D01*
X65517Y-53477D01*
X65441Y-53661D01*
X65441Y-53859D01*
X65517Y-54042D01*
X65657Y-54183D01*
X65841Y-54259D01*
X66039Y-54259D01*
X66222Y-54183D01*
X66347Y-54058D01*
X66357Y-54082D01*
X66497Y-54223D01*
X66681Y-54299D01*
X66879Y-54299D01*
X67062Y-54223D01*
X67203Y-54083D01*
X67279Y-53899D01*
X67279Y-56450D01*
X64159Y-56450D01*
X64159Y-42139D01*
X64159Y-41941D01*
X64083Y-41758D01*
X63943Y-41617D01*
X63759Y-41541D01*
X63561Y-41541D01*
X63378Y-41617D01*
X63237Y-41757D01*
X63161Y-41941D01*
X63161Y-42139D01*
X63237Y-42322D01*
X63377Y-42463D01*
X63561Y-42539D01*
X63759Y-42539D01*
X63942Y-42463D01*
X64083Y-42323D01*
X64159Y-42139D01*
X64159Y-56450D01*
X63919Y-56450D01*
X63919Y-48799D01*
X63919Y-48601D01*
X63843Y-48418D01*
X63703Y-48277D01*
X63519Y-48201D01*
X63321Y-48201D01*
X63138Y-48277D01*
X62997Y-48417D01*
X62921Y-48601D01*
X62921Y-48799D01*
X62997Y-48982D01*
X63137Y-49123D01*
X63321Y-49199D01*
X63519Y-49199D01*
X63702Y-49123D01*
X63843Y-48983D01*
X63919Y-48799D01*
X63919Y-56450D01*
X63539Y-56450D01*
X63539Y-49979D01*
X63539Y-49781D01*
X63463Y-49598D01*
X63323Y-49457D01*
X63139Y-49381D01*
X63119Y-49381D01*
X63043Y-49198D01*
X62903Y-49057D01*
X62719Y-48981D01*
X62549Y-48981D01*
X62549Y-41609D01*
X62549Y-41391D01*
X62465Y-41189D01*
X62311Y-41035D01*
X62109Y-40951D01*
X61891Y-40951D01*
X61689Y-41035D01*
X61535Y-41189D01*
X61500Y-41273D01*
X61465Y-41189D01*
X61311Y-41035D01*
X61109Y-40951D01*
X60891Y-40951D01*
X60689Y-41035D01*
X60535Y-41189D01*
X60500Y-41273D01*
X60465Y-41189D01*
X60311Y-41035D01*
X60109Y-40951D01*
X59891Y-40951D01*
X59689Y-41035D01*
X59535Y-41189D01*
X59497Y-41280D01*
X59472Y-41219D01*
X59378Y-41192D01*
X59308Y-41262D01*
X59308Y-41122D01*
X59281Y-41028D01*
X59079Y-40957D01*
X58866Y-40968D01*
X58719Y-41028D01*
X58692Y-41122D01*
X59000Y-41429D01*
X59308Y-41122D01*
X59308Y-41262D01*
X59071Y-41500D01*
X59378Y-41808D01*
X59472Y-41781D01*
X59495Y-41715D01*
X59535Y-41811D01*
X59689Y-41965D01*
X59759Y-41994D01*
X59697Y-42057D01*
X59621Y-42241D01*
X59621Y-42439D01*
X59697Y-42622D01*
X59837Y-42763D01*
X60021Y-42839D01*
X60219Y-42839D01*
X60402Y-42763D01*
X60429Y-42735D01*
X60437Y-42743D01*
X60621Y-42819D01*
X60819Y-42819D01*
X61002Y-42743D01*
X61143Y-42603D01*
X61219Y-42419D01*
X61219Y-42221D01*
X61143Y-42038D01*
X61140Y-42035D01*
X61311Y-41965D01*
X61465Y-41811D01*
X61500Y-41726D01*
X61535Y-41811D01*
X61689Y-41965D01*
X61891Y-42049D01*
X62109Y-42049D01*
X62311Y-41965D01*
X62465Y-41811D01*
X62549Y-41609D01*
X62549Y-48981D01*
X62521Y-48981D01*
X62338Y-49057D01*
X62259Y-49135D01*
X62259Y-47059D01*
X62259Y-46861D01*
X62183Y-46678D01*
X62043Y-46537D01*
X61959Y-46502D01*
X61959Y-46361D01*
X61883Y-46178D01*
X61864Y-46159D01*
X61939Y-45979D01*
X61939Y-45781D01*
X61863Y-45598D01*
X61723Y-45457D01*
X61539Y-45381D01*
X61341Y-45381D01*
X61299Y-45398D01*
X61299Y-44599D01*
X61299Y-44401D01*
X61223Y-44218D01*
X61083Y-44077D01*
X60899Y-44001D01*
X60701Y-44001D01*
X60518Y-44077D01*
X60490Y-44104D01*
X60483Y-44097D01*
X60299Y-44021D01*
X60101Y-44021D01*
X59918Y-44097D01*
X59777Y-44237D01*
X59759Y-44280D01*
X59759Y-43739D01*
X59759Y-43541D01*
X59683Y-43358D01*
X59543Y-43217D01*
X59359Y-43141D01*
X59359Y-42981D01*
X59308Y-42858D01*
X59308Y-41878D01*
X59000Y-41571D01*
X58929Y-41641D01*
X58929Y-41500D01*
X58622Y-41192D01*
X58549Y-41212D01*
X58549Y-41151D01*
X58511Y-41059D01*
X58441Y-40989D01*
X58350Y-40951D01*
X58251Y-40951D01*
X57651Y-40951D01*
X57559Y-40989D01*
X57489Y-41059D01*
X57451Y-41150D01*
X57451Y-41249D01*
X57451Y-41849D01*
X57489Y-41941D01*
X57559Y-42011D01*
X57650Y-42049D01*
X57749Y-42049D01*
X58349Y-42049D01*
X58441Y-42011D01*
X58511Y-41941D01*
X58549Y-41850D01*
X58549Y-41787D01*
X58622Y-41808D01*
X58929Y-41500D01*
X58929Y-41641D01*
X58692Y-41878D01*
X58719Y-41972D01*
X58921Y-42043D01*
X59134Y-42032D01*
X59281Y-41972D01*
X59308Y-41878D01*
X59308Y-42858D01*
X59283Y-42798D01*
X59143Y-42657D01*
X58959Y-42581D01*
X58761Y-42581D01*
X58578Y-42657D01*
X58437Y-42797D01*
X58361Y-42981D01*
X58361Y-43179D01*
X58437Y-43362D01*
X58577Y-43503D01*
X58761Y-43579D01*
X58761Y-43739D01*
X58837Y-43922D01*
X58977Y-44063D01*
X59161Y-44139D01*
X59359Y-44139D01*
X59542Y-44063D01*
X59683Y-43923D01*
X59759Y-43739D01*
X59759Y-44280D01*
X59701Y-44421D01*
X59701Y-44619D01*
X59777Y-44802D01*
X59917Y-44943D01*
X60101Y-45019D01*
X60299Y-45019D01*
X60482Y-44943D01*
X60509Y-44915D01*
X60517Y-44923D01*
X60701Y-44999D01*
X60899Y-44999D01*
X61082Y-44923D01*
X61223Y-44783D01*
X61299Y-44599D01*
X61299Y-45398D01*
X61158Y-45457D01*
X61139Y-45475D01*
X60959Y-45401D01*
X60761Y-45401D01*
X60578Y-45477D01*
X60570Y-45484D01*
X60543Y-45457D01*
X60359Y-45381D01*
X60161Y-45381D01*
X59978Y-45457D01*
X59837Y-45597D01*
X59761Y-45781D01*
X59761Y-45979D01*
X59837Y-46162D01*
X59977Y-46303D01*
X60161Y-46379D01*
X60359Y-46379D01*
X60542Y-46303D01*
X60549Y-46295D01*
X60577Y-46323D01*
X60761Y-46399D01*
X60959Y-46399D01*
X60961Y-46398D01*
X60961Y-46559D01*
X61037Y-46742D01*
X61177Y-46883D01*
X61261Y-46917D01*
X61261Y-47059D01*
X61337Y-47242D01*
X61477Y-47383D01*
X61661Y-47459D01*
X61859Y-47459D01*
X62042Y-47383D01*
X62183Y-47243D01*
X62259Y-47059D01*
X62259Y-49135D01*
X62199Y-49195D01*
X62199Y-48399D01*
X62199Y-48201D01*
X62123Y-48018D01*
X61983Y-47877D01*
X61799Y-47801D01*
X61601Y-47801D01*
X61418Y-47877D01*
X61277Y-48017D01*
X61201Y-48201D01*
X61201Y-48399D01*
X61277Y-48582D01*
X61417Y-48723D01*
X61601Y-48799D01*
X61799Y-48799D01*
X61982Y-48723D01*
X62123Y-48583D01*
X62199Y-48399D01*
X62199Y-49195D01*
X62197Y-49197D01*
X62121Y-49381D01*
X62121Y-49579D01*
X62197Y-49762D01*
X62337Y-49903D01*
X62521Y-49979D01*
X62541Y-49979D01*
X62617Y-50162D01*
X62757Y-50303D01*
X62941Y-50379D01*
X63139Y-50379D01*
X63322Y-50303D01*
X63463Y-50163D01*
X63539Y-49979D01*
X63539Y-56450D01*
X63019Y-56450D01*
X63019Y-54079D01*
X63019Y-53881D01*
X62943Y-53698D01*
X62803Y-53557D01*
X62619Y-53481D01*
X62421Y-53481D01*
X62238Y-53557D01*
X62097Y-53697D01*
X62021Y-53881D01*
X62021Y-54079D01*
X62048Y-54146D01*
X61939Y-54255D01*
X61939Y-52619D01*
X61939Y-52421D01*
X61863Y-52238D01*
X61723Y-52097D01*
X61539Y-52021D01*
X61341Y-52021D01*
X61158Y-52097D01*
X61017Y-52237D01*
X60941Y-52421D01*
X60941Y-52619D01*
X60980Y-52714D01*
X60877Y-52817D01*
X60801Y-53001D01*
X60801Y-53089D01*
X60639Y-53156D01*
X60639Y-48819D01*
X60639Y-48621D01*
X60563Y-48438D01*
X60423Y-48297D01*
X60239Y-48221D01*
X60041Y-48221D01*
X59858Y-48297D01*
X59717Y-48436D01*
X59697Y-48428D01*
X59703Y-48423D01*
X59779Y-48239D01*
X59779Y-48041D01*
X59703Y-47858D01*
X59563Y-47717D01*
X59379Y-47641D01*
X59181Y-47641D01*
X59083Y-47681D01*
X59159Y-47499D01*
X59159Y-47301D01*
X59083Y-47118D01*
X59053Y-47088D01*
X59162Y-47043D01*
X59303Y-46903D01*
X59379Y-46719D01*
X59379Y-46521D01*
X59303Y-46338D01*
X59163Y-46197D01*
X58979Y-46121D01*
X58781Y-46121D01*
X58598Y-46197D01*
X58457Y-46337D01*
X58381Y-46521D01*
X58381Y-46719D01*
X58457Y-46902D01*
X58486Y-46931D01*
X58378Y-46977D01*
X58237Y-47117D01*
X58161Y-47301D01*
X58161Y-47499D01*
X58237Y-47682D01*
X58284Y-47729D01*
X58217Y-47797D01*
X58141Y-47981D01*
X58141Y-48179D01*
X58217Y-48362D01*
X58357Y-48503D01*
X58541Y-48579D01*
X58739Y-48579D01*
X58922Y-48503D01*
X58929Y-48495D01*
X58997Y-48563D01*
X59162Y-48631D01*
X59157Y-48637D01*
X59081Y-48821D01*
X59081Y-49019D01*
X59157Y-49202D01*
X59297Y-49343D01*
X59481Y-49419D01*
X59679Y-49419D01*
X59862Y-49343D01*
X60002Y-49203D01*
X60003Y-49203D01*
X60041Y-49219D01*
X60239Y-49219D01*
X60422Y-49143D01*
X60563Y-49003D01*
X60639Y-48819D01*
X60639Y-53156D01*
X60638Y-53157D01*
X60497Y-53297D01*
X60421Y-53481D01*
X60421Y-53679D01*
X60497Y-53862D01*
X60637Y-54003D01*
X60821Y-54079D01*
X61019Y-54079D01*
X61202Y-54003D01*
X61343Y-53863D01*
X61419Y-53679D01*
X61419Y-53590D01*
X61582Y-53523D01*
X61723Y-53383D01*
X61799Y-53199D01*
X61799Y-53001D01*
X61759Y-52905D01*
X61863Y-52803D01*
X61939Y-52619D01*
X61939Y-54255D01*
X61917Y-54277D01*
X61841Y-54461D01*
X61841Y-54465D01*
X61711Y-54335D01*
X61509Y-54251D01*
X61291Y-54251D01*
X61089Y-54335D01*
X60935Y-54489D01*
X60900Y-54573D01*
X60865Y-54489D01*
X60711Y-54335D01*
X60509Y-54251D01*
X60291Y-54251D01*
X60089Y-54335D01*
X59999Y-54425D01*
X59999Y-50899D01*
X59999Y-50701D01*
X59923Y-50518D01*
X59783Y-50377D01*
X59659Y-50325D01*
X59659Y-50161D01*
X59583Y-49978D01*
X59443Y-49837D01*
X59259Y-49761D01*
X59061Y-49761D01*
X58878Y-49837D01*
X58737Y-49977D01*
X58661Y-50161D01*
X58661Y-50359D01*
X58737Y-50542D01*
X58877Y-50683D01*
X59001Y-50734D01*
X59001Y-50899D01*
X59077Y-51082D01*
X59217Y-51223D01*
X59401Y-51299D01*
X59599Y-51299D01*
X59782Y-51223D01*
X59923Y-51083D01*
X59999Y-50899D01*
X59999Y-54425D01*
X59939Y-54485D01*
X59939Y-53019D01*
X59939Y-52821D01*
X59863Y-52638D01*
X59723Y-52497D01*
X59659Y-52470D01*
X59659Y-52281D01*
X59583Y-52098D01*
X59443Y-51957D01*
X59259Y-51881D01*
X59061Y-51881D01*
X58878Y-51957D01*
X58737Y-52097D01*
X58661Y-52281D01*
X58661Y-52479D01*
X58737Y-52662D01*
X58877Y-52803D01*
X58941Y-52829D01*
X58941Y-53019D01*
X59017Y-53202D01*
X59157Y-53343D01*
X59341Y-53419D01*
X59539Y-53419D01*
X59722Y-53343D01*
X59863Y-53203D01*
X59939Y-53019D01*
X59939Y-54485D01*
X59935Y-54489D01*
X59900Y-54573D01*
X59865Y-54489D01*
X59711Y-54335D01*
X59509Y-54251D01*
X59379Y-54251D01*
X59379Y-54241D01*
X59303Y-54058D01*
X59163Y-53917D01*
X58979Y-53841D01*
X58899Y-53841D01*
X58899Y-53379D01*
X58899Y-53181D01*
X58823Y-52998D01*
X58683Y-52857D01*
X58499Y-52781D01*
X58301Y-52781D01*
X58118Y-52857D01*
X57977Y-52997D01*
X57901Y-53181D01*
X57901Y-53249D01*
X57863Y-53158D01*
X57723Y-53017D01*
X57550Y-52945D01*
X57550Y-45050D01*
X57550Y-42950D01*
X54450Y-42950D01*
X54450Y-45050D01*
X57550Y-45050D01*
X57550Y-52945D01*
X57539Y-52941D01*
X57341Y-52941D01*
X57339Y-52941D01*
X57339Y-46219D01*
X57339Y-46021D01*
X57263Y-45838D01*
X57123Y-45697D01*
X56939Y-45621D01*
X56741Y-45621D01*
X56558Y-45697D01*
X56417Y-45837D01*
X56341Y-46021D01*
X56341Y-46219D01*
X56417Y-46402D01*
X56557Y-46543D01*
X56741Y-46619D01*
X56939Y-46619D01*
X57122Y-46543D01*
X57263Y-46403D01*
X57339Y-46219D01*
X57339Y-52941D01*
X57158Y-53017D01*
X57017Y-53157D01*
X56941Y-53341D01*
X56941Y-53539D01*
X57017Y-53722D01*
X57157Y-53863D01*
X57341Y-53939D01*
X57539Y-53939D01*
X57550Y-53934D01*
X57722Y-53863D01*
X57863Y-53723D01*
X57939Y-53539D01*
X57939Y-53470D01*
X57977Y-53562D01*
X58117Y-53703D01*
X58301Y-53779D01*
X58499Y-53779D01*
X58682Y-53703D01*
X58823Y-53563D01*
X58899Y-53379D01*
X58899Y-53841D01*
X58781Y-53841D01*
X58598Y-53917D01*
X58457Y-54057D01*
X58381Y-54241D01*
X58381Y-54251D01*
X58291Y-54251D01*
X58089Y-54335D01*
X57935Y-54489D01*
X57900Y-54573D01*
X57865Y-54489D01*
X57711Y-54335D01*
X57550Y-54268D01*
X57509Y-54251D01*
X57291Y-54251D01*
X57089Y-54335D01*
X56935Y-54489D01*
X56900Y-54573D01*
X56899Y-54570D01*
X56899Y-53679D01*
X56899Y-53481D01*
X56823Y-53298D01*
X56683Y-53157D01*
X56499Y-53081D01*
X56301Y-53081D01*
X56118Y-53157D01*
X55977Y-53297D01*
X55901Y-53481D01*
X55901Y-53679D01*
X55977Y-53862D01*
X56117Y-54003D01*
X56301Y-54079D01*
X56499Y-54079D01*
X56682Y-54003D01*
X56823Y-53863D01*
X56899Y-53679D01*
X56899Y-54570D01*
X56865Y-54489D01*
X56711Y-54335D01*
X56509Y-54251D01*
X56291Y-54251D01*
X56089Y-54335D01*
X55935Y-54489D01*
X55900Y-54573D01*
X55865Y-54489D01*
X55711Y-54335D01*
X55509Y-54251D01*
X55291Y-54251D01*
X55089Y-54335D01*
X54935Y-54489D01*
X54900Y-54573D01*
X54865Y-54489D01*
X54711Y-54335D01*
X54559Y-54271D01*
X54559Y-47899D01*
X54559Y-47701D01*
X54483Y-47518D01*
X54359Y-47393D01*
X54359Y-46499D01*
X54359Y-46301D01*
X54283Y-46118D01*
X54143Y-45977D01*
X53959Y-45901D01*
X53799Y-45901D01*
X53799Y-45299D01*
X53799Y-45101D01*
X53723Y-44918D01*
X53583Y-44777D01*
X53399Y-44701D01*
X53201Y-44701D01*
X53018Y-44777D01*
X52877Y-44917D01*
X52801Y-45101D01*
X52801Y-45299D01*
X52877Y-45482D01*
X53017Y-45623D01*
X53201Y-45699D01*
X53399Y-45699D01*
X53582Y-45623D01*
X53723Y-45483D01*
X53799Y-45299D01*
X53799Y-45901D01*
X53761Y-45901D01*
X53578Y-45977D01*
X53437Y-46117D01*
X53361Y-46301D01*
X53361Y-46499D01*
X53437Y-46682D01*
X53577Y-46823D01*
X53761Y-46899D01*
X53959Y-46899D01*
X54142Y-46823D01*
X54283Y-46683D01*
X54359Y-46499D01*
X54359Y-47393D01*
X54343Y-47377D01*
X54159Y-47301D01*
X53961Y-47301D01*
X53778Y-47377D01*
X53637Y-47517D01*
X53561Y-47701D01*
X53561Y-47899D01*
X53637Y-48082D01*
X53777Y-48223D01*
X53961Y-48299D01*
X54159Y-48299D01*
X54342Y-48223D01*
X54483Y-48083D01*
X54559Y-47899D01*
X54559Y-54271D01*
X54509Y-54251D01*
X54291Y-54251D01*
X54089Y-54335D01*
X53935Y-54489D01*
X53900Y-54573D01*
X53865Y-54489D01*
X53711Y-54335D01*
X53509Y-54251D01*
X53291Y-54251D01*
X53089Y-54335D01*
X53019Y-54405D01*
X53019Y-46839D01*
X53019Y-46641D01*
X52943Y-46458D01*
X52803Y-46317D01*
X52619Y-46241D01*
X52421Y-46241D01*
X52238Y-46317D01*
X52097Y-46457D01*
X52021Y-46641D01*
X52021Y-46839D01*
X52097Y-47022D01*
X52237Y-47163D01*
X52421Y-47239D01*
X52619Y-47239D01*
X52802Y-47163D01*
X52943Y-47023D01*
X53019Y-46839D01*
X53019Y-54405D01*
X52935Y-54489D01*
X52900Y-54573D01*
X52865Y-54489D01*
X52711Y-54335D01*
X52509Y-54251D01*
X52414Y-54251D01*
X52423Y-54243D01*
X52499Y-54059D01*
X52499Y-53861D01*
X52423Y-53678D01*
X52283Y-53537D01*
X52159Y-53485D01*
X52159Y-52579D01*
X52159Y-52381D01*
X52083Y-52198D01*
X51943Y-52057D01*
X51759Y-51981D01*
X51699Y-51981D01*
X51699Y-47299D01*
X51699Y-47101D01*
X51623Y-46918D01*
X51483Y-46777D01*
X51299Y-46701D01*
X51239Y-46701D01*
X51239Y-46399D01*
X51239Y-46201D01*
X51163Y-46018D01*
X51023Y-45877D01*
X50839Y-45801D01*
X50799Y-45801D01*
X50799Y-45761D01*
X50739Y-45616D01*
X50739Y-44099D01*
X50739Y-43901D01*
X50663Y-43718D01*
X50523Y-43577D01*
X50339Y-43501D01*
X50141Y-43501D01*
X49958Y-43577D01*
X49817Y-43717D01*
X49741Y-43901D01*
X49741Y-44099D01*
X49817Y-44282D01*
X49957Y-44423D01*
X50141Y-44499D01*
X50339Y-44499D01*
X50522Y-44423D01*
X50663Y-44283D01*
X50739Y-44099D01*
X50739Y-45616D01*
X50723Y-45578D01*
X50583Y-45437D01*
X50399Y-45361D01*
X50201Y-45361D01*
X50018Y-45437D01*
X49999Y-45455D01*
X49999Y-45299D01*
X49999Y-45101D01*
X49923Y-44918D01*
X49783Y-44777D01*
X49599Y-44701D01*
X49401Y-44701D01*
X49218Y-44777D01*
X49077Y-44917D01*
X49049Y-44984D01*
X49049Y-44891D01*
X48965Y-44689D01*
X48811Y-44535D01*
X48726Y-44500D01*
X48811Y-44465D01*
X48965Y-44311D01*
X49049Y-44109D01*
X49049Y-43891D01*
X49043Y-43876D01*
X49043Y-43079D01*
X49032Y-42866D01*
X48972Y-42719D01*
X48878Y-42692D01*
X48571Y-43000D01*
X48878Y-43308D01*
X48972Y-43281D01*
X49043Y-43079D01*
X49043Y-43876D01*
X48965Y-43689D01*
X48811Y-43535D01*
X48719Y-43497D01*
X48781Y-43472D01*
X48808Y-43378D01*
X48500Y-43071D01*
X48429Y-43141D01*
X48429Y-43000D01*
X48122Y-42692D01*
X48028Y-42719D01*
X47957Y-42921D01*
X47968Y-43134D01*
X48028Y-43281D01*
X48122Y-43308D01*
X48429Y-43000D01*
X48429Y-43141D01*
X48192Y-43378D01*
X48219Y-43472D01*
X48284Y-43495D01*
X48189Y-43535D01*
X48035Y-43689D01*
X47951Y-43891D01*
X47951Y-44109D01*
X48035Y-44311D01*
X48189Y-44465D01*
X48273Y-44500D01*
X48189Y-44535D01*
X48035Y-44689D01*
X47951Y-44891D01*
X47951Y-45109D01*
X48035Y-45311D01*
X48189Y-45465D01*
X48273Y-45500D01*
X48189Y-45535D01*
X48035Y-45689D01*
X47951Y-45891D01*
X47951Y-46109D01*
X48035Y-46311D01*
X48189Y-46465D01*
X48391Y-46549D01*
X48609Y-46549D01*
X48811Y-46465D01*
X48965Y-46311D01*
X49049Y-46109D01*
X49049Y-45891D01*
X48965Y-45689D01*
X48811Y-45535D01*
X48726Y-45500D01*
X48811Y-45465D01*
X48965Y-45311D01*
X49001Y-45224D01*
X49001Y-45299D01*
X49077Y-45482D01*
X49217Y-45623D01*
X49401Y-45699D01*
X49599Y-45699D01*
X49782Y-45623D01*
X49923Y-45483D01*
X49999Y-45299D01*
X49999Y-45455D01*
X49877Y-45577D01*
X49801Y-45761D01*
X49801Y-45959D01*
X49877Y-46142D01*
X50017Y-46283D01*
X50201Y-46359D01*
X50241Y-46359D01*
X50241Y-46399D01*
X50317Y-46582D01*
X50457Y-46723D01*
X50641Y-46799D01*
X50839Y-46799D01*
X51022Y-46723D01*
X51163Y-46583D01*
X51239Y-46399D01*
X51239Y-46701D01*
X51101Y-46701D01*
X50918Y-46777D01*
X50777Y-46917D01*
X50701Y-47101D01*
X50701Y-47299D01*
X50777Y-47482D01*
X50917Y-47623D01*
X51101Y-47699D01*
X51299Y-47699D01*
X51482Y-47623D01*
X51623Y-47483D01*
X51699Y-47299D01*
X51699Y-51981D01*
X51561Y-51981D01*
X51378Y-52057D01*
X51299Y-52135D01*
X51299Y-49179D01*
X51299Y-48981D01*
X51223Y-48798D01*
X51083Y-48657D01*
X50899Y-48581D01*
X50765Y-48581D01*
X50723Y-48478D01*
X50583Y-48337D01*
X50399Y-48261D01*
X50201Y-48261D01*
X50018Y-48337D01*
X49877Y-48477D01*
X49819Y-48617D01*
X49819Y-48479D01*
X49819Y-48281D01*
X49743Y-48098D01*
X49603Y-47957D01*
X49419Y-47881D01*
X49221Y-47881D01*
X49038Y-47957D01*
X48949Y-48045D01*
X48949Y-47451D01*
X48911Y-47359D01*
X48841Y-47289D01*
X48750Y-47251D01*
X48651Y-47251D01*
X48051Y-47251D01*
X47959Y-47289D01*
X47889Y-47359D01*
X47851Y-47450D01*
X47851Y-47549D01*
X47851Y-48149D01*
X47889Y-48241D01*
X47959Y-48311D01*
X48050Y-48349D01*
X48075Y-48349D01*
X47935Y-48489D01*
X47851Y-48691D01*
X47851Y-48909D01*
X47935Y-49111D01*
X48089Y-49265D01*
X48180Y-49302D01*
X48119Y-49328D01*
X48092Y-49422D01*
X48400Y-49729D01*
X48708Y-49422D01*
X48681Y-49328D01*
X48615Y-49304D01*
X48711Y-49265D01*
X48865Y-49111D01*
X48949Y-48909D01*
X48949Y-48714D01*
X49037Y-48803D01*
X49221Y-48879D01*
X49419Y-48879D01*
X49602Y-48803D01*
X49743Y-48663D01*
X49819Y-48479D01*
X49819Y-48617D01*
X49801Y-48661D01*
X49801Y-48859D01*
X49877Y-49042D01*
X50017Y-49183D01*
X50201Y-49259D01*
X50334Y-49259D01*
X50377Y-49362D01*
X50517Y-49503D01*
X50701Y-49579D01*
X50899Y-49579D01*
X51082Y-49503D01*
X51223Y-49363D01*
X51299Y-49179D01*
X51299Y-52135D01*
X51237Y-52197D01*
X51161Y-52381D01*
X51161Y-52411D01*
X51039Y-52361D01*
X50841Y-52361D01*
X50799Y-52378D01*
X50799Y-51899D01*
X50799Y-51701D01*
X50723Y-51518D01*
X50583Y-51377D01*
X50399Y-51301D01*
X50201Y-51301D01*
X50018Y-51377D01*
X49877Y-51517D01*
X49801Y-51701D01*
X49801Y-51899D01*
X49877Y-52082D01*
X50017Y-52223D01*
X50201Y-52299D01*
X50399Y-52299D01*
X50582Y-52223D01*
X50723Y-52083D01*
X50799Y-51899D01*
X50799Y-52378D01*
X50658Y-52437D01*
X50517Y-52577D01*
X50441Y-52761D01*
X50441Y-52959D01*
X50517Y-53142D01*
X50657Y-53283D01*
X50841Y-53359D01*
X51039Y-53359D01*
X51222Y-53283D01*
X51363Y-53143D01*
X51439Y-52959D01*
X51439Y-52928D01*
X51561Y-52979D01*
X51759Y-52979D01*
X51942Y-52903D01*
X52083Y-52763D01*
X52159Y-52579D01*
X52159Y-53485D01*
X52099Y-53461D01*
X51901Y-53461D01*
X51718Y-53537D01*
X51620Y-53634D01*
X51603Y-53617D01*
X51419Y-53541D01*
X51221Y-53541D01*
X51038Y-53617D01*
X50897Y-53757D01*
X50821Y-53941D01*
X50821Y-54139D01*
X50897Y-54322D01*
X50999Y-54424D01*
X50935Y-54489D01*
X50900Y-54573D01*
X50865Y-54489D01*
X50711Y-54335D01*
X50509Y-54251D01*
X50291Y-54251D01*
X50089Y-54335D01*
X49935Y-54489D01*
X49897Y-54580D01*
X49872Y-54519D01*
X49778Y-54492D01*
X49708Y-54562D01*
X49708Y-54422D01*
X49681Y-54328D01*
X49479Y-54257D01*
X49266Y-54268D01*
X49119Y-54328D01*
X49092Y-54422D01*
X49400Y-54729D01*
X49708Y-54422D01*
X49708Y-54562D01*
X49471Y-54800D01*
X49778Y-55108D01*
X49872Y-55081D01*
X49895Y-55015D01*
X49935Y-55111D01*
X50089Y-55265D01*
X50173Y-55300D01*
X50089Y-55335D01*
X49935Y-55489D01*
X49900Y-55573D01*
X49865Y-55489D01*
X49711Y-55335D01*
X49619Y-55297D01*
X49681Y-55272D01*
X49708Y-55178D01*
X49400Y-54871D01*
X49092Y-55178D01*
X49119Y-55272D01*
X49184Y-55295D01*
X49089Y-55335D01*
X48935Y-55489D01*
X48900Y-55573D01*
X48865Y-55489D01*
X48711Y-55335D01*
X48626Y-55300D01*
X48711Y-55265D01*
X48865Y-55111D01*
X48902Y-55019D01*
X48928Y-55081D01*
X49022Y-55108D01*
X49329Y-54800D01*
X49022Y-54492D01*
X48949Y-54512D01*
X48949Y-52909D01*
X48949Y-52691D01*
X48865Y-52489D01*
X48711Y-52335D01*
X48626Y-52300D01*
X48711Y-52265D01*
X48865Y-52111D01*
X48949Y-51909D01*
X48949Y-51691D01*
X48865Y-51489D01*
X48711Y-51335D01*
X48626Y-51300D01*
X48711Y-51265D01*
X48865Y-51111D01*
X48949Y-50909D01*
X48949Y-50691D01*
X48943Y-50676D01*
X48943Y-49879D01*
X48932Y-49666D01*
X48872Y-49519D01*
X48778Y-49492D01*
X48471Y-49800D01*
X48778Y-50108D01*
X48872Y-50081D01*
X48943Y-49879D01*
X48943Y-50676D01*
X48865Y-50489D01*
X48711Y-50335D01*
X48619Y-50297D01*
X48681Y-50272D01*
X48708Y-50178D01*
X48400Y-49871D01*
X48329Y-49941D01*
X48329Y-49800D01*
X48022Y-49492D01*
X47928Y-49519D01*
X47857Y-49721D01*
X47868Y-49934D01*
X47928Y-50081D01*
X48022Y-50108D01*
X48329Y-49800D01*
X48329Y-49941D01*
X48092Y-50178D01*
X48119Y-50272D01*
X48184Y-50295D01*
X48089Y-50335D01*
X47935Y-50489D01*
X47851Y-50691D01*
X47851Y-50909D01*
X47935Y-51111D01*
X48089Y-51265D01*
X48173Y-51300D01*
X48089Y-51335D01*
X47935Y-51489D01*
X47851Y-51691D01*
X47851Y-51909D01*
X47935Y-52111D01*
X48089Y-52265D01*
X48173Y-52300D01*
X48089Y-52335D01*
X47935Y-52489D01*
X47851Y-52691D01*
X47851Y-52909D01*
X47935Y-53111D01*
X48089Y-53265D01*
X48291Y-53349D01*
X48509Y-53349D01*
X48711Y-53265D01*
X48865Y-53111D01*
X48949Y-52909D01*
X48949Y-54512D01*
X48928Y-54519D01*
X48904Y-54584D01*
X48865Y-54489D01*
X48711Y-54335D01*
X48509Y-54251D01*
X48291Y-54251D01*
X48089Y-54335D01*
X47935Y-54489D01*
X47851Y-54691D01*
X47851Y-54909D01*
X47935Y-55111D01*
X48089Y-55265D01*
X48173Y-55300D01*
X48089Y-55335D01*
X47935Y-55489D01*
X47851Y-55691D01*
X47851Y-55909D01*
X47935Y-56111D01*
X48089Y-56265D01*
X48291Y-56349D01*
X48509Y-56349D01*
X48711Y-56265D01*
X48865Y-56111D01*
X48900Y-56026D01*
X48935Y-56111D01*
X49089Y-56265D01*
X49291Y-56349D01*
X49509Y-56349D01*
X49711Y-56265D01*
X49865Y-56111D01*
X49900Y-56026D01*
X49935Y-56111D01*
X50089Y-56265D01*
X50291Y-56349D01*
X50509Y-56349D01*
X50711Y-56265D01*
X50865Y-56111D01*
X50900Y-56026D01*
X50935Y-56111D01*
X51089Y-56265D01*
X51291Y-56349D01*
X51509Y-56349D01*
X51711Y-56265D01*
X51865Y-56111D01*
X51900Y-56026D01*
X51935Y-56111D01*
X52089Y-56265D01*
X52291Y-56349D01*
X52509Y-56349D01*
X52711Y-56265D01*
X52865Y-56111D01*
X52900Y-56026D01*
X52935Y-56111D01*
X53089Y-56265D01*
X53291Y-56349D01*
X53509Y-56349D01*
X53711Y-56265D01*
X53865Y-56111D01*
X53900Y-56026D01*
X53935Y-56111D01*
X54089Y-56265D01*
X54291Y-56349D01*
X54509Y-56349D01*
X54711Y-56265D01*
X54865Y-56111D01*
X54900Y-56026D01*
X54935Y-56111D01*
X55089Y-56265D01*
X55291Y-56349D01*
X55509Y-56349D01*
X55711Y-56265D01*
X55865Y-56111D01*
X55900Y-56026D01*
X55935Y-56111D01*
X56089Y-56265D01*
X56291Y-56349D01*
X56509Y-56349D01*
X56711Y-56265D01*
X56865Y-56111D01*
X56900Y-56026D01*
X56935Y-56111D01*
X57089Y-56265D01*
X57291Y-56349D01*
X57509Y-56349D01*
X57550Y-56331D01*
X57711Y-56265D01*
X57865Y-56111D01*
X57900Y-56026D01*
X57935Y-56111D01*
X58089Y-56265D01*
X58291Y-56349D01*
X58509Y-56349D01*
X58711Y-56265D01*
X58865Y-56111D01*
X58900Y-56026D01*
X58935Y-56111D01*
X59089Y-56265D01*
X59291Y-56349D01*
X59509Y-56349D01*
X59711Y-56265D01*
X59865Y-56111D01*
X59900Y-56026D01*
X59935Y-56111D01*
X60089Y-56265D01*
X60291Y-56349D01*
X60509Y-56349D01*
X60711Y-56265D01*
X60851Y-56125D01*
X60851Y-56149D01*
X60889Y-56241D01*
X60959Y-56311D01*
X61050Y-56349D01*
X61149Y-56349D01*
X61749Y-56349D01*
X61841Y-56311D01*
X61911Y-56241D01*
X61949Y-56150D01*
X61949Y-56051D01*
X61949Y-55451D01*
X61911Y-55359D01*
X61841Y-55289D01*
X61750Y-55251D01*
X61725Y-55251D01*
X61865Y-55111D01*
X61949Y-54909D01*
X61949Y-54874D01*
X62057Y-54983D01*
X62241Y-55059D01*
X62439Y-55059D01*
X62622Y-54983D01*
X62763Y-54843D01*
X62839Y-54659D01*
X62839Y-54461D01*
X62811Y-54393D01*
X62943Y-54263D01*
X63019Y-54079D01*
X63019Y-56450D01*
X57550Y-56450D01*
X47550Y-56450D01*
X47550Y-40550D01*
X47998Y-40550D01*
X47989Y-40559D01*
X47951Y-40650D01*
X47951Y-40749D01*
X47951Y-41349D01*
X47989Y-41441D01*
X48059Y-41511D01*
X48150Y-41549D01*
X48175Y-41549D01*
X48035Y-41689D01*
X47951Y-41891D01*
X47951Y-42109D01*
X48035Y-42311D01*
X48189Y-42465D01*
X48280Y-42502D01*
X48219Y-42528D01*
X48192Y-42622D01*
X48500Y-42929D01*
X48808Y-42622D01*
X48781Y-42528D01*
X48715Y-42504D01*
X48811Y-42465D01*
X48965Y-42311D01*
X49049Y-42109D01*
X49049Y-41891D01*
X48965Y-41689D01*
X48825Y-41549D01*
X48849Y-41549D01*
X48941Y-41511D01*
X49011Y-41441D01*
X49049Y-41350D01*
X49049Y-41251D01*
X49049Y-40651D01*
X49011Y-40559D01*
X49002Y-40550D01*
X51274Y-40550D01*
X51135Y-40689D01*
X51051Y-40891D01*
X51051Y-41109D01*
X51135Y-41311D01*
X51289Y-41465D01*
X51373Y-41500D01*
X51289Y-41535D01*
X51135Y-41689D01*
X51051Y-41891D01*
X51051Y-42109D01*
X51135Y-42311D01*
X51289Y-42465D01*
X51491Y-42549D01*
X51709Y-42549D01*
X51911Y-42465D01*
X52065Y-42311D01*
X52100Y-42226D01*
X52135Y-42311D01*
X52289Y-42465D01*
X52491Y-42549D01*
X52709Y-42549D01*
X52911Y-42465D01*
X53065Y-42311D01*
X53100Y-42226D01*
X53135Y-42311D01*
X53289Y-42465D01*
X53491Y-42549D01*
X53709Y-42549D01*
X53911Y-42465D01*
X54065Y-42311D01*
X54100Y-42226D01*
X54135Y-42311D01*
X54289Y-42465D01*
X54491Y-42549D01*
X54709Y-42549D01*
X54911Y-42465D01*
X55065Y-42311D01*
X55149Y-42109D01*
X55149Y-41891D01*
X55065Y-41689D01*
X54925Y-41549D01*
X54949Y-41549D01*
X55041Y-41511D01*
X55111Y-41441D01*
X55149Y-41350D01*
X55149Y-41251D01*
X55149Y-40651D01*
X55111Y-40559D01*
X55102Y-40550D01*
X62411Y-40550D01*
X62341Y-40721D01*
X62341Y-40919D01*
X62417Y-41102D01*
X62557Y-41243D01*
X62741Y-41319D01*
X62939Y-41319D01*
X63122Y-41243D01*
X63263Y-41103D01*
X63339Y-40919D01*
X63339Y-40721D01*
X63267Y-40550D01*
X70950Y-40550D01*
X70950Y-45800D01*
X77450Y-45800D01*
X77450Y-48544D01*
X77333Y-48427D01*
X77199Y-48371D01*
X77199Y-47349D01*
X77199Y-47151D01*
X77123Y-46968D01*
X76983Y-46827D01*
X76799Y-46751D01*
X76601Y-46751D01*
X76418Y-46827D01*
X76277Y-46967D01*
X76201Y-47151D01*
X76201Y-47349D01*
X76277Y-47532D01*
X76417Y-47673D01*
X76601Y-47749D01*
X76799Y-47749D01*
X76982Y-47673D01*
X77123Y-47533D01*
X77199Y-47349D01*
X77199Y-48371D01*
X77149Y-48351D01*
X76951Y-48351D01*
X76768Y-48427D01*
X76649Y-48544D01*
X76533Y-48427D01*
X76349Y-48351D01*
X76151Y-48351D01*
X76149Y-48351D01*
X76149Y-46899D01*
X76149Y-46701D01*
X76073Y-46518D01*
X75933Y-46377D01*
X75749Y-46301D01*
X75551Y-46301D01*
X75368Y-46377D01*
X75227Y-46517D01*
X75151Y-46701D01*
X75151Y-46899D01*
X75227Y-47082D01*
X75367Y-47223D01*
X75551Y-47299D01*
X75749Y-47299D01*
X75932Y-47223D01*
X76073Y-47083D01*
X76149Y-46899D01*
X76149Y-48351D01*
X75968Y-48427D01*
X75827Y-48567D01*
X75799Y-48634D01*
X75799Y-47949D01*
X75799Y-47751D01*
X75723Y-47568D01*
X75583Y-47427D01*
X75399Y-47351D01*
X75201Y-47351D01*
X75018Y-47427D01*
X74877Y-47567D01*
X74801Y-47751D01*
X74801Y-47949D01*
X74877Y-48132D01*
X75017Y-48273D01*
X75201Y-48349D01*
X75399Y-48349D01*
X75582Y-48273D01*
X75723Y-48133D01*
X75799Y-47949D01*
X75799Y-48634D01*
X75751Y-48751D01*
X75751Y-48949D01*
X75827Y-49132D01*
X75967Y-49273D01*
X76151Y-49349D01*
X76349Y-49349D01*
X76532Y-49273D01*
X76650Y-49155D01*
X76767Y-49273D01*
X76951Y-49349D01*
X77149Y-49349D01*
X77332Y-49273D01*
X77450Y-49155D01*
X77450Y-56450D01*
X77450Y-56450D01*
G37*
G54D16*
X77450Y-56450D02*
X76459Y-56450D01*
X76459Y-54619D01*
X76459Y-54421D01*
X76383Y-54238D01*
X76243Y-54097D01*
X76059Y-54021D01*
X75861Y-54021D01*
X75678Y-54097D01*
X75537Y-54237D01*
X75461Y-54421D01*
X75461Y-54619D01*
X75537Y-54802D01*
X75677Y-54943D01*
X75861Y-55019D01*
X76059Y-55019D01*
X76242Y-54943D01*
X76383Y-54803D01*
X76459Y-54619D01*
X76459Y-56450D01*
X75249Y-56450D01*
X75249Y-48999D01*
X75249Y-48801D01*
X75173Y-48618D01*
X75033Y-48477D01*
X74849Y-48401D01*
X74651Y-48401D01*
X74468Y-48477D01*
X74327Y-48617D01*
X74251Y-48801D01*
X74251Y-48999D01*
X74327Y-49182D01*
X74467Y-49323D01*
X74651Y-49399D01*
X74849Y-49399D01*
X75032Y-49323D01*
X75173Y-49183D01*
X75249Y-48999D01*
X75249Y-56450D01*
X75199Y-56450D01*
X75199Y-51539D01*
X75199Y-51341D01*
X75123Y-51158D01*
X74983Y-51017D01*
X74949Y-51002D01*
X74949Y-50249D01*
X74949Y-50051D01*
X74873Y-49868D01*
X74733Y-49727D01*
X74549Y-49651D01*
X74351Y-49651D01*
X74168Y-49727D01*
X74027Y-49867D01*
X73951Y-50051D01*
X73951Y-50249D01*
X74027Y-50432D01*
X74167Y-50573D01*
X74351Y-50649D01*
X74549Y-50649D01*
X74732Y-50573D01*
X74873Y-50433D01*
X74949Y-50249D01*
X74949Y-51002D01*
X74799Y-50941D01*
X74601Y-50941D01*
X74418Y-51017D01*
X74277Y-51157D01*
X74201Y-51341D01*
X74201Y-51539D01*
X74277Y-51722D01*
X74417Y-51863D01*
X74601Y-51939D01*
X74799Y-51939D01*
X74982Y-51863D01*
X75123Y-51723D01*
X75199Y-51539D01*
X75199Y-56450D01*
X74579Y-56450D01*
X74579Y-54719D01*
X74579Y-54521D01*
X74503Y-54338D01*
X74363Y-54197D01*
X74179Y-54121D01*
X73981Y-54121D01*
X73798Y-54197D01*
X73657Y-54337D01*
X73581Y-54521D01*
X73581Y-54719D01*
X73657Y-54902D01*
X73797Y-55043D01*
X73981Y-55119D01*
X74179Y-55119D01*
X74362Y-55043D01*
X74503Y-54903D01*
X74579Y-54719D01*
X74579Y-56450D01*
X71999Y-56450D01*
X71999Y-54679D01*
X71999Y-54481D01*
X71923Y-54298D01*
X71783Y-54157D01*
X71599Y-54081D01*
X71401Y-54081D01*
X71218Y-54157D01*
X71077Y-54297D01*
X71001Y-54481D01*
X71001Y-54679D01*
X71077Y-54862D01*
X71217Y-55003D01*
X71401Y-55079D01*
X71599Y-55079D01*
X71782Y-55003D01*
X71923Y-54863D01*
X71999Y-54679D01*
X71999Y-56450D01*
X70799Y-56450D01*
X70799Y-53839D01*
X70799Y-53641D01*
X70723Y-53458D01*
X70583Y-53317D01*
X70549Y-53302D01*
X70549Y-48349D01*
X70549Y-48151D01*
X70473Y-47968D01*
X70333Y-47827D01*
X70149Y-47751D01*
X69951Y-47751D01*
X69768Y-47827D01*
X69719Y-47875D01*
X69719Y-45779D01*
X69719Y-45581D01*
X69643Y-45398D01*
X69503Y-45257D01*
X69319Y-45181D01*
X69121Y-45181D01*
X68938Y-45257D01*
X68797Y-45397D01*
X68739Y-45537D01*
X68739Y-44179D01*
X68739Y-43981D01*
X68663Y-43798D01*
X68523Y-43657D01*
X68342Y-43582D01*
X68483Y-43443D01*
X68559Y-43259D01*
X68559Y-43061D01*
X68483Y-42878D01*
X68343Y-42737D01*
X68159Y-42661D01*
X67961Y-42661D01*
X67778Y-42737D01*
X67637Y-42877D01*
X67561Y-43061D01*
X67561Y-43141D01*
X67499Y-43141D01*
X67499Y-43041D01*
X67423Y-42858D01*
X67283Y-42717D01*
X67099Y-42641D01*
X66901Y-42641D01*
X66718Y-42717D01*
X66619Y-42814D01*
X66503Y-42697D01*
X66319Y-42621D01*
X66121Y-42621D01*
X65938Y-42697D01*
X65797Y-42837D01*
X65780Y-42875D01*
X65663Y-42757D01*
X65479Y-42681D01*
X65281Y-42681D01*
X65219Y-42706D01*
X65219Y-42601D01*
X65143Y-42418D01*
X65003Y-42277D01*
X64819Y-42201D01*
X64621Y-42201D01*
X64438Y-42277D01*
X64297Y-42417D01*
X64221Y-42601D01*
X64221Y-42799D01*
X64297Y-42982D01*
X64437Y-43123D01*
X64621Y-43199D01*
X64819Y-43199D01*
X64881Y-43173D01*
X64881Y-43279D01*
X64957Y-43462D01*
X65097Y-43603D01*
X65281Y-43679D01*
X65479Y-43679D01*
X65662Y-43603D01*
X65760Y-43505D01*
X65721Y-43601D01*
X65721Y-43799D01*
X65797Y-43982D01*
X65937Y-44123D01*
X66121Y-44199D01*
X66319Y-44199D01*
X66502Y-44123D01*
X66643Y-43983D01*
X66719Y-43799D01*
X66719Y-43601D01*
X66693Y-43539D01*
X66717Y-43563D01*
X66901Y-43639D01*
X67061Y-43639D01*
X67061Y-43739D01*
X67137Y-43922D01*
X67277Y-44063D01*
X67461Y-44139D01*
X67659Y-44139D01*
X67741Y-44104D01*
X67741Y-44179D01*
X67817Y-44362D01*
X67957Y-44503D01*
X68141Y-44579D01*
X68339Y-44579D01*
X68522Y-44503D01*
X68663Y-44363D01*
X68739Y-44179D01*
X68739Y-45537D01*
X68721Y-45581D01*
X68721Y-45779D01*
X68744Y-45836D01*
X68598Y-45897D01*
X68457Y-46037D01*
X68381Y-46221D01*
X68381Y-46419D01*
X68457Y-46602D01*
X68597Y-46743D01*
X68781Y-46819D01*
X68979Y-46819D01*
X69162Y-46743D01*
X69303Y-46603D01*
X69379Y-46419D01*
X69379Y-46221D01*
X69355Y-46163D01*
X69502Y-46103D01*
X69643Y-45963D01*
X69719Y-45779D01*
X69719Y-47875D01*
X69627Y-47967D01*
X69551Y-48151D01*
X69551Y-48349D01*
X69627Y-48532D01*
X69767Y-48673D01*
X69951Y-48749D01*
X70149Y-48749D01*
X70332Y-48673D01*
X70473Y-48533D01*
X70549Y-48349D01*
X70549Y-53302D01*
X70399Y-53241D01*
X70201Y-53241D01*
X70018Y-53317D01*
X69877Y-53457D01*
X69837Y-53552D01*
X69703Y-53417D01*
X69519Y-53341D01*
X69359Y-53341D01*
X69359Y-52079D01*
X69359Y-51881D01*
X69283Y-51698D01*
X69143Y-51557D01*
X68959Y-51481D01*
X68761Y-51481D01*
X68578Y-51557D01*
X68437Y-51697D01*
X68361Y-51881D01*
X68361Y-52079D01*
X68437Y-52262D01*
X68577Y-52403D01*
X68761Y-52479D01*
X68959Y-52479D01*
X69142Y-52403D01*
X69283Y-52263D01*
X69359Y-52079D01*
X69359Y-53341D01*
X69321Y-53341D01*
X69138Y-53417D01*
X68997Y-53557D01*
X68921Y-53741D01*
X68921Y-53939D01*
X68997Y-54122D01*
X69137Y-54263D01*
X69321Y-54339D01*
X69519Y-54339D01*
X69702Y-54263D01*
X69843Y-54123D01*
X69882Y-54027D01*
X70017Y-54163D01*
X70201Y-54239D01*
X70399Y-54239D01*
X70582Y-54163D01*
X70723Y-54023D01*
X70799Y-53839D01*
X70799Y-56450D01*
X68739Y-56450D01*
X68739Y-53139D01*
X68739Y-52941D01*
X68663Y-52758D01*
X68523Y-52617D01*
X68339Y-52541D01*
X68141Y-52541D01*
X67958Y-52617D01*
X67919Y-52655D01*
X67919Y-46759D01*
X67919Y-46561D01*
X67843Y-46378D01*
X67703Y-46237D01*
X67519Y-46161D01*
X67321Y-46161D01*
X67138Y-46237D01*
X66997Y-46377D01*
X66921Y-46561D01*
X66921Y-46759D01*
X66997Y-46942D01*
X67137Y-47083D01*
X67321Y-47159D01*
X67519Y-47159D01*
X67702Y-47083D01*
X67843Y-46943D01*
X67919Y-46759D01*
X67919Y-52655D01*
X67817Y-52757D01*
X67741Y-52941D01*
X67741Y-53139D01*
X67817Y-53322D01*
X67957Y-53463D01*
X68141Y-53539D01*
X68339Y-53539D01*
X68522Y-53463D01*
X68663Y-53323D01*
X68739Y-53139D01*
X68739Y-56450D01*
X67499Y-56450D01*
X67499Y-47799D01*
X67499Y-47601D01*
X67423Y-47418D01*
X67283Y-47277D01*
X67099Y-47201D01*
X66901Y-47201D01*
X66718Y-47277D01*
X66577Y-47417D01*
X66501Y-47601D01*
X66501Y-47799D01*
X66577Y-47982D01*
X66717Y-48123D01*
X66901Y-48199D01*
X67099Y-48199D01*
X67282Y-48123D01*
X67423Y-47983D01*
X67499Y-47799D01*
X67499Y-56450D01*
X67279Y-56450D01*
X67279Y-53899D01*
X67279Y-53701D01*
X67203Y-53518D01*
X67179Y-53493D01*
X67179Y-50319D01*
X67179Y-50121D01*
X67103Y-49938D01*
X66963Y-49797D01*
X66779Y-49721D01*
X66581Y-49721D01*
X66398Y-49797D01*
X66257Y-49937D01*
X66181Y-50121D01*
X66181Y-50207D01*
X66019Y-50141D01*
X65821Y-50141D01*
X65638Y-50217D01*
X65619Y-50235D01*
X65619Y-48739D01*
X65619Y-48541D01*
X65579Y-48444D01*
X65579Y-45179D01*
X65579Y-44981D01*
X65503Y-44798D01*
X65363Y-44657D01*
X65179Y-44581D01*
X64981Y-44581D01*
X64798Y-44657D01*
X64657Y-44797D01*
X64581Y-44981D01*
X64581Y-45179D01*
X64657Y-45362D01*
X64797Y-45503D01*
X64981Y-45579D01*
X65179Y-45579D01*
X65362Y-45503D01*
X65503Y-45363D01*
X65579Y-45179D01*
X65579Y-48444D01*
X65543Y-48358D01*
X65403Y-48217D01*
X65219Y-48141D01*
X65021Y-48141D01*
X64838Y-48217D01*
X64697Y-48357D01*
X64621Y-48541D01*
X64621Y-48739D01*
X64697Y-48922D01*
X64837Y-49063D01*
X65021Y-49139D01*
X65219Y-49139D01*
X65402Y-49063D01*
X65543Y-48923D01*
X65619Y-48739D01*
X65619Y-50235D01*
X65497Y-50357D01*
X65421Y-50541D01*
X65421Y-50739D01*
X65497Y-50922D01*
X65637Y-51063D01*
X65821Y-51139D01*
X66019Y-51139D01*
X66202Y-51063D01*
X66343Y-50923D01*
X66419Y-50739D01*
X66419Y-50652D01*
X66581Y-50719D01*
X66779Y-50719D01*
X66962Y-50643D01*
X67103Y-50503D01*
X67179Y-50319D01*
X67179Y-53493D01*
X67063Y-53377D01*
X66879Y-53301D01*
X66681Y-53301D01*
X66498Y-53377D01*
X66372Y-53501D01*
X66363Y-53478D01*
X66223Y-53337D01*
X66039Y-53261D01*
X65841Y-53261D01*
X65658Y-53337D01*
X65517Y-53477D01*
X65441Y-53661D01*
X65441Y-53859D01*
X65517Y-54042D01*
X65657Y-54183D01*
X65841Y-54259D01*
X66039Y-54259D01*
X66222Y-54183D01*
X66347Y-54058D01*
X66357Y-54082D01*
X66497Y-54223D01*
X66681Y-54299D01*
X66879Y-54299D01*
X67062Y-54223D01*
X67203Y-54083D01*
X67279Y-53899D01*
X67279Y-56450D01*
X64159Y-56450D01*
X64159Y-42139D01*
X64159Y-41941D01*
X64083Y-41758D01*
X63943Y-41617D01*
X63759Y-41541D01*
X63561Y-41541D01*
X63378Y-41617D01*
X63237Y-41757D01*
X63161Y-41941D01*
X63161Y-42139D01*
X63237Y-42322D01*
X63377Y-42463D01*
X63561Y-42539D01*
X63759Y-42539D01*
X63942Y-42463D01*
X64083Y-42323D01*
X64159Y-42139D01*
X64159Y-56450D01*
X63919Y-56450D01*
X63919Y-48799D01*
X63919Y-48601D01*
X63843Y-48418D01*
X63703Y-48277D01*
X63519Y-48201D01*
X63321Y-48201D01*
X63138Y-48277D01*
X62997Y-48417D01*
X62921Y-48601D01*
X62921Y-48799D01*
X62997Y-48982D01*
X63137Y-49123D01*
X63321Y-49199D01*
X63519Y-49199D01*
X63702Y-49123D01*
X63843Y-48983D01*
X63919Y-48799D01*
X63919Y-56450D01*
X63539Y-56450D01*
X63539Y-49979D01*
X63539Y-49781D01*
X63463Y-49598D01*
X63323Y-49457D01*
X63139Y-49381D01*
X63119Y-49381D01*
X63043Y-49198D01*
X62903Y-49057D01*
X62719Y-48981D01*
X62549Y-48981D01*
X62549Y-41609D01*
X62549Y-41391D01*
X62465Y-41189D01*
X62311Y-41035D01*
X62109Y-40951D01*
X61891Y-40951D01*
X61689Y-41035D01*
X61535Y-41189D01*
X61500Y-41273D01*
X61465Y-41189D01*
X61311Y-41035D01*
X61109Y-40951D01*
X60891Y-40951D01*
X60689Y-41035D01*
X60535Y-41189D01*
X60500Y-41273D01*
X60465Y-41189D01*
X60311Y-41035D01*
X60109Y-40951D01*
X59891Y-40951D01*
X59689Y-41035D01*
X59535Y-41189D01*
X59497Y-41280D01*
X59472Y-41219D01*
X59378Y-41192D01*
X59308Y-41262D01*
X59308Y-41122D01*
X59281Y-41028D01*
X59079Y-40957D01*
X58866Y-40968D01*
X58719Y-41028D01*
X58692Y-41122D01*
X59000Y-41429D01*
X59308Y-41122D01*
X59308Y-41262D01*
X59071Y-41500D01*
X59378Y-41808D01*
X59472Y-41781D01*
X59495Y-41715D01*
X59535Y-41811D01*
X59689Y-41965D01*
X59759Y-41994D01*
X59697Y-42057D01*
X59621Y-42241D01*
X59621Y-42439D01*
X59697Y-42622D01*
X59837Y-42763D01*
X60021Y-42839D01*
X60219Y-42839D01*
X60402Y-42763D01*
X60429Y-42735D01*
X60437Y-42743D01*
X60621Y-42819D01*
X60819Y-42819D01*
X61002Y-42743D01*
X61143Y-42603D01*
X61219Y-42419D01*
X61219Y-42221D01*
X61143Y-42038D01*
X61140Y-42035D01*
X61311Y-41965D01*
X61465Y-41811D01*
X61500Y-41726D01*
X61535Y-41811D01*
X61689Y-41965D01*
X61891Y-42049D01*
X62109Y-42049D01*
X62311Y-41965D01*
X62465Y-41811D01*
X62549Y-41609D01*
X62549Y-48981D01*
X62521Y-48981D01*
X62338Y-49057D01*
X62259Y-49135D01*
X62259Y-47059D01*
X62259Y-46861D01*
X62183Y-46678D01*
X62043Y-46537D01*
X61959Y-46502D01*
X61959Y-46361D01*
X61883Y-46178D01*
X61864Y-46159D01*
X61939Y-45979D01*
X61939Y-45781D01*
X61863Y-45598D01*
X61723Y-45457D01*
X61539Y-45381D01*
X61341Y-45381D01*
X61299Y-45398D01*
X61299Y-44599D01*
X61299Y-44401D01*
X61223Y-44218D01*
X61083Y-44077D01*
X60899Y-44001D01*
X60701Y-44001D01*
X60518Y-44077D01*
X60490Y-44104D01*
X60483Y-44097D01*
X60299Y-44021D01*
X60101Y-44021D01*
X59918Y-44097D01*
X59777Y-44237D01*
X59759Y-44280D01*
X59759Y-43739D01*
X59759Y-43541D01*
X59683Y-43358D01*
X59543Y-43217D01*
X59359Y-43141D01*
X59359Y-42981D01*
X59308Y-42858D01*
X59308Y-41878D01*
X59000Y-41571D01*
X58929Y-41641D01*
X58929Y-41500D01*
X58622Y-41192D01*
X58549Y-41212D01*
X58549Y-41151D01*
X58511Y-41059D01*
X58441Y-40989D01*
X58350Y-40951D01*
X58251Y-40951D01*
X57651Y-40951D01*
X57559Y-40989D01*
X57489Y-41059D01*
X57451Y-41150D01*
X57451Y-41249D01*
X57451Y-41849D01*
X57489Y-41941D01*
X57559Y-42011D01*
X57650Y-42049D01*
X57749Y-42049D01*
X58349Y-42049D01*
X58441Y-42011D01*
X58511Y-41941D01*
X58549Y-41850D01*
X58549Y-41787D01*
X58622Y-41808D01*
X58929Y-41500D01*
X58929Y-41641D01*
X58692Y-41878D01*
X58719Y-41972D01*
X58921Y-42043D01*
X59134Y-42032D01*
X59281Y-41972D01*
X59308Y-41878D01*
X59308Y-42858D01*
X59283Y-42798D01*
X59143Y-42657D01*
X58959Y-42581D01*
X58761Y-42581D01*
X58578Y-42657D01*
X58437Y-42797D01*
X58361Y-42981D01*
X58361Y-43179D01*
X58437Y-43362D01*
X58577Y-43503D01*
X58761Y-43579D01*
X58761Y-43739D01*
X58837Y-43922D01*
X58977Y-44063D01*
X59161Y-44139D01*
X59359Y-44139D01*
X59542Y-44063D01*
X59683Y-43923D01*
X59759Y-43739D01*
X59759Y-44280D01*
X59701Y-44421D01*
X59701Y-44619D01*
X59777Y-44802D01*
X59917Y-44943D01*
X60101Y-45019D01*
X60299Y-45019D01*
X60482Y-44943D01*
X60509Y-44915D01*
X60517Y-44923D01*
X60701Y-44999D01*
X60899Y-44999D01*
X61082Y-44923D01*
X61223Y-44783D01*
X61299Y-44599D01*
X61299Y-45398D01*
X61158Y-45457D01*
X61139Y-45475D01*
X60959Y-45401D01*
X60761Y-45401D01*
X60578Y-45477D01*
X60570Y-45484D01*
X60543Y-45457D01*
X60359Y-45381D01*
X60161Y-45381D01*
X59978Y-45457D01*
X59837Y-45597D01*
X59761Y-45781D01*
X59761Y-45979D01*
X59837Y-46162D01*
X59977Y-46303D01*
X60161Y-46379D01*
X60359Y-46379D01*
X60542Y-46303D01*
X60549Y-46295D01*
X60577Y-46323D01*
X60761Y-46399D01*
X60959Y-46399D01*
X60961Y-46398D01*
X60961Y-46559D01*
X61037Y-46742D01*
X61177Y-46883D01*
X61261Y-46917D01*
X61261Y-47059D01*
X61337Y-47242D01*
X61477Y-47383D01*
X61661Y-47459D01*
X61859Y-47459D01*
X62042Y-47383D01*
X62183Y-47243D01*
X62259Y-47059D01*
X62259Y-49135D01*
X62199Y-49195D01*
X62199Y-48399D01*
X62199Y-48201D01*
X62123Y-48018D01*
X61983Y-47877D01*
X61799Y-47801D01*
X61601Y-47801D01*
X61418Y-47877D01*
X61277Y-48017D01*
X61201Y-48201D01*
X61201Y-48399D01*
X61277Y-48582D01*
X61417Y-48723D01*
X61601Y-48799D01*
X61799Y-48799D01*
X61982Y-48723D01*
X62123Y-48583D01*
X62199Y-48399D01*
X62199Y-49195D01*
X62197Y-49197D01*
X62121Y-49381D01*
X62121Y-49579D01*
X62197Y-49762D01*
X62337Y-49903D01*
X62521Y-49979D01*
X62541Y-49979D01*
X62617Y-50162D01*
X62757Y-50303D01*
X62941Y-50379D01*
X63139Y-50379D01*
X63322Y-50303D01*
X63463Y-50163D01*
X63539Y-49979D01*
X63539Y-56450D01*
X63019Y-56450D01*
X63019Y-54079D01*
X63019Y-53881D01*
X62943Y-53698D01*
X62803Y-53557D01*
X62619Y-53481D01*
X62421Y-53481D01*
X62238Y-53557D01*
X62097Y-53697D01*
X62021Y-53881D01*
X62021Y-54079D01*
X62048Y-54146D01*
X61939Y-54255D01*
X61939Y-52619D01*
X61939Y-52421D01*
X61863Y-52238D01*
X61723Y-52097D01*
X61539Y-52021D01*
X61341Y-52021D01*
X61158Y-52097D01*
X61017Y-52237D01*
X60941Y-52421D01*
X60941Y-52619D01*
X60980Y-52714D01*
X60877Y-52817D01*
X60801Y-53001D01*
X60801Y-53089D01*
X60639Y-53156D01*
X60639Y-48819D01*
X60639Y-48621D01*
X60563Y-48438D01*
X60423Y-48297D01*
X60239Y-48221D01*
X60041Y-48221D01*
X59858Y-48297D01*
X59717Y-48436D01*
X59697Y-48428D01*
X59703Y-48423D01*
X59779Y-48239D01*
X59779Y-48041D01*
X59703Y-47858D01*
X59563Y-47717D01*
X59379Y-47641D01*
X59181Y-47641D01*
X59083Y-47681D01*
X59159Y-47499D01*
X59159Y-47301D01*
X59083Y-47118D01*
X59053Y-47088D01*
X59162Y-47043D01*
X59303Y-46903D01*
X59379Y-46719D01*
X59379Y-46521D01*
X59303Y-46338D01*
X59163Y-46197D01*
X58979Y-46121D01*
X58781Y-46121D01*
X58598Y-46197D01*
X58457Y-46337D01*
X58381Y-46521D01*
X58381Y-46719D01*
X58457Y-46902D01*
X58486Y-46931D01*
X58378Y-46977D01*
X58237Y-47117D01*
X58161Y-47301D01*
X58161Y-47499D01*
X58237Y-47682D01*
X58284Y-47729D01*
X58217Y-47797D01*
X58141Y-47981D01*
X58141Y-48179D01*
X58217Y-48362D01*
X58357Y-48503D01*
X58541Y-48579D01*
X58739Y-48579D01*
X58922Y-48503D01*
X58929Y-48495D01*
X58997Y-48563D01*
X59162Y-48631D01*
X59157Y-48637D01*
X59081Y-48821D01*
X59081Y-49019D01*
X59157Y-49202D01*
X59297Y-49343D01*
X59481Y-49419D01*
X59679Y-49419D01*
X59862Y-49343D01*
X60002Y-49203D01*
X60003Y-49203D01*
X60041Y-49219D01*
X60239Y-49219D01*
X60422Y-49143D01*
X60563Y-49003D01*
X60639Y-48819D01*
X60639Y-53156D01*
X60638Y-53157D01*
X60497Y-53297D01*
X60421Y-53481D01*
X60421Y-53679D01*
X60497Y-53862D01*
X60637Y-54003D01*
X60821Y-54079D01*
X61019Y-54079D01*
X61202Y-54003D01*
X61343Y-53863D01*
X61419Y-53679D01*
X61419Y-53590D01*
X61582Y-53523D01*
X61723Y-53383D01*
X61799Y-53199D01*
X61799Y-53001D01*
X61759Y-52905D01*
X61863Y-52803D01*
X61939Y-52619D01*
X61939Y-54255D01*
X61917Y-54277D01*
X61841Y-54461D01*
X61841Y-54465D01*
X61711Y-54335D01*
X61509Y-54251D01*
X61291Y-54251D01*
X61089Y-54335D01*
X60935Y-54489D01*
X60900Y-54573D01*
X60865Y-54489D01*
X60711Y-54335D01*
X60509Y-54251D01*
X60291Y-54251D01*
X60089Y-54335D01*
X59999Y-54425D01*
X59999Y-50899D01*
X59999Y-50701D01*
X59923Y-50518D01*
X59783Y-50377D01*
X59659Y-50325D01*
X59659Y-50161D01*
X59583Y-49978D01*
X59443Y-49837D01*
X59259Y-49761D01*
X59061Y-49761D01*
X58878Y-49837D01*
X58737Y-49977D01*
X58661Y-50161D01*
X58661Y-50359D01*
X58737Y-50542D01*
X58877Y-50683D01*
X59001Y-50734D01*
X59001Y-50899D01*
X59077Y-51082D01*
X59217Y-51223D01*
X59401Y-51299D01*
X59599Y-51299D01*
X59782Y-51223D01*
X59923Y-51083D01*
X59999Y-50899D01*
X59999Y-54425D01*
X59939Y-54485D01*
X59939Y-53019D01*
X59939Y-52821D01*
X59863Y-52638D01*
X59723Y-52497D01*
X59659Y-52470D01*
X59659Y-52281D01*
X59583Y-52098D01*
X59443Y-51957D01*
X59259Y-51881D01*
X59061Y-51881D01*
X58878Y-51957D01*
X58737Y-52097D01*
X58661Y-52281D01*
X58661Y-52479D01*
X58737Y-52662D01*
X58877Y-52803D01*
X58941Y-52829D01*
X58941Y-53019D01*
X59017Y-53202D01*
X59157Y-53343D01*
X59341Y-53419D01*
X59539Y-53419D01*
X59722Y-53343D01*
X59863Y-53203D01*
X59939Y-53019D01*
X59939Y-54485D01*
X59935Y-54489D01*
X59900Y-54573D01*
X59865Y-54489D01*
X59711Y-54335D01*
X59509Y-54251D01*
X59379Y-54251D01*
X59379Y-54241D01*
X59303Y-54058D01*
X59163Y-53917D01*
X58979Y-53841D01*
X58899Y-53841D01*
X58899Y-53379D01*
X58899Y-53181D01*
X58823Y-52998D01*
X58683Y-52857D01*
X58499Y-52781D01*
X58301Y-52781D01*
X58118Y-52857D01*
X57977Y-52997D01*
X57901Y-53181D01*
X57901Y-53249D01*
X57863Y-53158D01*
X57723Y-53017D01*
X57550Y-52945D01*
X57550Y-45050D01*
X57550Y-42950D01*
X54450Y-42950D01*
X54450Y-45050D01*
X57550Y-45050D01*
X57550Y-52945D01*
X57539Y-52941D01*
X57341Y-52941D01*
X57339Y-52941D01*
X57339Y-46219D01*
X57339Y-46021D01*
X57263Y-45838D01*
X57123Y-45697D01*
X56939Y-45621D01*
X56741Y-45621D01*
X56558Y-45697D01*
X56417Y-45837D01*
X56341Y-46021D01*
X56341Y-46219D01*
X56417Y-46402D01*
X56557Y-46543D01*
X56741Y-46619D01*
X56939Y-46619D01*
X57122Y-46543D01*
X57263Y-46403D01*
X57339Y-46219D01*
X57339Y-52941D01*
X57158Y-53017D01*
X57017Y-53157D01*
X56941Y-53341D01*
X56941Y-53539D01*
X57017Y-53722D01*
X57157Y-53863D01*
X57341Y-53939D01*
X57539Y-53939D01*
X57550Y-53934D01*
X57722Y-53863D01*
X57863Y-53723D01*
X57939Y-53539D01*
X57939Y-53470D01*
X57977Y-53562D01*
X58117Y-53703D01*
X58301Y-53779D01*
X58499Y-53779D01*
X58682Y-53703D01*
X58823Y-53563D01*
X58899Y-53379D01*
X58899Y-53841D01*
X58781Y-53841D01*
X58598Y-53917D01*
X58457Y-54057D01*
X58381Y-54241D01*
X58381Y-54251D01*
X58291Y-54251D01*
X58089Y-54335D01*
X57935Y-54489D01*
X57900Y-54573D01*
X57865Y-54489D01*
X57711Y-54335D01*
X57550Y-54268D01*
X57509Y-54251D01*
X57291Y-54251D01*
X57089Y-54335D01*
X56935Y-54489D01*
X56900Y-54573D01*
X56899Y-54570D01*
X56899Y-53679D01*
X56899Y-53481D01*
X56823Y-53298D01*
X56683Y-53157D01*
X56499Y-53081D01*
X56301Y-53081D01*
X56118Y-53157D01*
X55977Y-53297D01*
X55901Y-53481D01*
X55901Y-53679D01*
X55977Y-53862D01*
X56117Y-54003D01*
X56301Y-54079D01*
X56499Y-54079D01*
X56682Y-54003D01*
X56823Y-53863D01*
X56899Y-53679D01*
X56899Y-54570D01*
X56865Y-54489D01*
X56711Y-54335D01*
X56509Y-54251D01*
X56291Y-54251D01*
X56089Y-54335D01*
X55935Y-54489D01*
X55900Y-54573D01*
X55865Y-54489D01*
X55711Y-54335D01*
X55509Y-54251D01*
X55291Y-54251D01*
X55089Y-54335D01*
X54935Y-54489D01*
X54900Y-54573D01*
X54865Y-54489D01*
X54711Y-54335D01*
X54559Y-54271D01*
X54559Y-47899D01*
X54559Y-47701D01*
X54483Y-47518D01*
X54359Y-47393D01*
X54359Y-46499D01*
X54359Y-46301D01*
X54283Y-46118D01*
X54143Y-45977D01*
X53959Y-45901D01*
X53799Y-45901D01*
X53799Y-45299D01*
X53799Y-45101D01*
X53723Y-44918D01*
X53583Y-44777D01*
X53399Y-44701D01*
X53201Y-44701D01*
X53018Y-44777D01*
X52877Y-44917D01*
X52801Y-45101D01*
X52801Y-45299D01*
X52877Y-45482D01*
X53017Y-45623D01*
X53201Y-45699D01*
X53399Y-45699D01*
X53582Y-45623D01*
X53723Y-45483D01*
X53799Y-45299D01*
X53799Y-45901D01*
X53761Y-45901D01*
X53578Y-45977D01*
X53437Y-46117D01*
X53361Y-46301D01*
X53361Y-46499D01*
X53437Y-46682D01*
X53577Y-46823D01*
X53761Y-46899D01*
X53959Y-46899D01*
X54142Y-46823D01*
X54283Y-46683D01*
X54359Y-46499D01*
X54359Y-47393D01*
X54343Y-47377D01*
X54159Y-47301D01*
X53961Y-47301D01*
X53778Y-47377D01*
X53637Y-47517D01*
X53561Y-47701D01*
X53561Y-47899D01*
X53637Y-48082D01*
X53777Y-48223D01*
X53961Y-48299D01*
X54159Y-48299D01*
X54342Y-48223D01*
X54483Y-48083D01*
X54559Y-47899D01*
X54559Y-54271D01*
X54509Y-54251D01*
X54291Y-54251D01*
X54089Y-54335D01*
X53935Y-54489D01*
X53900Y-54573D01*
X53865Y-54489D01*
X53711Y-54335D01*
X53509Y-54251D01*
X53291Y-54251D01*
X53089Y-54335D01*
X53019Y-54405D01*
X53019Y-46839D01*
X53019Y-46641D01*
X52943Y-46458D01*
X52803Y-46317D01*
X52619Y-46241D01*
X52421Y-46241D01*
X52238Y-46317D01*
X52097Y-46457D01*
X52021Y-46641D01*
X52021Y-46839D01*
X52097Y-47022D01*
X52237Y-47163D01*
X52421Y-47239D01*
X52619Y-47239D01*
X52802Y-47163D01*
X52943Y-47023D01*
X53019Y-46839D01*
X53019Y-54405D01*
X52935Y-54489D01*
X52900Y-54573D01*
X52865Y-54489D01*
X52711Y-54335D01*
X52509Y-54251D01*
X52414Y-54251D01*
X52423Y-54243D01*
X52499Y-54059D01*
X52499Y-53861D01*
X52423Y-53678D01*
X52283Y-53537D01*
X52159Y-53485D01*
X52159Y-52579D01*
X52159Y-52381D01*
X52083Y-52198D01*
X51943Y-52057D01*
X51759Y-51981D01*
X51699Y-51981D01*
X51699Y-47299D01*
X51699Y-47101D01*
X51623Y-46918D01*
X51483Y-46777D01*
X51299Y-46701D01*
X51239Y-46701D01*
X51239Y-46399D01*
X51239Y-46201D01*
X51163Y-46018D01*
X51023Y-45877D01*
X50839Y-45801D01*
X50799Y-45801D01*
X50799Y-45761D01*
X50739Y-45616D01*
X50739Y-44099D01*
X50739Y-43901D01*
X50663Y-43718D01*
X50523Y-43577D01*
X50339Y-43501D01*
X50141Y-43501D01*
X49958Y-43577D01*
X49817Y-43717D01*
X49741Y-43901D01*
X49741Y-44099D01*
X49817Y-44282D01*
X49957Y-44423D01*
X50141Y-44499D01*
X50339Y-44499D01*
X50522Y-44423D01*
X50663Y-44283D01*
X50739Y-44099D01*
X50739Y-45616D01*
X50723Y-45578D01*
X50583Y-45437D01*
X50399Y-45361D01*
X50201Y-45361D01*
X50018Y-45437D01*
X49999Y-45455D01*
X49999Y-45299D01*
X49999Y-45101D01*
X49923Y-44918D01*
X49783Y-44777D01*
X49599Y-44701D01*
X49401Y-44701D01*
X49218Y-44777D01*
X49077Y-44917D01*
X49049Y-44984D01*
X49049Y-44891D01*
X48965Y-44689D01*
X48811Y-44535D01*
X48726Y-44500D01*
X48811Y-44465D01*
X48965Y-44311D01*
X49049Y-44109D01*
X49049Y-43891D01*
X49043Y-43876D01*
X49043Y-43079D01*
X49032Y-42866D01*
X48972Y-42719D01*
X48878Y-42692D01*
X48571Y-43000D01*
X48878Y-43308D01*
X48972Y-43281D01*
X49043Y-43079D01*
X49043Y-43876D01*
X48965Y-43689D01*
X48811Y-43535D01*
X48719Y-43497D01*
X48781Y-43472D01*
X48808Y-43378D01*
X48500Y-43071D01*
X48429Y-43141D01*
X48429Y-43000D01*
X48122Y-42692D01*
X48028Y-42719D01*
X47957Y-42921D01*
X47968Y-43134D01*
X48028Y-43281D01*
X48122Y-43308D01*
X48429Y-43000D01*
X48429Y-43141D01*
X48192Y-43378D01*
X48219Y-43472D01*
X48284Y-43495D01*
X48189Y-43535D01*
X48035Y-43689D01*
X47951Y-43891D01*
X47951Y-44109D01*
X48035Y-44311D01*
X48189Y-44465D01*
X48273Y-44500D01*
X48189Y-44535D01*
X48035Y-44689D01*
X47951Y-44891D01*
X47951Y-45109D01*
X48035Y-45311D01*
X48189Y-45465D01*
X48273Y-45500D01*
X48189Y-45535D01*
X48035Y-45689D01*
X47951Y-45891D01*
X47951Y-46109D01*
X48035Y-46311D01*
X48189Y-46465D01*
X48391Y-46549D01*
X48609Y-46549D01*
X48811Y-46465D01*
X48965Y-46311D01*
X49049Y-46109D01*
X49049Y-45891D01*
X48965Y-45689D01*
X48811Y-45535D01*
X48726Y-45500D01*
X48811Y-45465D01*
X48965Y-45311D01*
X49001Y-45224D01*
X49001Y-45299D01*
X49077Y-45482D01*
X49217Y-45623D01*
X49401Y-45699D01*
X49599Y-45699D01*
X49782Y-45623D01*
X49923Y-45483D01*
X49999Y-45299D01*
X49999Y-45455D01*
X49877Y-45577D01*
X49801Y-45761D01*
X49801Y-45959D01*
X49877Y-46142D01*
X50017Y-46283D01*
X50201Y-46359D01*
X50241Y-46359D01*
X50241Y-46399D01*
X50317Y-46582D01*
X50457Y-46723D01*
X50641Y-46799D01*
X50839Y-46799D01*
X51022Y-46723D01*
X51163Y-46583D01*
X51239Y-46399D01*
X51239Y-46701D01*
X51101Y-46701D01*
X50918Y-46777D01*
X50777Y-46917D01*
X50701Y-47101D01*
X50701Y-47299D01*
X50777Y-47482D01*
X50917Y-47623D01*
X51101Y-47699D01*
X51299Y-47699D01*
X51482Y-47623D01*
X51623Y-47483D01*
X51699Y-47299D01*
X51699Y-51981D01*
X51561Y-51981D01*
X51378Y-52057D01*
X51299Y-52135D01*
X51299Y-49179D01*
X51299Y-48981D01*
X51223Y-48798D01*
X51083Y-48657D01*
X50899Y-48581D01*
X50765Y-48581D01*
X50723Y-48478D01*
X50583Y-48337D01*
X50399Y-48261D01*
X50201Y-48261D01*
X50018Y-48337D01*
X49877Y-48477D01*
X49819Y-48617D01*
X49819Y-48479D01*
X49819Y-48281D01*
X49743Y-48098D01*
X49603Y-47957D01*
X49419Y-47881D01*
X49221Y-47881D01*
X49038Y-47957D01*
X48949Y-48045D01*
X48949Y-47451D01*
X48911Y-47359D01*
X48841Y-47289D01*
X48750Y-47251D01*
X48651Y-47251D01*
X48051Y-47251D01*
X47959Y-47289D01*
X47889Y-47359D01*
X47851Y-47450D01*
X47851Y-47549D01*
X47851Y-48149D01*
X47889Y-48241D01*
X47959Y-48311D01*
X48050Y-48349D01*
X48075Y-48349D01*
X47935Y-48489D01*
X47851Y-48691D01*
X47851Y-48909D01*
X47935Y-49111D01*
X48089Y-49265D01*
X48180Y-49302D01*
X48119Y-49328D01*
X48092Y-49422D01*
X48400Y-49729D01*
X48708Y-49422D01*
X48681Y-49328D01*
X48615Y-49304D01*
X48711Y-49265D01*
X48865Y-49111D01*
X48949Y-48909D01*
X48949Y-48714D01*
X49037Y-48803D01*
X49221Y-48879D01*
X49419Y-48879D01*
X49602Y-48803D01*
X49743Y-48663D01*
X49819Y-48479D01*
X49819Y-48617D01*
X49801Y-48661D01*
X49801Y-48859D01*
X49877Y-49042D01*
X50017Y-49183D01*
X50201Y-49259D01*
X50334Y-49259D01*
X50377Y-49362D01*
X50517Y-49503D01*
X50701Y-49579D01*
X50899Y-49579D01*
X51082Y-49503D01*
X51223Y-49363D01*
X51299Y-49179D01*
X51299Y-52135D01*
X51237Y-52197D01*
X51161Y-52381D01*
X51161Y-52411D01*
X51039Y-52361D01*
X50841Y-52361D01*
X50799Y-52378D01*
X50799Y-51899D01*
X50799Y-51701D01*
X50723Y-51518D01*
X50583Y-51377D01*
X50399Y-51301D01*
X50201Y-51301D01*
X50018Y-51377D01*
X49877Y-51517D01*
X49801Y-51701D01*
X49801Y-51899D01*
X49877Y-52082D01*
X50017Y-52223D01*
X50201Y-52299D01*
X50399Y-52299D01*
X50582Y-52223D01*
X50723Y-52083D01*
X50799Y-51899D01*
X50799Y-52378D01*
X50658Y-52437D01*
X50517Y-52577D01*
X50441Y-52761D01*
X50441Y-52959D01*
X50517Y-53142D01*
X50657Y-53283D01*
X50841Y-53359D01*
X51039Y-53359D01*
X51222Y-53283D01*
X51363Y-53143D01*
X51439Y-52959D01*
X51439Y-52928D01*
X51561Y-52979D01*
X51759Y-52979D01*
X51942Y-52903D01*
X52083Y-52763D01*
X52159Y-52579D01*
X52159Y-53485D01*
X52099Y-53461D01*
X51901Y-53461D01*
X51718Y-53537D01*
X51620Y-53634D01*
X51603Y-53617D01*
X51419Y-53541D01*
X51221Y-53541D01*
X51038Y-53617D01*
X50897Y-53757D01*
X50821Y-53941D01*
X50821Y-54139D01*
X50897Y-54322D01*
X50999Y-54424D01*
X50935Y-54489D01*
X50900Y-54573D01*
X50865Y-54489D01*
X50711Y-54335D01*
X50509Y-54251D01*
X50291Y-54251D01*
X50089Y-54335D01*
X49935Y-54489D01*
X49897Y-54580D01*
X49872Y-54519D01*
X49778Y-54492D01*
X49708Y-54562D01*
X49708Y-54422D01*
X49681Y-54328D01*
X49479Y-54257D01*
X49266Y-54268D01*
X49119Y-54328D01*
X49092Y-54422D01*
X49400Y-54729D01*
X49708Y-54422D01*
X49708Y-54562D01*
X49471Y-54800D01*
X49778Y-55108D01*
X49872Y-55081D01*
X49895Y-55015D01*
X49935Y-55111D01*
X50089Y-55265D01*
X50173Y-55300D01*
X50089Y-55335D01*
X49935Y-55489D01*
X49900Y-55573D01*
X49865Y-55489D01*
X49711Y-55335D01*
X49619Y-55297D01*
X49681Y-55272D01*
X49708Y-55178D01*
X49400Y-54871D01*
X49092Y-55178D01*
X49119Y-55272D01*
X49184Y-55295D01*
X49089Y-55335D01*
X48935Y-55489D01*
X48900Y-55573D01*
X48865Y-55489D01*
X48711Y-55335D01*
X48626Y-55300D01*
X48711Y-55265D01*
X48865Y-55111D01*
X48902Y-55019D01*
X48928Y-55081D01*
X49022Y-55108D01*
X49329Y-54800D01*
X49022Y-54492D01*
X48949Y-54512D01*
X48949Y-52909D01*
X48949Y-52691D01*
X48865Y-52489D01*
X48711Y-52335D01*
X48626Y-52300D01*
X48711Y-52265D01*
X48865Y-52111D01*
X48949Y-51909D01*
X48949Y-51691D01*
X48865Y-51489D01*
X48711Y-51335D01*
X48626Y-51300D01*
X48711Y-51265D01*
X48865Y-51111D01*
X48949Y-50909D01*
X48949Y-50691D01*
X48943Y-50676D01*
X48943Y-49879D01*
X48932Y-49666D01*
X48872Y-49519D01*
X48778Y-49492D01*
X48471Y-49800D01*
X48778Y-50108D01*
X48872Y-50081D01*
X48943Y-49879D01*
X48943Y-50676D01*
X48865Y-50489D01*
X48711Y-50335D01*
X48619Y-50297D01*
X48681Y-50272D01*
X48708Y-50178D01*
X48400Y-49871D01*
X48329Y-49941D01*
X48329Y-49800D01*
X48022Y-49492D01*
X47928Y-49519D01*
X47857Y-49721D01*
X47868Y-49934D01*
X47928Y-50081D01*
X48022Y-50108D01*
X48329Y-49800D01*
X48329Y-49941D01*
X48092Y-50178D01*
X48119Y-50272D01*
X48184Y-50295D01*
X48089Y-50335D01*
X47935Y-50489D01*
X47851Y-50691D01*
X47851Y-50909D01*
X47935Y-51111D01*
X48089Y-51265D01*
X48173Y-51300D01*
X48089Y-51335D01*
X47935Y-51489D01*
X47851Y-51691D01*
X47851Y-51909D01*
X47935Y-52111D01*
X48089Y-52265D01*
X48173Y-52300D01*
X48089Y-52335D01*
X47935Y-52489D01*
X47851Y-52691D01*
X47851Y-52909D01*
X47935Y-53111D01*
X48089Y-53265D01*
X48291Y-53349D01*
X48509Y-53349D01*
X48711Y-53265D01*
X48865Y-53111D01*
X48949Y-52909D01*
X48949Y-54512D01*
X48928Y-54519D01*
X48904Y-54584D01*
X48865Y-54489D01*
X48711Y-54335D01*
X48509Y-54251D01*
X48291Y-54251D01*
X48089Y-54335D01*
X47935Y-54489D01*
X47851Y-54691D01*
X47851Y-54909D01*
X47935Y-55111D01*
X48089Y-55265D01*
X48173Y-55300D01*
X48089Y-55335D01*
X47935Y-55489D01*
X47851Y-55691D01*
X47851Y-55909D01*
X47935Y-56111D01*
X48089Y-56265D01*
X48291Y-56349D01*
X48509Y-56349D01*
X48711Y-56265D01*
X48865Y-56111D01*
X48900Y-56026D01*
X48935Y-56111D01*
X49089Y-56265D01*
X49291Y-56349D01*
X49509Y-56349D01*
X49711Y-56265D01*
X49865Y-56111D01*
X49900Y-56026D01*
X49935Y-56111D01*
X50089Y-56265D01*
X50291Y-56349D01*
X50509Y-56349D01*
X50711Y-56265D01*
X50865Y-56111D01*
X50900Y-56026D01*
X50935Y-56111D01*
X51089Y-56265D01*
X51291Y-56349D01*
X51509Y-56349D01*
X51711Y-56265D01*
X51865Y-56111D01*
X51900Y-56026D01*
X51935Y-56111D01*
X52089Y-56265D01*
X52291Y-56349D01*
X52509Y-56349D01*
X52711Y-56265D01*
X52865Y-56111D01*
X52900Y-56026D01*
X52935Y-56111D01*
X53089Y-56265D01*
X53291Y-56349D01*
X53509Y-56349D01*
X53711Y-56265D01*
X53865Y-56111D01*
X53900Y-56026D01*
X53935Y-56111D01*
X54089Y-56265D01*
X54291Y-56349D01*
X54509Y-56349D01*
X54711Y-56265D01*
X54865Y-56111D01*
X54900Y-56026D01*
X54935Y-56111D01*
X55089Y-56265D01*
X55291Y-56349D01*
X55509Y-56349D01*
X55711Y-56265D01*
X55865Y-56111D01*
X55900Y-56026D01*
X55935Y-56111D01*
X56089Y-56265D01*
X56291Y-56349D01*
X56509Y-56349D01*
X56711Y-56265D01*
X56865Y-56111D01*
X56900Y-56026D01*
X56935Y-56111D01*
X57089Y-56265D01*
X57291Y-56349D01*
X57509Y-56349D01*
X57550Y-56331D01*
X57711Y-56265D01*
X57865Y-56111D01*
X57900Y-56026D01*
X57935Y-56111D01*
X58089Y-56265D01*
X58291Y-56349D01*
X58509Y-56349D01*
X58711Y-56265D01*
X58865Y-56111D01*
X58900Y-56026D01*
X58935Y-56111D01*
X59089Y-56265D01*
X59291Y-56349D01*
X59509Y-56349D01*
X59711Y-56265D01*
X59865Y-56111D01*
X59900Y-56026D01*
X59935Y-56111D01*
X60089Y-56265D01*
X60291Y-56349D01*
X60509Y-56349D01*
X60711Y-56265D01*
X60851Y-56125D01*
X60851Y-56149D01*
X60889Y-56241D01*
X60959Y-56311D01*
X61050Y-56349D01*
X61149Y-56349D01*
X61749Y-56349D01*
X61841Y-56311D01*
X61911Y-56241D01*
X61949Y-56150D01*
X61949Y-56051D01*
X61949Y-55451D01*
X61911Y-55359D01*
X61841Y-55289D01*
X61750Y-55251D01*
X61725Y-55251D01*
X61865Y-55111D01*
X61949Y-54909D01*
X61949Y-54874D01*
X62057Y-54983D01*
X62241Y-55059D01*
X62439Y-55059D01*
X62622Y-54983D01*
X62763Y-54843D01*
X62839Y-54659D01*
X62839Y-54461D01*
X62811Y-54393D01*
X62943Y-54263D01*
X63019Y-54079D01*
X63019Y-56450D01*
X57550Y-56450D01*
X47550Y-56450D01*
X47550Y-40550D01*
X47998Y-40550D01*
X47989Y-40559D01*
X47951Y-40650D01*
X47951Y-40749D01*
X47951Y-41349D01*
X47989Y-41441D01*
X48059Y-41511D01*
X48150Y-41549D01*
X48175Y-41549D01*
X48035Y-41689D01*
X47951Y-41891D01*
X47951Y-42109D01*
X48035Y-42311D01*
X48189Y-42465D01*
X48280Y-42502D01*
X48219Y-42528D01*
X48192Y-42622D01*
X48500Y-42929D01*
X48808Y-42622D01*
X48781Y-42528D01*
X48715Y-42504D01*
X48811Y-42465D01*
X48965Y-42311D01*
X49049Y-42109D01*
X49049Y-41891D01*
X48965Y-41689D01*
X48825Y-41549D01*
X48849Y-41549D01*
X48941Y-41511D01*
X49011Y-41441D01*
X49049Y-41350D01*
X49049Y-41251D01*
X49049Y-40651D01*
X49011Y-40559D01*
X49002Y-40550D01*
X51274Y-40550D01*
X51135Y-40689D01*
X51051Y-40891D01*
X51051Y-41109D01*
X51135Y-41311D01*
X51289Y-41465D01*
X51373Y-41500D01*
X51289Y-41535D01*
X51135Y-41689D01*
X51051Y-41891D01*
X51051Y-42109D01*
X51135Y-42311D01*
X51289Y-42465D01*
X51491Y-42549D01*
X51709Y-42549D01*
X51911Y-42465D01*
X52065Y-42311D01*
X52100Y-42226D01*
X52135Y-42311D01*
X52289Y-42465D01*
X52491Y-42549D01*
X52709Y-42549D01*
X52911Y-42465D01*
X53065Y-42311D01*
X53100Y-42226D01*
X53135Y-42311D01*
X53289Y-42465D01*
X53491Y-42549D01*
X53709Y-42549D01*
X53911Y-42465D01*
X54065Y-42311D01*
X54100Y-42226D01*
X54135Y-42311D01*
X54289Y-42465D01*
X54491Y-42549D01*
X54709Y-42549D01*
X54911Y-42465D01*
X55065Y-42311D01*
X55149Y-42109D01*
X55149Y-41891D01*
X55065Y-41689D01*
X54925Y-41549D01*
X54949Y-41549D01*
X55041Y-41511D01*
X55111Y-41441D01*
X55149Y-41350D01*
X55149Y-41251D01*
X55149Y-40651D01*
X55111Y-40559D01*
X55102Y-40550D01*
X62411Y-40550D01*
X62341Y-40721D01*
X62341Y-40919D01*
X62417Y-41102D01*
X62557Y-41243D01*
X62741Y-41319D01*
X62939Y-41319D01*
X63122Y-41243D01*
X63263Y-41103D01*
X63339Y-40919D01*
X63339Y-40721D01*
X63267Y-40550D01*
X70950Y-40550D01*
X70950Y-45800D01*
X77450Y-45800D01*
X77450Y-48544D01*
X77333Y-48427D01*
X77199Y-48371D01*
X77199Y-47349D01*
X77199Y-47151D01*
X77123Y-46968D01*
X76983Y-46827D01*
X76799Y-46751D01*
X76601Y-46751D01*
X76418Y-46827D01*
X76277Y-46967D01*
X76201Y-47151D01*
X76201Y-47349D01*
X76277Y-47532D01*
X76417Y-47673D01*
X76601Y-47749D01*
X76799Y-47749D01*
X76982Y-47673D01*
X77123Y-47533D01*
X77199Y-47349D01*
X77199Y-48371D01*
X77149Y-48351D01*
X76951Y-48351D01*
X76768Y-48427D01*
X76649Y-48544D01*
X76533Y-48427D01*
X76349Y-48351D01*
X76151Y-48351D01*
X76149Y-48351D01*
X76149Y-46899D01*
X76149Y-46701D01*
X76073Y-46518D01*
X75933Y-46377D01*
X75749Y-46301D01*
X75551Y-46301D01*
X75368Y-46377D01*
X75227Y-46517D01*
X75151Y-46701D01*
X75151Y-46899D01*
X75227Y-47082D01*
X75367Y-47223D01*
X75551Y-47299D01*
X75749Y-47299D01*
X75932Y-47223D01*
X76073Y-47083D01*
X76149Y-46899D01*
X76149Y-48351D01*
X75968Y-48427D01*
X75827Y-48567D01*
X75799Y-48634D01*
X75799Y-47949D01*
X75799Y-47751D01*
X75723Y-47568D01*
X75583Y-47427D01*
X75399Y-47351D01*
X75201Y-47351D01*
X75018Y-47427D01*
X74877Y-47567D01*
X74801Y-47751D01*
X74801Y-47949D01*
X74877Y-48132D01*
X75017Y-48273D01*
X75201Y-48349D01*
X75399Y-48349D01*
X75582Y-48273D01*
X75723Y-48133D01*
X75799Y-47949D01*
X75799Y-48634D01*
X75751Y-48751D01*
X75751Y-48949D01*
X75827Y-49132D01*
X75967Y-49273D01*
X76151Y-49349D01*
X76349Y-49349D01*
X76532Y-49273D01*
X76650Y-49155D01*
X76767Y-49273D01*
X76951Y-49349D01*
X77149Y-49349D01*
X77332Y-49273D01*
X77450Y-49155D01*
X77450Y-56450D01*
M02*
