G04 (created by PCBNEW-RS274X (2012-01-19 BZR 3256)-stable) date 5/26/2013 3:34:06 PM*
G01*
G70*
G90*
%MOIN*%
G04 Gerber Fmt 3.4, Leading zero omitted, Abs format*
%FSLAX34Y34*%
G04 APERTURE LIST*
%ADD10C,0.006000*%
%ADD11C,0.012000*%
%ADD12C,0.005000*%
%ADD13C,0.015000*%
%ADD14C,0.004500*%
G04 APERTURE END LIST*
G54D10*
G54D11*
X38478Y-22164D02*
X38278Y-21783D01*
X38135Y-22164D02*
X38135Y-21364D01*
X38363Y-21364D01*
X38421Y-21402D01*
X38449Y-21440D01*
X38478Y-21516D01*
X38478Y-21630D01*
X38449Y-21707D01*
X38421Y-21745D01*
X38363Y-21783D01*
X38135Y-21783D01*
X38963Y-22126D02*
X38906Y-22164D01*
X38792Y-22164D01*
X38735Y-22126D01*
X38706Y-22050D01*
X38706Y-21745D01*
X38735Y-21669D01*
X38792Y-21630D01*
X38906Y-21630D01*
X38963Y-21669D01*
X38992Y-21745D01*
X38992Y-21821D01*
X38706Y-21897D01*
X39220Y-22126D02*
X39277Y-22164D01*
X39392Y-22164D01*
X39449Y-22126D01*
X39477Y-22050D01*
X39477Y-22011D01*
X39449Y-21935D01*
X39392Y-21897D01*
X39306Y-21897D01*
X39249Y-21859D01*
X39220Y-21783D01*
X39220Y-21745D01*
X39249Y-21669D01*
X39306Y-21630D01*
X39392Y-21630D01*
X39449Y-21669D01*
X39963Y-22126D02*
X39906Y-22164D01*
X39792Y-22164D01*
X39735Y-22126D01*
X39706Y-22050D01*
X39706Y-21745D01*
X39735Y-21669D01*
X39792Y-21630D01*
X39906Y-21630D01*
X39963Y-21669D01*
X39992Y-21745D01*
X39992Y-21821D01*
X39706Y-21897D01*
X40163Y-21630D02*
X40392Y-21630D01*
X40249Y-21364D02*
X40249Y-22050D01*
X40277Y-22126D01*
X40335Y-22164D01*
X40392Y-22164D01*
X14419Y-20024D02*
X15181Y-20024D01*
X35419Y-20024D02*
X36181Y-20024D01*
X35800Y-20405D02*
X35800Y-19643D01*
G54D12*
X28410Y-20630D02*
X27510Y-20630D01*
X27510Y-20630D02*
X27510Y-21130D01*
X27510Y-21130D02*
X28410Y-21130D01*
X28410Y-21130D02*
X28410Y-20630D01*
X27378Y-16734D02*
X28278Y-16734D01*
X28278Y-16734D02*
X28278Y-16234D01*
X28278Y-16234D02*
X27378Y-16234D01*
X27378Y-16234D02*
X27378Y-16734D01*
X30474Y-19054D02*
X30474Y-18154D01*
X30474Y-18154D02*
X29974Y-18154D01*
X29974Y-18154D02*
X29974Y-19054D01*
X29974Y-19054D02*
X30474Y-19054D01*
X35150Y-14150D02*
X35150Y-15050D01*
X35150Y-15050D02*
X35650Y-15050D01*
X35650Y-15050D02*
X35650Y-14150D01*
X35650Y-14150D02*
X35150Y-14150D01*
X31250Y-13650D02*
X31250Y-12750D01*
X31250Y-12750D02*
X30750Y-12750D01*
X30750Y-12750D02*
X30750Y-13650D01*
X30750Y-13650D02*
X31250Y-13650D01*
G54D13*
X13925Y-24378D02*
X13925Y-22469D01*
X13925Y-22469D02*
X12075Y-22469D01*
X12075Y-22469D02*
X12075Y-24378D01*
X13925Y-24378D02*
X12075Y-24378D01*
X17925Y-24378D02*
X17925Y-22469D01*
X17925Y-22469D02*
X16075Y-22469D01*
X16075Y-22469D02*
X16075Y-24378D01*
X17925Y-24378D02*
X16075Y-24378D01*
X21925Y-24378D02*
X21925Y-22469D01*
X21925Y-22469D02*
X20075Y-22469D01*
X20075Y-22469D02*
X20075Y-24378D01*
X21925Y-24378D02*
X20075Y-24378D01*
X28575Y-10372D02*
X28575Y-12281D01*
X28575Y-12281D02*
X30425Y-12281D01*
X30425Y-12281D02*
X30425Y-10372D01*
X28575Y-10372D02*
X30425Y-10372D01*
X34075Y-10372D02*
X34075Y-12281D01*
X34075Y-12281D02*
X35925Y-12281D01*
X35925Y-12281D02*
X35925Y-10372D01*
X34075Y-10372D02*
X35925Y-10372D01*
X40378Y-18575D02*
X38469Y-18575D01*
X38469Y-18575D02*
X38469Y-20425D01*
X38469Y-20425D02*
X40378Y-20425D01*
X40378Y-18575D02*
X40378Y-20425D01*
X13950Y-17650D02*
X13950Y-19300D01*
X35800Y-13200D02*
X14000Y-13200D01*
X14000Y-13200D02*
X13950Y-13200D01*
X13950Y-13200D02*
X13950Y-14850D01*
X37550Y-14850D02*
X37550Y-13200D01*
X37550Y-13200D02*
X36900Y-13200D01*
X37550Y-19300D02*
X37550Y-17650D01*
X25750Y-19300D02*
X13950Y-19300D01*
X25750Y-19300D02*
X37550Y-19300D01*
G54D12*
X16110Y-18310D02*
X16110Y-19210D01*
X16110Y-19210D02*
X16610Y-19210D01*
X16610Y-19210D02*
X16610Y-18310D01*
X16610Y-18310D02*
X16110Y-18310D01*
X18670Y-20290D02*
X19570Y-20290D01*
X19570Y-20290D02*
X19570Y-19790D01*
X19570Y-19790D02*
X18670Y-19790D01*
X18670Y-19790D02*
X18670Y-20290D01*
G54D14*
X28689Y-20942D02*
X28698Y-20951D01*
X28724Y-20961D01*
X28741Y-20961D01*
X28766Y-20951D01*
X28784Y-20932D01*
X28792Y-20913D01*
X28801Y-20875D01*
X28801Y-20847D01*
X28792Y-20809D01*
X28784Y-20790D01*
X28766Y-20770D01*
X28741Y-20761D01*
X28724Y-20761D01*
X28698Y-20770D01*
X28689Y-20780D01*
X28535Y-20828D02*
X28535Y-20961D01*
X28578Y-20751D02*
X28621Y-20894D01*
X28509Y-20894D01*
X27857Y-16106D02*
X27866Y-16115D01*
X27892Y-16125D01*
X27909Y-16125D01*
X27934Y-16115D01*
X27952Y-16096D01*
X27960Y-16077D01*
X27969Y-16039D01*
X27969Y-16011D01*
X27960Y-15973D01*
X27952Y-15954D01*
X27934Y-15934D01*
X27909Y-15925D01*
X27892Y-15925D01*
X27866Y-15934D01*
X27857Y-15944D01*
X27703Y-15925D02*
X27737Y-15925D01*
X27754Y-15934D01*
X27763Y-15944D01*
X27780Y-15973D01*
X27789Y-16011D01*
X27789Y-16087D01*
X27780Y-16106D01*
X27772Y-16115D01*
X27754Y-16125D01*
X27720Y-16125D01*
X27703Y-16115D01*
X27694Y-16106D01*
X27686Y-16087D01*
X27686Y-16039D01*
X27694Y-16020D01*
X27703Y-16011D01*
X27720Y-16001D01*
X27754Y-16001D01*
X27772Y-16011D01*
X27780Y-16020D01*
X27789Y-16039D01*
X29753Y-18666D02*
X29762Y-18675D01*
X29788Y-18685D01*
X29805Y-18685D01*
X29830Y-18675D01*
X29848Y-18656D01*
X29856Y-18637D01*
X29865Y-18599D01*
X29865Y-18571D01*
X29856Y-18533D01*
X29848Y-18514D01*
X29830Y-18494D01*
X29805Y-18485D01*
X29788Y-18485D01*
X29762Y-18494D01*
X29753Y-18504D01*
X29693Y-18485D02*
X29573Y-18485D01*
X29650Y-18685D01*
X34915Y-15281D02*
X34975Y-15186D01*
X35018Y-15281D02*
X35018Y-15081D01*
X34950Y-15081D01*
X34932Y-15090D01*
X34924Y-15100D01*
X34915Y-15119D01*
X34915Y-15148D01*
X34924Y-15167D01*
X34932Y-15176D01*
X34950Y-15186D01*
X35018Y-15186D01*
X34744Y-15281D02*
X34847Y-15281D01*
X34795Y-15281D02*
X34795Y-15081D01*
X34812Y-15110D01*
X34830Y-15129D01*
X34847Y-15138D01*
X34573Y-15281D02*
X34676Y-15281D01*
X34624Y-15281D02*
X34624Y-15081D01*
X34641Y-15110D01*
X34659Y-15129D01*
X34676Y-15138D01*
X31115Y-14081D02*
X31175Y-13986D01*
X31218Y-14081D02*
X31218Y-13881D01*
X31150Y-13881D01*
X31132Y-13890D01*
X31124Y-13900D01*
X31115Y-13919D01*
X31115Y-13948D01*
X31124Y-13967D01*
X31132Y-13976D01*
X31150Y-13986D01*
X31218Y-13986D01*
X30944Y-14081D02*
X31047Y-14081D01*
X30995Y-14081D02*
X30995Y-13881D01*
X31012Y-13910D01*
X31030Y-13929D01*
X31047Y-13938D01*
X30884Y-13881D02*
X30773Y-13881D01*
X30833Y-13957D01*
X30807Y-13957D01*
X30790Y-13967D01*
X30781Y-13976D01*
X30773Y-13995D01*
X30773Y-14043D01*
X30781Y-14062D01*
X30790Y-14071D01*
X30807Y-14081D01*
X30859Y-14081D01*
X30876Y-14071D01*
X30884Y-14062D01*
G54D11*
X14942Y-22493D02*
X14942Y-21893D01*
X14799Y-21893D01*
X14714Y-21921D01*
X14656Y-21979D01*
X14628Y-22036D01*
X14599Y-22150D01*
X14599Y-22236D01*
X14628Y-22350D01*
X14656Y-22407D01*
X14714Y-22464D01*
X14799Y-22493D01*
X14942Y-22493D01*
X14056Y-21893D02*
X14342Y-21893D01*
X14371Y-22179D01*
X14342Y-22150D01*
X14285Y-22121D01*
X14142Y-22121D01*
X14085Y-22150D01*
X14056Y-22179D01*
X14028Y-22236D01*
X14028Y-22379D01*
X14056Y-22436D01*
X14085Y-22464D01*
X14142Y-22493D01*
X14285Y-22493D01*
X14342Y-22464D01*
X14371Y-22436D01*
X19192Y-22493D02*
X19192Y-21893D01*
X19049Y-21893D01*
X18964Y-21921D01*
X18906Y-21979D01*
X18878Y-22036D01*
X18849Y-22150D01*
X18849Y-22236D01*
X18878Y-22350D01*
X18906Y-22407D01*
X18964Y-22464D01*
X19049Y-22493D01*
X19192Y-22493D01*
X18649Y-21893D02*
X18278Y-21893D01*
X18478Y-22121D01*
X18392Y-22121D01*
X18335Y-22150D01*
X18306Y-22179D01*
X18278Y-22236D01*
X18278Y-22379D01*
X18306Y-22436D01*
X18335Y-22464D01*
X18392Y-22493D01*
X18564Y-22493D01*
X18621Y-22464D01*
X18649Y-22436D01*
X23192Y-22493D02*
X23192Y-21893D01*
X23049Y-21893D01*
X22964Y-21921D01*
X22906Y-21979D01*
X22878Y-22036D01*
X22849Y-22150D01*
X22849Y-22236D01*
X22878Y-22350D01*
X22906Y-22407D01*
X22964Y-22464D01*
X23049Y-22493D01*
X23192Y-22493D01*
X22278Y-22493D02*
X22621Y-22493D01*
X22449Y-22493D02*
X22449Y-21893D01*
X22506Y-21979D01*
X22564Y-22036D01*
X22621Y-22064D01*
X28442Y-12743D02*
X28442Y-12143D01*
X28214Y-12143D01*
X28156Y-12171D01*
X28128Y-12200D01*
X28099Y-12257D01*
X28099Y-12343D01*
X28128Y-12400D01*
X28156Y-12429D01*
X28214Y-12457D01*
X28442Y-12457D01*
X27756Y-12400D02*
X27814Y-12371D01*
X27842Y-12343D01*
X27871Y-12286D01*
X27871Y-12257D01*
X27842Y-12200D01*
X27814Y-12171D01*
X27756Y-12143D01*
X27642Y-12143D01*
X27585Y-12171D01*
X27556Y-12200D01*
X27528Y-12257D01*
X27528Y-12286D01*
X27556Y-12343D01*
X27585Y-12371D01*
X27642Y-12400D01*
X27756Y-12400D01*
X27814Y-12429D01*
X27842Y-12457D01*
X27871Y-12514D01*
X27871Y-12629D01*
X27842Y-12686D01*
X27814Y-12714D01*
X27756Y-12743D01*
X27642Y-12743D01*
X27585Y-12714D01*
X27556Y-12686D01*
X27528Y-12629D01*
X27528Y-12514D01*
X27556Y-12457D01*
X27585Y-12429D01*
X27642Y-12400D01*
X33692Y-12743D02*
X33692Y-12143D01*
X33464Y-12143D01*
X33406Y-12171D01*
X33378Y-12200D01*
X33349Y-12257D01*
X33349Y-12343D01*
X33378Y-12400D01*
X33406Y-12429D01*
X33464Y-12457D01*
X33692Y-12457D01*
X32806Y-12143D02*
X33092Y-12143D01*
X33121Y-12429D01*
X33092Y-12400D01*
X33035Y-12371D01*
X32892Y-12371D01*
X32835Y-12400D01*
X32806Y-12429D01*
X32778Y-12486D01*
X32778Y-12629D01*
X32806Y-12686D01*
X32835Y-12714D01*
X32892Y-12743D01*
X33035Y-12743D01*
X33092Y-12714D01*
X33121Y-12686D01*
X38550Y-20964D02*
X38464Y-20993D01*
X38321Y-20993D01*
X38264Y-20964D01*
X38235Y-20936D01*
X38207Y-20879D01*
X38207Y-20821D01*
X38235Y-20764D01*
X38264Y-20736D01*
X38321Y-20707D01*
X38435Y-20679D01*
X38493Y-20650D01*
X38521Y-20621D01*
X38550Y-20564D01*
X38550Y-20507D01*
X38521Y-20450D01*
X38493Y-20421D01*
X38435Y-20393D01*
X38293Y-20393D01*
X38207Y-20421D01*
X38007Y-20393D02*
X37864Y-20993D01*
X37750Y-20564D01*
X37636Y-20993D01*
X37493Y-20393D01*
X36950Y-20993D02*
X37293Y-20993D01*
X37121Y-20993D02*
X37121Y-20393D01*
X37178Y-20479D01*
X37236Y-20536D01*
X37293Y-20564D01*
X26192Y-11993D02*
X26192Y-11393D01*
X25964Y-11393D01*
X25906Y-11421D01*
X25878Y-11450D01*
X25849Y-11507D01*
X25849Y-11593D01*
X25878Y-11650D01*
X25906Y-11679D01*
X25964Y-11707D01*
X26192Y-11707D01*
X25335Y-11393D02*
X25449Y-11393D01*
X25506Y-11421D01*
X25535Y-11450D01*
X25592Y-11536D01*
X25621Y-11650D01*
X25621Y-11879D01*
X25592Y-11936D01*
X25564Y-11964D01*
X25506Y-11993D01*
X25392Y-11993D01*
X25335Y-11964D01*
X25306Y-11936D01*
X25278Y-11879D01*
X25278Y-11736D01*
X25306Y-11679D01*
X25335Y-11650D01*
X25392Y-11621D01*
X25506Y-11621D01*
X25564Y-11650D01*
X25592Y-11679D01*
X25621Y-11736D01*
X27664Y-12529D02*
X27578Y-12557D01*
X27550Y-12586D01*
X27521Y-12643D01*
X27521Y-12729D01*
X27550Y-12786D01*
X27578Y-12814D01*
X27636Y-12843D01*
X27864Y-12843D01*
X27864Y-12243D01*
X27664Y-12243D01*
X27607Y-12271D01*
X27578Y-12300D01*
X27550Y-12357D01*
X27550Y-12414D01*
X27578Y-12471D01*
X27607Y-12500D01*
X27664Y-12529D01*
X27864Y-12529D01*
X27293Y-12671D02*
X27007Y-12671D01*
X27350Y-12843D02*
X27150Y-12243D01*
X26950Y-12843D01*
X26836Y-12243D02*
X26493Y-12243D01*
X26664Y-12843D02*
X26664Y-12243D01*
X26436Y-12900D02*
X25979Y-12900D01*
X25493Y-12786D02*
X25522Y-12814D01*
X25608Y-12843D01*
X25665Y-12843D01*
X25750Y-12814D01*
X25808Y-12757D01*
X25836Y-12700D01*
X25865Y-12586D01*
X25865Y-12500D01*
X25836Y-12386D01*
X25808Y-12329D01*
X25750Y-12271D01*
X25665Y-12243D01*
X25608Y-12243D01*
X25522Y-12271D01*
X25493Y-12300D01*
X25122Y-12243D02*
X25008Y-12243D01*
X24950Y-12271D01*
X24893Y-12329D01*
X24865Y-12443D01*
X24865Y-12643D01*
X24893Y-12757D01*
X24950Y-12814D01*
X25008Y-12843D01*
X25122Y-12843D01*
X25179Y-12814D01*
X25236Y-12757D01*
X25265Y-12643D01*
X25265Y-12443D01*
X25236Y-12329D01*
X25179Y-12271D01*
X25122Y-12243D01*
X24607Y-12843D02*
X24607Y-12243D01*
X24264Y-12843D01*
X24264Y-12243D01*
X23978Y-12843D02*
X23978Y-12243D01*
X23635Y-12843D01*
X23635Y-12243D01*
G54D14*
X16422Y-18731D02*
X16431Y-18722D01*
X16441Y-18696D01*
X16441Y-18679D01*
X16431Y-18654D01*
X16412Y-18636D01*
X16393Y-18628D01*
X16355Y-18619D01*
X16327Y-18619D01*
X16289Y-18628D01*
X16270Y-18636D01*
X16250Y-18654D01*
X16241Y-18679D01*
X16241Y-18696D01*
X16250Y-18722D01*
X16260Y-18731D01*
X16441Y-18816D02*
X16441Y-18851D01*
X16431Y-18868D01*
X16422Y-18876D01*
X16393Y-18894D01*
X16355Y-18902D01*
X16279Y-18902D01*
X16260Y-18894D01*
X16250Y-18885D01*
X16241Y-18868D01*
X16241Y-18834D01*
X16250Y-18816D01*
X16260Y-18808D01*
X16279Y-18799D01*
X16327Y-18799D01*
X16346Y-18808D01*
X16355Y-18816D01*
X16365Y-18834D01*
X16365Y-18868D01*
X16355Y-18885D01*
X16346Y-18894D01*
X16327Y-18902D01*
X19235Y-20102D02*
X19244Y-20111D01*
X19270Y-20121D01*
X19287Y-20121D01*
X19312Y-20111D01*
X19330Y-20092D01*
X19338Y-20073D01*
X19347Y-20035D01*
X19347Y-20007D01*
X19338Y-19969D01*
X19330Y-19950D01*
X19312Y-19930D01*
X19287Y-19921D01*
X19270Y-19921D01*
X19244Y-19930D01*
X19235Y-19940D01*
X19064Y-20121D02*
X19167Y-20121D01*
X19115Y-20121D02*
X19115Y-19921D01*
X19132Y-19950D01*
X19150Y-19969D01*
X19167Y-19978D01*
X18953Y-19921D02*
X18936Y-19921D01*
X18919Y-19930D01*
X18910Y-19940D01*
X18901Y-19959D01*
X18893Y-19997D01*
X18893Y-20045D01*
X18901Y-20083D01*
X18910Y-20102D01*
X18919Y-20111D01*
X18936Y-20121D01*
X18953Y-20121D01*
X18970Y-20111D01*
X18979Y-20102D01*
X18987Y-20083D01*
X18996Y-20045D01*
X18996Y-19997D01*
X18987Y-19959D01*
X18979Y-19940D01*
X18970Y-19930D01*
X18953Y-19921D01*
M02*
