G04 (created by PCBNEW-RS274X (2012-01-19 BZR 3256)-stable) date 5/26/2013 3:34:05 PM*
G01*
G70*
G90*
%MOIN*%
G04 Gerber Fmt 3.4, Leading zero omitted, Abs format*
%FSLAX34Y34*%
G04 APERTURE LIST*
%ADD10C,0.006000*%
%ADD11R,0.025000X0.045000*%
%ADD12R,0.045000X0.025000*%
%ADD13R,0.060000X0.060000*%
%ADD14C,0.060000*%
%ADD15R,0.039400X0.137800*%
%ADD16R,0.059100X0.133900*%
%ADD17R,0.137800X0.039400*%
%ADD18R,0.133900X0.059100*%
%ADD19C,0.160000*%
%ADD20R,0.300000X0.260000*%
%ADD21C,0.110000*%
%ADD22C,0.050000*%
%ADD23C,0.007000*%
%ADD24C,0.010000*%
G04 APERTURE END LIST*
G54D10*
G54D11*
X28260Y-20880D03*
X27660Y-20880D03*
X27528Y-16484D03*
X28128Y-16484D03*
G54D12*
X30224Y-18904D03*
X30224Y-18304D03*
X35400Y-14300D03*
X35400Y-14900D03*
X31000Y-13500D03*
X31000Y-12900D03*
G54D13*
X33800Y-24000D03*
G54D14*
X32800Y-24000D03*
X31800Y-24000D03*
X30800Y-24000D03*
X29800Y-24000D03*
G54D15*
X13394Y-21681D03*
X12606Y-21681D03*
G54D16*
X14319Y-23846D03*
X11681Y-23846D03*
G54D15*
X17394Y-21681D03*
X16606Y-21681D03*
G54D16*
X18319Y-23846D03*
X15681Y-23846D03*
G54D15*
X21394Y-21681D03*
X20606Y-21681D03*
G54D16*
X22319Y-23846D03*
X19681Y-23846D03*
G54D15*
X29106Y-13069D03*
X29894Y-13069D03*
G54D16*
X28181Y-10904D03*
X30819Y-10904D03*
G54D15*
X34606Y-13069D03*
X35394Y-13069D03*
G54D16*
X33681Y-10904D03*
X36319Y-10904D03*
G54D17*
X37681Y-19106D03*
X37681Y-19894D03*
G54D18*
X39846Y-18181D03*
X39846Y-20819D03*
G54D19*
X39750Y-14120D03*
X11000Y-14120D03*
G54D20*
X37850Y-16250D03*
X13650Y-16250D03*
G54D21*
X36350Y-13600D03*
G54D12*
X16360Y-18460D03*
X16360Y-19060D03*
G54D11*
X18820Y-20040D03*
X19420Y-20040D03*
G54D22*
X29560Y-22460D03*
X36040Y-14520D03*
X28940Y-20120D03*
X28320Y-19120D03*
X31640Y-15120D03*
X27420Y-18960D03*
X26500Y-14220D03*
X26440Y-18800D03*
X22540Y-18860D03*
X24180Y-19880D03*
X26480Y-14960D03*
X35920Y-15800D03*
X28180Y-17200D03*
X15320Y-18760D03*
X24880Y-15160D03*
X33980Y-18340D03*
X38460Y-14220D03*
X39340Y-19500D03*
X36520Y-18740D03*
X34740Y-15120D03*
X34000Y-22060D03*
X32420Y-16360D03*
X32700Y-20260D03*
X14340Y-14500D03*
X13460Y-18060D03*
X19460Y-19340D03*
X32760Y-15340D03*
X35400Y-18840D03*
X17140Y-19060D03*
X24840Y-18560D03*
X17060Y-13980D03*
X36640Y-21120D03*
X34980Y-16740D03*
X23140Y-18420D03*
X29580Y-18140D03*
X27700Y-20200D03*
X36540Y-21860D03*
X37740Y-21260D03*
X17860Y-19400D03*
X15620Y-16420D03*
X12360Y-14340D03*
X30900Y-12240D03*
X13220Y-14220D03*
X11580Y-16620D03*
X20200Y-19360D03*
X30800Y-22420D03*
X35100Y-23320D03*
X15660Y-13840D03*
X28920Y-22460D03*
X30240Y-23080D03*
X22240Y-21300D03*
X25180Y-23660D03*
X27180Y-24060D03*
X19840Y-16820D03*
X13320Y-19180D03*
X32660Y-19640D03*
X29140Y-18540D03*
X17580Y-15740D03*
X23320Y-16040D03*
X38020Y-18280D03*
X35740Y-23320D03*
X33980Y-12980D03*
X34800Y-18840D03*
X29500Y-11840D03*
X34340Y-17540D03*
X24680Y-17800D03*
X18880Y-19380D03*
X33900Y-17140D03*
X13980Y-22080D03*
X33360Y-13000D03*
X27540Y-17160D03*
X15000Y-22820D03*
X28200Y-23700D03*
X17180Y-18360D03*
X37820Y-11620D03*
X29520Y-19020D03*
X28280Y-20240D03*
X20920Y-22820D03*
X17000Y-22820D03*
X13860Y-13920D03*
X18960Y-22820D03*
X26860Y-11760D03*
G54D23*
X13481Y-11076D02*
X13981Y-11076D01*
X13481Y-11976D02*
X13481Y-11476D01*
X13981Y-11476D02*
X13481Y-11476D01*
X13981Y-11076D02*
X13981Y-11476D01*
X13481Y-11076D02*
X13481Y-11476D01*
X35460Y-17580D02*
X35460Y-15420D01*
X29560Y-22460D02*
X30720Y-21300D01*
X35460Y-15420D02*
X35720Y-15420D01*
X34260Y-18780D02*
X35460Y-17580D01*
X33080Y-21300D02*
X34260Y-20120D01*
X30720Y-21300D02*
X33080Y-21300D01*
X35720Y-15420D02*
X36000Y-15140D01*
X34260Y-20120D02*
X34260Y-18780D01*
X36000Y-14560D02*
X36040Y-14520D01*
X36000Y-15140D02*
X36000Y-14560D01*
X35394Y-13069D02*
X35394Y-14294D01*
X33320Y-15520D02*
X33320Y-20520D01*
X33320Y-20520D02*
X33000Y-20840D01*
X33000Y-20840D02*
X29660Y-20840D01*
X29660Y-20840D02*
X28940Y-20120D01*
X34540Y-14300D02*
X33320Y-15520D01*
X35394Y-14294D02*
X35400Y-14300D01*
X35400Y-14300D02*
X34540Y-14300D01*
X31640Y-15420D02*
X31640Y-15120D01*
X28740Y-18320D02*
X31640Y-15420D01*
X28740Y-18700D02*
X28740Y-18320D01*
X28320Y-19120D02*
X28740Y-18700D01*
X29560Y-14460D02*
X29894Y-14126D01*
X29894Y-13069D02*
X30029Y-13069D01*
X30460Y-13500D02*
X31000Y-13500D01*
X27040Y-18580D02*
X27040Y-15760D01*
X27040Y-15760D02*
X28340Y-14460D01*
X28340Y-14460D02*
X29560Y-14460D01*
X27420Y-18960D02*
X27040Y-18580D01*
X29894Y-14126D02*
X29894Y-13069D01*
X30029Y-13069D02*
X30460Y-13500D01*
X25980Y-18340D02*
X25980Y-14740D01*
X26440Y-18800D02*
X25980Y-18340D01*
X25980Y-14740D02*
X26500Y-14220D01*
X23160Y-18860D02*
X22540Y-18860D01*
X24180Y-19880D02*
X23160Y-18860D01*
X35400Y-14900D02*
X34960Y-14900D01*
X13650Y-16250D02*
X13650Y-15190D01*
X38946Y-19894D02*
X39340Y-19500D01*
X31000Y-12900D02*
X31000Y-12340D01*
X19420Y-19380D02*
X19460Y-19340D01*
X19420Y-20040D02*
X19420Y-19380D01*
X16360Y-19060D02*
X17140Y-19060D01*
X27660Y-20240D02*
X27660Y-20880D01*
X31000Y-12340D02*
X30900Y-12240D01*
X37681Y-19894D02*
X38946Y-19894D01*
X29744Y-18304D02*
X30224Y-18304D01*
X28128Y-17148D02*
X28180Y-17200D01*
X34960Y-14900D02*
X34740Y-15120D01*
X29744Y-18304D02*
X29580Y-18140D01*
X27660Y-20240D02*
X27700Y-20200D01*
X13650Y-16250D02*
X13650Y-14650D01*
X13650Y-16250D02*
X15450Y-16250D01*
X13650Y-15630D02*
X12360Y-14340D01*
X13650Y-15190D02*
X14340Y-14500D01*
X28128Y-17148D02*
X28128Y-16484D01*
X13650Y-16250D02*
X11950Y-16250D01*
X13650Y-16250D02*
X13650Y-15630D01*
X13650Y-14650D02*
X13220Y-14220D01*
X15450Y-16250D02*
X15620Y-16420D01*
X11950Y-16250D02*
X11580Y-16620D01*
X29960Y-22620D02*
X29800Y-22780D01*
X30800Y-22420D02*
X30600Y-22620D01*
X30600Y-22620D02*
X29960Y-22620D01*
X29800Y-22780D02*
X29800Y-24000D01*
X25720Y-17060D02*
X23380Y-14720D01*
X16340Y-14720D02*
X15660Y-14040D01*
X30240Y-23080D02*
X30520Y-22800D01*
X32600Y-22800D02*
X35100Y-22800D01*
X30520Y-22800D02*
X32600Y-22800D01*
X35100Y-22800D02*
X35920Y-21980D01*
X28040Y-21580D02*
X26620Y-21580D01*
X36674Y-19106D02*
X37681Y-19106D01*
X32600Y-22800D02*
X33800Y-24000D01*
X25720Y-20680D02*
X25720Y-17060D01*
X35920Y-21980D02*
X35920Y-19860D01*
X15660Y-14040D02*
X15660Y-13840D01*
X35920Y-19860D02*
X36674Y-19106D01*
X23380Y-14720D02*
X16600Y-14720D01*
X16600Y-14720D02*
X16340Y-14720D01*
X35100Y-22800D02*
X35100Y-23320D01*
X28920Y-22460D02*
X28040Y-21580D01*
X26620Y-21580D02*
X25720Y-20680D01*
X20606Y-21681D02*
X20606Y-21094D01*
X22240Y-20934D02*
X22240Y-21300D01*
X21918Y-20612D02*
X22240Y-20934D01*
X21088Y-20612D02*
X21918Y-20612D01*
X20606Y-21094D02*
X21088Y-20612D01*
X16606Y-21681D02*
X16606Y-21074D01*
X17220Y-20460D02*
X21980Y-20460D01*
X21980Y-20460D02*
X25180Y-23660D01*
X16606Y-21074D02*
X17220Y-20460D01*
X22840Y-22860D02*
X24040Y-24060D01*
X20640Y-23340D02*
X21240Y-23340D01*
X21720Y-22860D02*
X22840Y-22860D01*
X21240Y-23340D02*
X21720Y-22860D01*
X17240Y-23340D02*
X18320Y-22260D01*
X24040Y-24060D02*
X27180Y-24060D01*
X12606Y-21681D02*
X12606Y-22566D01*
X19560Y-22260D02*
X20640Y-23340D01*
X12606Y-22566D02*
X12880Y-22840D01*
X12880Y-22840D02*
X14140Y-22840D01*
X14140Y-22840D02*
X14840Y-22140D01*
X14840Y-22140D02*
X15440Y-22140D01*
X16640Y-23340D02*
X17240Y-23340D01*
X18320Y-22260D02*
X19560Y-22260D01*
X15440Y-22140D02*
X16640Y-23340D01*
X17580Y-16820D02*
X19840Y-16820D01*
X16440Y-17960D02*
X17580Y-16820D01*
X14540Y-17960D02*
X16440Y-17960D01*
X13320Y-19180D02*
X14540Y-17960D01*
X29200Y-18600D02*
X31620Y-18600D01*
X29140Y-18540D02*
X29200Y-18600D01*
X31620Y-18600D02*
X32660Y-19640D01*
X23320Y-16040D02*
X23020Y-15740D01*
X23020Y-15740D02*
X17580Y-15740D01*
G54D24*
X37850Y-16250D02*
X37850Y-18110D01*
X37850Y-18110D02*
X38020Y-18280D01*
G54D23*
X34606Y-13069D02*
X34069Y-13069D01*
X28260Y-20260D02*
X28280Y-20240D01*
X18820Y-19440D02*
X18880Y-19380D01*
X13581Y-21681D02*
X13980Y-22080D01*
X29106Y-13069D02*
X29106Y-12234D01*
X34069Y-13069D02*
X33980Y-12980D01*
X16360Y-18460D02*
X17080Y-18460D01*
X17394Y-21681D02*
X17394Y-22426D01*
X29636Y-18904D02*
X30224Y-18904D01*
X29636Y-18904D02*
X29520Y-19020D01*
X27528Y-17148D02*
X27540Y-17160D01*
X27528Y-17148D02*
X27528Y-16484D01*
X21394Y-22346D02*
X20920Y-22820D01*
X28260Y-20880D02*
X28260Y-20260D01*
X17394Y-22426D02*
X17000Y-22820D01*
X21394Y-21681D02*
X21394Y-22346D01*
X13394Y-21681D02*
X13581Y-21681D01*
X29106Y-12234D02*
X29500Y-11840D01*
X17080Y-18460D02*
X17180Y-18360D01*
X18820Y-20040D02*
X18820Y-19440D01*
M02*
