G04 (created by PCBNEW-RS274X (2012-01-19 BZR 3256)-stable) date 5/26/2013 3:34:06 PM*
G01*
G70*
G90*
%MOIN*%
G04 Gerber Fmt 3.4, Leading zero omitted, Abs format*
%FSLAX34Y34*%
G04 APERTURE LIST*
%ADD10C,0.006000*%
%ADD11R,0.045000X0.065000*%
%ADD12R,0.065000X0.045000*%
%ADD13R,0.080000X0.080000*%
%ADD14C,0.080000*%
%ADD15R,0.098700X0.035700*%
%ADD16R,0.039700X0.079100*%
%ADD17R,0.079100X0.039700*%
%ADD18R,0.050000X0.050000*%
%ADD19R,0.050000X0.040000*%
%ADD20R,0.059400X0.157800*%
%ADD21R,0.079100X0.153900*%
%ADD22R,0.157800X0.059400*%
%ADD23R,0.153900X0.079100*%
%ADD24C,0.180000*%
%ADD25C,0.130000*%
%ADD26R,0.059400X0.047600*%
%ADD27R,0.071200X0.051500*%
%ADD28R,0.051500X0.071200*%
G04 APERTURE END LIST*
G54D10*
G54D11*
X37062Y-15026D03*
X36462Y-15026D03*
G54D12*
X36230Y-17630D03*
X36230Y-18230D03*
G54D11*
X34672Y-18152D03*
X35272Y-18152D03*
X23178Y-19076D03*
X23778Y-19076D03*
G54D12*
X28200Y-23100D03*
X28200Y-22500D03*
X33400Y-21100D03*
X33400Y-21700D03*
X34600Y-21700D03*
X34600Y-21100D03*
G54D11*
X37280Y-14340D03*
X37880Y-14340D03*
G54D12*
X13200Y-15700D03*
X13200Y-15100D03*
X32750Y-14200D03*
X32750Y-14800D03*
X25800Y-14100D03*
X25800Y-14700D03*
X31960Y-17996D03*
X31960Y-18596D03*
G54D13*
X33800Y-24000D03*
G54D14*
X32800Y-24000D03*
X31800Y-24000D03*
X30800Y-24000D03*
X29800Y-24000D03*
G54D15*
X33141Y-17956D03*
X33141Y-18350D03*
X33141Y-18744D03*
G54D16*
X26427Y-16497D03*
X26742Y-16497D03*
X27057Y-16497D03*
X27372Y-16497D03*
X27687Y-16497D03*
X28002Y-16497D03*
X28317Y-16497D03*
X28632Y-16497D03*
X28947Y-16497D03*
X29262Y-16497D03*
X29577Y-16497D03*
G54D17*
X30245Y-20318D03*
X30245Y-20003D03*
X30245Y-19688D03*
X30245Y-19373D03*
X30245Y-19058D03*
X30245Y-18743D03*
X30245Y-18428D03*
X30245Y-18113D03*
X30245Y-17798D03*
X30245Y-17483D03*
X30245Y-17168D03*
G54D16*
X29577Y-20907D03*
X29262Y-20907D03*
X28947Y-20907D03*
X28632Y-20907D03*
X28317Y-20907D03*
X28002Y-20907D03*
X27687Y-20907D03*
X27372Y-20907D03*
X27057Y-20907D03*
X26742Y-20907D03*
X26427Y-20907D03*
G54D17*
X25756Y-17168D03*
X25756Y-17483D03*
X25756Y-17798D03*
X25756Y-18113D03*
X25756Y-18428D03*
X25756Y-18743D03*
X25756Y-19058D03*
X25756Y-19373D03*
X25756Y-19688D03*
X25756Y-20003D03*
X25756Y-20318D03*
G54D11*
X23100Y-20400D03*
X23700Y-20400D03*
G54D12*
X24200Y-23100D03*
X24200Y-22500D03*
X25200Y-23100D03*
X25200Y-22500D03*
X26200Y-23100D03*
X26200Y-22500D03*
X27200Y-23100D03*
X27200Y-22500D03*
G54D18*
X36800Y-19400D03*
X37170Y-20300D03*
X36430Y-20300D03*
G54D11*
X33614Y-16380D03*
X33014Y-16380D03*
X35700Y-24000D03*
X35100Y-24000D03*
G54D12*
X15000Y-13700D03*
X15000Y-14300D03*
X14500Y-19050D03*
X14500Y-18450D03*
G54D11*
X23700Y-15000D03*
X24300Y-15000D03*
G54D12*
X35400Y-19500D03*
X35400Y-20100D03*
G54D19*
X35500Y-17125D03*
X35500Y-16375D03*
X34500Y-17125D03*
X35500Y-16750D03*
X34500Y-16375D03*
G54D20*
X14606Y-21681D03*
X15394Y-21681D03*
G54D21*
X13681Y-23846D03*
X16319Y-23846D03*
G54D20*
X18606Y-21681D03*
X19394Y-21681D03*
G54D21*
X17681Y-23846D03*
X20319Y-23846D03*
G54D20*
X27144Y-13069D03*
X26356Y-13069D03*
G54D21*
X28069Y-10904D03*
X25431Y-10904D03*
G54D20*
X32644Y-13069D03*
X31856Y-13069D03*
G54D21*
X33569Y-10904D03*
X30931Y-10904D03*
G54D20*
X38144Y-13069D03*
X37356Y-13069D03*
G54D21*
X39069Y-10904D03*
X36431Y-10904D03*
G54D22*
X37681Y-17144D03*
X37681Y-16356D03*
G54D23*
X39846Y-18069D03*
X39846Y-15431D03*
G54D22*
X37681Y-22644D03*
X37681Y-21856D03*
G54D23*
X39846Y-23569D03*
X39846Y-20931D03*
G54D22*
X13069Y-20606D03*
X13069Y-21394D03*
G54D23*
X10904Y-19681D03*
X10904Y-22319D03*
G54D24*
X39750Y-14120D03*
X11000Y-14120D03*
G54D25*
X36350Y-13600D03*
G54D26*
X34280Y-20000D03*
X33280Y-20375D03*
X33280Y-19625D03*
G54D12*
X24000Y-17300D03*
X24000Y-17900D03*
G54D27*
X21638Y-18984D03*
X21638Y-18512D03*
X21638Y-18039D03*
X21638Y-17567D03*
X21638Y-17094D03*
X21638Y-16622D03*
X21638Y-16150D03*
X21638Y-15677D03*
X21638Y-15205D03*
X21638Y-14732D03*
X21638Y-14260D03*
X21638Y-13787D03*
X16362Y-13787D03*
X16362Y-14260D03*
X16362Y-14732D03*
X16362Y-15205D03*
X16362Y-15677D03*
X16362Y-16150D03*
X16362Y-16622D03*
X16362Y-17094D03*
X16362Y-17567D03*
X16362Y-18039D03*
X16362Y-18512D03*
X16362Y-18984D03*
G54D28*
X17386Y-20087D03*
X17858Y-20087D03*
X18331Y-20087D03*
X18803Y-20087D03*
X19276Y-20087D03*
X19748Y-20087D03*
X20220Y-20087D03*
X20693Y-20087D03*
G54D22*
X13069Y-16606D03*
X13069Y-17394D03*
G54D23*
X10904Y-15681D03*
X10904Y-18319D03*
M02*
