G04 (created by PCBNEW-RS274X (2012-01-19 BZR 3256)-stable) date 5/26/2013 3:34:06 PM*
G01*
G70*
G90*
%MOIN*%
G04 Gerber Fmt 3.4, Leading zero omitted, Abs format*
%FSLAX34Y34*%
G04 APERTURE LIST*
%ADD10C,0.006000*%
%ADD11R,0.060000X0.060000*%
%ADD12C,0.060000*%
%ADD13C,0.160000*%
%ADD14C,0.110000*%
%ADD15C,0.050000*%
%ADD16C,0.007000*%
%ADD17C,0.010000*%
G04 APERTURE END LIST*
G54D10*
G54D11*
X33800Y-24000D03*
G54D12*
X32800Y-24000D03*
X31800Y-24000D03*
X30800Y-24000D03*
X29800Y-24000D03*
G54D13*
X39750Y-14120D03*
X11000Y-14120D03*
G54D14*
X36350Y-13600D03*
G54D15*
X29560Y-22460D03*
X36040Y-14520D03*
X28940Y-20120D03*
X28320Y-19120D03*
X31640Y-15120D03*
X27420Y-18960D03*
X26500Y-14220D03*
X26440Y-18800D03*
X22540Y-18860D03*
X24180Y-19880D03*
X26480Y-14960D03*
X35920Y-15800D03*
X28180Y-17200D03*
X15320Y-18760D03*
X24880Y-15160D03*
X33980Y-18340D03*
X38460Y-14220D03*
X39340Y-19500D03*
X36520Y-18740D03*
X34740Y-15120D03*
X34000Y-22060D03*
X32420Y-16360D03*
X32700Y-20260D03*
X14340Y-14500D03*
X13460Y-18060D03*
X19460Y-19340D03*
X32760Y-15340D03*
X35400Y-18840D03*
X17140Y-19060D03*
X24840Y-18560D03*
X17060Y-13980D03*
X36640Y-21120D03*
X34980Y-16740D03*
X23140Y-18420D03*
X29580Y-18140D03*
X27700Y-20200D03*
X36540Y-21860D03*
X37740Y-21260D03*
X17860Y-19400D03*
X15620Y-16420D03*
X12360Y-14340D03*
X30900Y-12240D03*
X13220Y-14220D03*
X11580Y-16620D03*
X20200Y-19360D03*
X30800Y-22420D03*
X35100Y-23320D03*
X15660Y-13840D03*
X28920Y-22460D03*
X30240Y-23080D03*
X22240Y-21300D03*
X25180Y-23660D03*
X27180Y-24060D03*
X19840Y-16820D03*
X13320Y-19180D03*
X32660Y-19640D03*
X29140Y-18540D03*
X17580Y-15740D03*
X23320Y-16040D03*
X38020Y-18280D03*
X35740Y-23320D03*
X33980Y-12980D03*
X34800Y-18840D03*
X29500Y-11840D03*
X34340Y-17540D03*
X24680Y-17800D03*
X18880Y-19380D03*
X33900Y-17140D03*
X13980Y-22080D03*
X33360Y-13000D03*
X27540Y-17160D03*
X15000Y-22820D03*
X28200Y-23700D03*
X17180Y-18360D03*
X37820Y-11620D03*
X29520Y-19020D03*
X28280Y-20240D03*
X20920Y-22820D03*
X17000Y-22820D03*
X13860Y-13920D03*
X18960Y-22820D03*
X26860Y-11760D03*
G54D16*
X11901Y-11576D02*
X12501Y-11576D01*
X12501Y-11576D02*
X12201Y-11876D01*
X12501Y-11576D02*
X12201Y-11276D01*
G54D10*
G36*
X40350Y-24350D02*
X39839Y-24350D01*
X39839Y-19599D01*
X39839Y-19401D01*
X39763Y-19218D01*
X39623Y-19077D01*
X39439Y-19001D01*
X39241Y-19001D01*
X39058Y-19077D01*
X38917Y-19217D01*
X38841Y-19401D01*
X38841Y-19599D01*
X38917Y-19782D01*
X39057Y-19923D01*
X39241Y-19999D01*
X39439Y-19999D01*
X39622Y-19923D01*
X39763Y-19783D01*
X39839Y-19599D01*
X39839Y-24350D01*
X38519Y-24350D01*
X38519Y-18379D01*
X38519Y-18181D01*
X38443Y-17998D01*
X38303Y-17857D01*
X38119Y-17781D01*
X37921Y-17781D01*
X37738Y-17857D01*
X37597Y-17997D01*
X37521Y-18181D01*
X37521Y-18379D01*
X37597Y-18562D01*
X37737Y-18703D01*
X37921Y-18779D01*
X38119Y-18779D01*
X38302Y-18703D01*
X38443Y-18563D01*
X38519Y-18379D01*
X38519Y-24350D01*
X38239Y-24350D01*
X38239Y-21359D01*
X38239Y-21161D01*
X38163Y-20978D01*
X38023Y-20837D01*
X37839Y-20761D01*
X37641Y-20761D01*
X37458Y-20837D01*
X37317Y-20977D01*
X37241Y-21161D01*
X37241Y-21359D01*
X37317Y-21542D01*
X37457Y-21683D01*
X37641Y-21759D01*
X37839Y-21759D01*
X38022Y-21683D01*
X38163Y-21543D01*
X38239Y-21359D01*
X38239Y-24350D01*
X37149Y-24350D01*
X37149Y-13760D01*
X37149Y-13442D01*
X37028Y-13148D01*
X36803Y-12923D01*
X36510Y-12801D01*
X36192Y-12801D01*
X35898Y-12922D01*
X35673Y-13147D01*
X35551Y-13440D01*
X35551Y-13758D01*
X35672Y-14052D01*
X35737Y-14117D01*
X35617Y-14237D01*
X35541Y-14421D01*
X35541Y-14619D01*
X35617Y-14802D01*
X35757Y-14943D01*
X35941Y-15019D01*
X36139Y-15019D01*
X36322Y-14943D01*
X36463Y-14803D01*
X36539Y-14619D01*
X36539Y-14421D01*
X36526Y-14391D01*
X36802Y-14278D01*
X37027Y-14053D01*
X37149Y-13760D01*
X37149Y-24350D01*
X37139Y-24350D01*
X37139Y-21219D01*
X37139Y-21021D01*
X37063Y-20838D01*
X37019Y-20793D01*
X37019Y-18839D01*
X37019Y-18641D01*
X36943Y-18458D01*
X36803Y-18317D01*
X36619Y-18241D01*
X36421Y-18241D01*
X36419Y-18241D01*
X36419Y-15899D01*
X36419Y-15701D01*
X36343Y-15518D01*
X36203Y-15377D01*
X36019Y-15301D01*
X35821Y-15301D01*
X35638Y-15377D01*
X35497Y-15517D01*
X35421Y-15701D01*
X35421Y-15899D01*
X35497Y-16082D01*
X35637Y-16223D01*
X35821Y-16299D01*
X36019Y-16299D01*
X36202Y-16223D01*
X36343Y-16083D01*
X36419Y-15899D01*
X36419Y-18241D01*
X36238Y-18317D01*
X36097Y-18457D01*
X36021Y-18641D01*
X36021Y-18839D01*
X36097Y-19022D01*
X36237Y-19163D01*
X36421Y-19239D01*
X36619Y-19239D01*
X36802Y-19163D01*
X36943Y-19023D01*
X37019Y-18839D01*
X37019Y-20793D01*
X36923Y-20697D01*
X36739Y-20621D01*
X36541Y-20621D01*
X36358Y-20697D01*
X36217Y-20837D01*
X36141Y-21021D01*
X36141Y-21219D01*
X36217Y-21402D01*
X36254Y-21440D01*
X36117Y-21577D01*
X36041Y-21761D01*
X36041Y-21959D01*
X36117Y-22142D01*
X36257Y-22283D01*
X36441Y-22359D01*
X36639Y-22359D01*
X36822Y-22283D01*
X36963Y-22143D01*
X37039Y-21959D01*
X37039Y-21761D01*
X36963Y-21578D01*
X36925Y-21539D01*
X37063Y-21403D01*
X37139Y-21219D01*
X37139Y-24350D01*
X35899Y-24350D01*
X35899Y-18939D01*
X35899Y-18741D01*
X35823Y-18558D01*
X35683Y-18417D01*
X35499Y-18341D01*
X35479Y-18341D01*
X35479Y-16839D01*
X35479Y-16641D01*
X35403Y-16458D01*
X35263Y-16317D01*
X35239Y-16307D01*
X35239Y-15219D01*
X35239Y-15021D01*
X35163Y-14838D01*
X35023Y-14697D01*
X34839Y-14621D01*
X34641Y-14621D01*
X34458Y-14697D01*
X34317Y-14837D01*
X34241Y-15021D01*
X34241Y-15219D01*
X34317Y-15402D01*
X34457Y-15543D01*
X34641Y-15619D01*
X34839Y-15619D01*
X35022Y-15543D01*
X35163Y-15403D01*
X35239Y-15219D01*
X35239Y-16307D01*
X35079Y-16241D01*
X34881Y-16241D01*
X34698Y-16317D01*
X34557Y-16457D01*
X34481Y-16641D01*
X34481Y-16839D01*
X34557Y-17022D01*
X34697Y-17163D01*
X34881Y-17239D01*
X35079Y-17239D01*
X35262Y-17163D01*
X35403Y-17023D01*
X35479Y-16839D01*
X35479Y-18341D01*
X35301Y-18341D01*
X35118Y-18417D01*
X34977Y-18557D01*
X34901Y-18741D01*
X34901Y-18939D01*
X34977Y-19122D01*
X35117Y-19263D01*
X35301Y-19339D01*
X35499Y-19339D01*
X35682Y-19263D01*
X35823Y-19123D01*
X35899Y-18939D01*
X35899Y-24350D01*
X35599Y-24350D01*
X35599Y-23419D01*
X35599Y-23221D01*
X35523Y-23038D01*
X35383Y-22897D01*
X35199Y-22821D01*
X35001Y-22821D01*
X34818Y-22897D01*
X34677Y-23037D01*
X34601Y-23221D01*
X34601Y-23419D01*
X34677Y-23602D01*
X34817Y-23743D01*
X35001Y-23819D01*
X35199Y-23819D01*
X35382Y-23743D01*
X35523Y-23603D01*
X35599Y-23419D01*
X35599Y-24350D01*
X34499Y-24350D01*
X34499Y-22159D01*
X34499Y-21961D01*
X34479Y-21912D01*
X34479Y-18439D01*
X34479Y-18241D01*
X34403Y-18058D01*
X34263Y-17917D01*
X34079Y-17841D01*
X33881Y-17841D01*
X33698Y-17917D01*
X33557Y-18057D01*
X33481Y-18241D01*
X33481Y-18439D01*
X33557Y-18622D01*
X33697Y-18763D01*
X33881Y-18839D01*
X34079Y-18839D01*
X34262Y-18763D01*
X34403Y-18623D01*
X34479Y-18439D01*
X34479Y-21912D01*
X34423Y-21778D01*
X34283Y-21637D01*
X34099Y-21561D01*
X33901Y-21561D01*
X33718Y-21637D01*
X33577Y-21777D01*
X33501Y-21961D01*
X33501Y-22159D01*
X33577Y-22342D01*
X33717Y-22483D01*
X33901Y-22559D01*
X34099Y-22559D01*
X34282Y-22483D01*
X34423Y-22343D01*
X34499Y-22159D01*
X34499Y-24350D01*
X34349Y-24350D01*
X34349Y-24251D01*
X34349Y-23651D01*
X34311Y-23559D01*
X34241Y-23489D01*
X34150Y-23451D01*
X34051Y-23451D01*
X33451Y-23451D01*
X33359Y-23489D01*
X33289Y-23559D01*
X33259Y-23630D01*
X33259Y-15439D01*
X33259Y-15241D01*
X33183Y-15058D01*
X33043Y-14917D01*
X32859Y-14841D01*
X32661Y-14841D01*
X32478Y-14917D01*
X32337Y-15057D01*
X32261Y-15241D01*
X32261Y-15439D01*
X32337Y-15622D01*
X32477Y-15763D01*
X32661Y-15839D01*
X32859Y-15839D01*
X33042Y-15763D01*
X33183Y-15623D01*
X33259Y-15439D01*
X33259Y-23630D01*
X33251Y-23650D01*
X33251Y-23712D01*
X33199Y-23697D01*
X33199Y-20359D01*
X33199Y-20161D01*
X33123Y-19978D01*
X33075Y-19930D01*
X33083Y-19923D01*
X33159Y-19739D01*
X33159Y-19541D01*
X33083Y-19358D01*
X32943Y-19217D01*
X32919Y-19207D01*
X32919Y-16459D01*
X32919Y-16261D01*
X32843Y-16078D01*
X32703Y-15937D01*
X32519Y-15861D01*
X32321Y-15861D01*
X32139Y-15936D01*
X32139Y-15219D01*
X32139Y-15021D01*
X32063Y-14838D01*
X31923Y-14697D01*
X31739Y-14621D01*
X31541Y-14621D01*
X31399Y-14679D01*
X31399Y-12339D01*
X31399Y-12141D01*
X31323Y-11958D01*
X31183Y-11817D01*
X30999Y-11741D01*
X30801Y-11741D01*
X30618Y-11817D01*
X30477Y-11957D01*
X30401Y-12141D01*
X30401Y-12339D01*
X30477Y-12522D01*
X30617Y-12663D01*
X30801Y-12739D01*
X30999Y-12739D01*
X31182Y-12663D01*
X31323Y-12523D01*
X31399Y-12339D01*
X31399Y-14679D01*
X31358Y-14697D01*
X31217Y-14837D01*
X31141Y-15021D01*
X31141Y-15219D01*
X31217Y-15402D01*
X31357Y-15543D01*
X31541Y-15619D01*
X31739Y-15619D01*
X31922Y-15543D01*
X32063Y-15403D01*
X32139Y-15219D01*
X32139Y-15936D01*
X32138Y-15937D01*
X31997Y-16077D01*
X31921Y-16261D01*
X31921Y-16459D01*
X31997Y-16642D01*
X32137Y-16783D01*
X32321Y-16859D01*
X32519Y-16859D01*
X32702Y-16783D01*
X32843Y-16643D01*
X32919Y-16459D01*
X32919Y-19207D01*
X32759Y-19141D01*
X32561Y-19141D01*
X32378Y-19217D01*
X32237Y-19357D01*
X32161Y-19541D01*
X32161Y-19739D01*
X32237Y-19922D01*
X32284Y-19969D01*
X32277Y-19977D01*
X32201Y-20161D01*
X32201Y-20359D01*
X32277Y-20542D01*
X32417Y-20683D01*
X32601Y-20759D01*
X32799Y-20759D01*
X32982Y-20683D01*
X33123Y-20543D01*
X33199Y-20359D01*
X33199Y-23697D01*
X33178Y-23692D01*
X33108Y-23762D01*
X33108Y-23622D01*
X33081Y-23528D01*
X32879Y-23457D01*
X32666Y-23468D01*
X32519Y-23528D01*
X32492Y-23622D01*
X32800Y-23929D01*
X33108Y-23622D01*
X33108Y-23762D01*
X32871Y-24000D01*
X32800Y-24071D01*
X32729Y-24000D01*
X32694Y-23965D01*
X32422Y-23692D01*
X32328Y-23719D01*
X32304Y-23784D01*
X32265Y-23689D01*
X32111Y-23535D01*
X31909Y-23451D01*
X31691Y-23451D01*
X31489Y-23535D01*
X31335Y-23689D01*
X31300Y-23773D01*
X31265Y-23689D01*
X31111Y-23535D01*
X30909Y-23451D01*
X30691Y-23451D01*
X30489Y-23535D01*
X30335Y-23689D01*
X30300Y-23773D01*
X30265Y-23689D01*
X30155Y-23579D01*
X30339Y-23579D01*
X30522Y-23503D01*
X30663Y-23363D01*
X30739Y-23179D01*
X30739Y-22981D01*
X30713Y-22919D01*
X30899Y-22919D01*
X31082Y-22843D01*
X31223Y-22703D01*
X31299Y-22519D01*
X31299Y-22321D01*
X31223Y-22138D01*
X31083Y-21997D01*
X30899Y-21921D01*
X30701Y-21921D01*
X30518Y-21997D01*
X30377Y-22137D01*
X30301Y-22321D01*
X30301Y-22519D01*
X30326Y-22581D01*
X30141Y-22581D01*
X30079Y-22606D01*
X30079Y-18239D01*
X30079Y-18041D01*
X30003Y-17858D01*
X29863Y-17717D01*
X29679Y-17641D01*
X29481Y-17641D01*
X29298Y-17717D01*
X29157Y-17857D01*
X29081Y-18041D01*
X29041Y-18041D01*
X28858Y-18117D01*
X28717Y-18257D01*
X28679Y-18349D01*
X28679Y-17299D01*
X28679Y-17101D01*
X28603Y-16918D01*
X28463Y-16777D01*
X28279Y-16701D01*
X28081Y-16701D01*
X27898Y-16777D01*
X27757Y-16917D01*
X27681Y-17101D01*
X27681Y-17299D01*
X27757Y-17482D01*
X27897Y-17623D01*
X28081Y-17699D01*
X28279Y-17699D01*
X28462Y-17623D01*
X28603Y-17483D01*
X28679Y-17299D01*
X28679Y-18349D01*
X28641Y-18441D01*
X28641Y-18639D01*
X28709Y-18804D01*
X28603Y-18697D01*
X28419Y-18621D01*
X28221Y-18621D01*
X28038Y-18697D01*
X27905Y-18828D01*
X27843Y-18678D01*
X27703Y-18537D01*
X27519Y-18461D01*
X27321Y-18461D01*
X27138Y-18537D01*
X26999Y-18675D01*
X26999Y-14319D01*
X26999Y-14121D01*
X26923Y-13938D01*
X26783Y-13797D01*
X26599Y-13721D01*
X26401Y-13721D01*
X26218Y-13797D01*
X26077Y-13937D01*
X26001Y-14121D01*
X26001Y-14319D01*
X26077Y-14502D01*
X26154Y-14580D01*
X26057Y-14677D01*
X25981Y-14861D01*
X25981Y-15059D01*
X26057Y-15242D01*
X26197Y-15383D01*
X26381Y-15459D01*
X26579Y-15459D01*
X26762Y-15383D01*
X26903Y-15243D01*
X26979Y-15059D01*
X26979Y-14861D01*
X26903Y-14678D01*
X26825Y-14599D01*
X26923Y-14503D01*
X26999Y-14319D01*
X26999Y-18675D01*
X26997Y-18677D01*
X26939Y-18817D01*
X26939Y-18701D01*
X26863Y-18518D01*
X26723Y-18377D01*
X26539Y-18301D01*
X26341Y-18301D01*
X26158Y-18377D01*
X26017Y-18517D01*
X25941Y-18701D01*
X25941Y-18899D01*
X26017Y-19082D01*
X26157Y-19223D01*
X26341Y-19299D01*
X26539Y-19299D01*
X26722Y-19223D01*
X26863Y-19083D01*
X26921Y-18942D01*
X26921Y-19059D01*
X26997Y-19242D01*
X27137Y-19383D01*
X27321Y-19459D01*
X27519Y-19459D01*
X27702Y-19383D01*
X27834Y-19251D01*
X27897Y-19402D01*
X28037Y-19543D01*
X28221Y-19619D01*
X28419Y-19619D01*
X28602Y-19543D01*
X28743Y-19403D01*
X28819Y-19219D01*
X28819Y-19021D01*
X28750Y-18855D01*
X28857Y-18963D01*
X29041Y-19039D01*
X29239Y-19039D01*
X29422Y-18963D01*
X29563Y-18823D01*
X29639Y-18639D01*
X29679Y-18639D01*
X29862Y-18563D01*
X30003Y-18423D01*
X30079Y-18239D01*
X30079Y-22606D01*
X30031Y-22626D01*
X30059Y-22559D01*
X30059Y-22361D01*
X29983Y-22178D01*
X29843Y-22037D01*
X29659Y-21961D01*
X29461Y-21961D01*
X29439Y-21970D01*
X29439Y-20219D01*
X29439Y-20021D01*
X29363Y-19838D01*
X29223Y-19697D01*
X29039Y-19621D01*
X28841Y-19621D01*
X28658Y-19697D01*
X28517Y-19837D01*
X28441Y-20021D01*
X28441Y-20219D01*
X28517Y-20402D01*
X28657Y-20543D01*
X28841Y-20619D01*
X29039Y-20619D01*
X29222Y-20543D01*
X29363Y-20403D01*
X29439Y-20219D01*
X29439Y-21970D01*
X29278Y-22037D01*
X29240Y-22074D01*
X29203Y-22037D01*
X29019Y-21961D01*
X28821Y-21961D01*
X28638Y-22037D01*
X28497Y-22177D01*
X28421Y-22361D01*
X28421Y-22559D01*
X28497Y-22742D01*
X28637Y-22883D01*
X28821Y-22959D01*
X29019Y-22959D01*
X29202Y-22883D01*
X29239Y-22845D01*
X29277Y-22883D01*
X29461Y-22959D01*
X29659Y-22959D01*
X29768Y-22913D01*
X29741Y-22981D01*
X29741Y-23179D01*
X29817Y-23362D01*
X29905Y-23451D01*
X29691Y-23451D01*
X29489Y-23535D01*
X29335Y-23689D01*
X29251Y-23891D01*
X29251Y-24109D01*
X29335Y-24311D01*
X29374Y-24350D01*
X28199Y-24350D01*
X28199Y-20299D01*
X28199Y-20101D01*
X28123Y-19918D01*
X27983Y-19777D01*
X27799Y-19701D01*
X27601Y-19701D01*
X27418Y-19777D01*
X27277Y-19917D01*
X27201Y-20101D01*
X27201Y-20299D01*
X27277Y-20482D01*
X27417Y-20623D01*
X27601Y-20699D01*
X27799Y-20699D01*
X27982Y-20623D01*
X28123Y-20483D01*
X28199Y-20299D01*
X28199Y-24350D01*
X27595Y-24350D01*
X27603Y-24343D01*
X27679Y-24159D01*
X27679Y-23961D01*
X27603Y-23778D01*
X27463Y-23637D01*
X27279Y-23561D01*
X27081Y-23561D01*
X26898Y-23637D01*
X26757Y-23777D01*
X26681Y-23961D01*
X26681Y-24159D01*
X26757Y-24342D01*
X26764Y-24350D01*
X25679Y-24350D01*
X25679Y-23759D01*
X25679Y-23561D01*
X25603Y-23378D01*
X25463Y-23237D01*
X25379Y-23202D01*
X25379Y-15259D01*
X25379Y-15061D01*
X25303Y-14878D01*
X25163Y-14737D01*
X24979Y-14661D01*
X24781Y-14661D01*
X24598Y-14737D01*
X24457Y-14877D01*
X24381Y-15061D01*
X24381Y-15259D01*
X24457Y-15442D01*
X24597Y-15583D01*
X24781Y-15659D01*
X24979Y-15659D01*
X25162Y-15583D01*
X25303Y-15443D01*
X25379Y-15259D01*
X25379Y-23202D01*
X25339Y-23185D01*
X25339Y-18659D01*
X25339Y-18461D01*
X25263Y-18278D01*
X25123Y-18137D01*
X24939Y-18061D01*
X24741Y-18061D01*
X24558Y-18137D01*
X24417Y-18277D01*
X24341Y-18461D01*
X24341Y-18659D01*
X24417Y-18842D01*
X24557Y-18983D01*
X24741Y-19059D01*
X24939Y-19059D01*
X25122Y-18983D01*
X25263Y-18843D01*
X25339Y-18659D01*
X25339Y-23185D01*
X25279Y-23161D01*
X25081Y-23161D01*
X24898Y-23237D01*
X24757Y-23377D01*
X24681Y-23561D01*
X24681Y-23759D01*
X24757Y-23942D01*
X24897Y-24083D01*
X25081Y-24159D01*
X25279Y-24159D01*
X25462Y-24083D01*
X25603Y-23943D01*
X25679Y-23759D01*
X25679Y-24350D01*
X24679Y-24350D01*
X24679Y-19979D01*
X24679Y-19781D01*
X24603Y-19598D01*
X24463Y-19457D01*
X24279Y-19381D01*
X24081Y-19381D01*
X23898Y-19457D01*
X23819Y-19535D01*
X23819Y-16139D01*
X23819Y-15941D01*
X23743Y-15758D01*
X23603Y-15617D01*
X23419Y-15541D01*
X23221Y-15541D01*
X23038Y-15617D01*
X22897Y-15757D01*
X22821Y-15941D01*
X22821Y-16139D01*
X22897Y-16322D01*
X23037Y-16463D01*
X23221Y-16539D01*
X23419Y-16539D01*
X23602Y-16463D01*
X23743Y-16323D01*
X23819Y-16139D01*
X23819Y-19535D01*
X23757Y-19597D01*
X23681Y-19781D01*
X23681Y-19979D01*
X23757Y-20162D01*
X23897Y-20303D01*
X24081Y-20379D01*
X24279Y-20379D01*
X24462Y-20303D01*
X24603Y-20163D01*
X24679Y-19979D01*
X24679Y-24350D01*
X23639Y-24350D01*
X23639Y-18519D01*
X23639Y-18321D01*
X23563Y-18138D01*
X23423Y-17997D01*
X23239Y-17921D01*
X23041Y-17921D01*
X22858Y-17997D01*
X22717Y-18137D01*
X22641Y-18321D01*
X22641Y-18361D01*
X22639Y-18361D01*
X22441Y-18361D01*
X22258Y-18437D01*
X22117Y-18577D01*
X22041Y-18761D01*
X22041Y-18959D01*
X22117Y-19142D01*
X22257Y-19283D01*
X22441Y-19359D01*
X22639Y-19359D01*
X22822Y-19283D01*
X22963Y-19143D01*
X23039Y-18959D01*
X23039Y-18918D01*
X23041Y-18919D01*
X23239Y-18919D01*
X23422Y-18843D01*
X23563Y-18703D01*
X23639Y-18519D01*
X23639Y-24350D01*
X22739Y-24350D01*
X22739Y-21399D01*
X22739Y-21201D01*
X22663Y-21018D01*
X22523Y-20877D01*
X22339Y-20801D01*
X22141Y-20801D01*
X21958Y-20877D01*
X21817Y-21017D01*
X21741Y-21201D01*
X21741Y-21399D01*
X21817Y-21582D01*
X21957Y-21723D01*
X22141Y-21799D01*
X22339Y-21799D01*
X22522Y-21723D01*
X22663Y-21583D01*
X22739Y-21399D01*
X22739Y-24350D01*
X20699Y-24350D01*
X20699Y-19459D01*
X20699Y-19261D01*
X20623Y-19078D01*
X20483Y-18937D01*
X20339Y-18877D01*
X20339Y-16919D01*
X20339Y-16721D01*
X20263Y-16538D01*
X20123Y-16397D01*
X19939Y-16321D01*
X19741Y-16321D01*
X19558Y-16397D01*
X19417Y-16537D01*
X19341Y-16721D01*
X19341Y-16919D01*
X19417Y-17102D01*
X19557Y-17243D01*
X19741Y-17319D01*
X19939Y-17319D01*
X20122Y-17243D01*
X20263Y-17103D01*
X20339Y-16919D01*
X20339Y-18877D01*
X20299Y-18861D01*
X20101Y-18861D01*
X19918Y-18937D01*
X19839Y-19014D01*
X19743Y-18917D01*
X19559Y-18841D01*
X19361Y-18841D01*
X19178Y-18917D01*
X19037Y-19057D01*
X18961Y-19241D01*
X18961Y-19439D01*
X19037Y-19622D01*
X19177Y-19763D01*
X19361Y-19839D01*
X19559Y-19839D01*
X19742Y-19763D01*
X19820Y-19685D01*
X19917Y-19783D01*
X20101Y-19859D01*
X20299Y-19859D01*
X20482Y-19783D01*
X20623Y-19643D01*
X20699Y-19459D01*
X20699Y-24350D01*
X18359Y-24350D01*
X18359Y-19499D01*
X18359Y-19301D01*
X18283Y-19118D01*
X18143Y-18977D01*
X18079Y-18950D01*
X18079Y-15839D01*
X18079Y-15641D01*
X18003Y-15458D01*
X17863Y-15317D01*
X17679Y-15241D01*
X17559Y-15241D01*
X17559Y-14079D01*
X17559Y-13881D01*
X17483Y-13698D01*
X17343Y-13557D01*
X17159Y-13481D01*
X16961Y-13481D01*
X16778Y-13557D01*
X16637Y-13697D01*
X16561Y-13881D01*
X16561Y-14079D01*
X16637Y-14262D01*
X16777Y-14403D01*
X16961Y-14479D01*
X17159Y-14479D01*
X17342Y-14403D01*
X17483Y-14263D01*
X17559Y-14079D01*
X17559Y-15241D01*
X17481Y-15241D01*
X17298Y-15317D01*
X17157Y-15457D01*
X17081Y-15641D01*
X17081Y-15839D01*
X17157Y-16022D01*
X17297Y-16163D01*
X17481Y-16239D01*
X17679Y-16239D01*
X17862Y-16163D01*
X18003Y-16023D01*
X18079Y-15839D01*
X18079Y-18950D01*
X17959Y-18901D01*
X17761Y-18901D01*
X17635Y-18953D01*
X17563Y-18778D01*
X17423Y-18637D01*
X17239Y-18561D01*
X17041Y-18561D01*
X16858Y-18637D01*
X16717Y-18777D01*
X16641Y-18961D01*
X16641Y-19159D01*
X16717Y-19342D01*
X16857Y-19483D01*
X17041Y-19559D01*
X17239Y-19559D01*
X17364Y-19506D01*
X17437Y-19682D01*
X17577Y-19823D01*
X17761Y-19899D01*
X17959Y-19899D01*
X18142Y-19823D01*
X18283Y-19683D01*
X18359Y-19499D01*
X18359Y-24350D01*
X16119Y-24350D01*
X16119Y-16519D01*
X16119Y-16321D01*
X16043Y-16138D01*
X15903Y-15997D01*
X15719Y-15921D01*
X15521Y-15921D01*
X15338Y-15997D01*
X15197Y-16137D01*
X15121Y-16321D01*
X15121Y-16519D01*
X15197Y-16702D01*
X15337Y-16843D01*
X15521Y-16919D01*
X15719Y-16919D01*
X15902Y-16843D01*
X16043Y-16703D01*
X16119Y-16519D01*
X16119Y-24350D01*
X15819Y-24350D01*
X15819Y-18859D01*
X15819Y-18661D01*
X15743Y-18478D01*
X15603Y-18337D01*
X15419Y-18261D01*
X15221Y-18261D01*
X15038Y-18337D01*
X14897Y-18477D01*
X14839Y-18617D01*
X14839Y-14599D01*
X14839Y-14401D01*
X14763Y-14218D01*
X14623Y-14077D01*
X14439Y-14001D01*
X14241Y-14001D01*
X14058Y-14077D01*
X13917Y-14217D01*
X13841Y-14401D01*
X13841Y-14599D01*
X13917Y-14782D01*
X14057Y-14923D01*
X14241Y-14999D01*
X14439Y-14999D01*
X14622Y-14923D01*
X14763Y-14783D01*
X14839Y-14599D01*
X14839Y-18617D01*
X14821Y-18661D01*
X14821Y-18859D01*
X14897Y-19042D01*
X15037Y-19183D01*
X15221Y-19259D01*
X15419Y-19259D01*
X15602Y-19183D01*
X15743Y-19043D01*
X15819Y-18859D01*
X15819Y-24350D01*
X13959Y-24350D01*
X13959Y-18159D01*
X13959Y-17961D01*
X13883Y-17778D01*
X13743Y-17637D01*
X13559Y-17561D01*
X13361Y-17561D01*
X13178Y-17637D01*
X13037Y-17777D01*
X12961Y-17961D01*
X12961Y-18159D01*
X13037Y-18342D01*
X13177Y-18483D01*
X13361Y-18559D01*
X13559Y-18559D01*
X13742Y-18483D01*
X13883Y-18343D01*
X13959Y-18159D01*
X13959Y-24350D01*
X13819Y-24350D01*
X13819Y-19279D01*
X13819Y-19081D01*
X13743Y-18898D01*
X13603Y-18757D01*
X13419Y-18681D01*
X13221Y-18681D01*
X13038Y-18757D01*
X12897Y-18897D01*
X12821Y-19081D01*
X12821Y-19279D01*
X12897Y-19462D01*
X13037Y-19603D01*
X13221Y-19679D01*
X13419Y-19679D01*
X13602Y-19603D01*
X13743Y-19463D01*
X13819Y-19279D01*
X13819Y-24350D01*
X12079Y-24350D01*
X12079Y-16719D01*
X12079Y-16521D01*
X12003Y-16338D01*
X11863Y-16197D01*
X11679Y-16121D01*
X11481Y-16121D01*
X11298Y-16197D01*
X11157Y-16337D01*
X11081Y-16521D01*
X11081Y-16719D01*
X11157Y-16902D01*
X11297Y-17043D01*
X11481Y-17119D01*
X11679Y-17119D01*
X11862Y-17043D01*
X12003Y-16903D01*
X12079Y-16719D01*
X12079Y-24350D01*
X10450Y-24350D01*
X10450Y-15028D01*
X10790Y-15170D01*
X11208Y-15170D01*
X11594Y-15010D01*
X11890Y-14715D01*
X11932Y-14611D01*
X11937Y-14622D01*
X12077Y-14763D01*
X12261Y-14839D01*
X12459Y-14839D01*
X12642Y-14763D01*
X12783Y-14623D01*
X12822Y-14527D01*
X12937Y-14643D01*
X13121Y-14719D01*
X13319Y-14719D01*
X13502Y-14643D01*
X13643Y-14503D01*
X13719Y-14319D01*
X13719Y-14121D01*
X13643Y-13938D01*
X13503Y-13797D01*
X13319Y-13721D01*
X13121Y-13721D01*
X12938Y-13797D01*
X12797Y-13937D01*
X12757Y-14032D01*
X12643Y-13917D01*
X12459Y-13841D01*
X12261Y-13841D01*
X12078Y-13917D01*
X12050Y-13944D01*
X12050Y-13912D01*
X11890Y-13526D01*
X11814Y-13450D01*
X15344Y-13450D01*
X15237Y-13557D01*
X15161Y-13741D01*
X15161Y-13939D01*
X15237Y-14122D01*
X15377Y-14263D01*
X15561Y-14339D01*
X15759Y-14339D01*
X15942Y-14263D01*
X16083Y-14123D01*
X16159Y-13939D01*
X16159Y-13741D01*
X16083Y-13558D01*
X15975Y-13450D01*
X24650Y-13450D01*
X24650Y-10450D01*
X40350Y-10450D01*
X40350Y-13235D01*
X40345Y-13230D01*
X39960Y-13070D01*
X39542Y-13070D01*
X39156Y-13230D01*
X38860Y-13525D01*
X38745Y-13799D01*
X38743Y-13797D01*
X38559Y-13721D01*
X38361Y-13721D01*
X38178Y-13797D01*
X38037Y-13937D01*
X37961Y-14121D01*
X37961Y-14319D01*
X38037Y-14502D01*
X38177Y-14643D01*
X38361Y-14719D01*
X38559Y-14719D01*
X38742Y-14643D01*
X38804Y-14580D01*
X38860Y-14714D01*
X39155Y-15010D01*
X39540Y-15170D01*
X39958Y-15170D01*
X40344Y-15010D01*
X40350Y-15004D01*
X40350Y-24350D01*
X40350Y-24350D01*
G37*
G54D17*
X40350Y-24350D02*
X39839Y-24350D01*
X39839Y-19599D01*
X39839Y-19401D01*
X39763Y-19218D01*
X39623Y-19077D01*
X39439Y-19001D01*
X39241Y-19001D01*
X39058Y-19077D01*
X38917Y-19217D01*
X38841Y-19401D01*
X38841Y-19599D01*
X38917Y-19782D01*
X39057Y-19923D01*
X39241Y-19999D01*
X39439Y-19999D01*
X39622Y-19923D01*
X39763Y-19783D01*
X39839Y-19599D01*
X39839Y-24350D01*
X38519Y-24350D01*
X38519Y-18379D01*
X38519Y-18181D01*
X38443Y-17998D01*
X38303Y-17857D01*
X38119Y-17781D01*
X37921Y-17781D01*
X37738Y-17857D01*
X37597Y-17997D01*
X37521Y-18181D01*
X37521Y-18379D01*
X37597Y-18562D01*
X37737Y-18703D01*
X37921Y-18779D01*
X38119Y-18779D01*
X38302Y-18703D01*
X38443Y-18563D01*
X38519Y-18379D01*
X38519Y-24350D01*
X38239Y-24350D01*
X38239Y-21359D01*
X38239Y-21161D01*
X38163Y-20978D01*
X38023Y-20837D01*
X37839Y-20761D01*
X37641Y-20761D01*
X37458Y-20837D01*
X37317Y-20977D01*
X37241Y-21161D01*
X37241Y-21359D01*
X37317Y-21542D01*
X37457Y-21683D01*
X37641Y-21759D01*
X37839Y-21759D01*
X38022Y-21683D01*
X38163Y-21543D01*
X38239Y-21359D01*
X38239Y-24350D01*
X37149Y-24350D01*
X37149Y-13760D01*
X37149Y-13442D01*
X37028Y-13148D01*
X36803Y-12923D01*
X36510Y-12801D01*
X36192Y-12801D01*
X35898Y-12922D01*
X35673Y-13147D01*
X35551Y-13440D01*
X35551Y-13758D01*
X35672Y-14052D01*
X35737Y-14117D01*
X35617Y-14237D01*
X35541Y-14421D01*
X35541Y-14619D01*
X35617Y-14802D01*
X35757Y-14943D01*
X35941Y-15019D01*
X36139Y-15019D01*
X36322Y-14943D01*
X36463Y-14803D01*
X36539Y-14619D01*
X36539Y-14421D01*
X36526Y-14391D01*
X36802Y-14278D01*
X37027Y-14053D01*
X37149Y-13760D01*
X37149Y-24350D01*
X37139Y-24350D01*
X37139Y-21219D01*
X37139Y-21021D01*
X37063Y-20838D01*
X37019Y-20793D01*
X37019Y-18839D01*
X37019Y-18641D01*
X36943Y-18458D01*
X36803Y-18317D01*
X36619Y-18241D01*
X36421Y-18241D01*
X36419Y-18241D01*
X36419Y-15899D01*
X36419Y-15701D01*
X36343Y-15518D01*
X36203Y-15377D01*
X36019Y-15301D01*
X35821Y-15301D01*
X35638Y-15377D01*
X35497Y-15517D01*
X35421Y-15701D01*
X35421Y-15899D01*
X35497Y-16082D01*
X35637Y-16223D01*
X35821Y-16299D01*
X36019Y-16299D01*
X36202Y-16223D01*
X36343Y-16083D01*
X36419Y-15899D01*
X36419Y-18241D01*
X36238Y-18317D01*
X36097Y-18457D01*
X36021Y-18641D01*
X36021Y-18839D01*
X36097Y-19022D01*
X36237Y-19163D01*
X36421Y-19239D01*
X36619Y-19239D01*
X36802Y-19163D01*
X36943Y-19023D01*
X37019Y-18839D01*
X37019Y-20793D01*
X36923Y-20697D01*
X36739Y-20621D01*
X36541Y-20621D01*
X36358Y-20697D01*
X36217Y-20837D01*
X36141Y-21021D01*
X36141Y-21219D01*
X36217Y-21402D01*
X36254Y-21440D01*
X36117Y-21577D01*
X36041Y-21761D01*
X36041Y-21959D01*
X36117Y-22142D01*
X36257Y-22283D01*
X36441Y-22359D01*
X36639Y-22359D01*
X36822Y-22283D01*
X36963Y-22143D01*
X37039Y-21959D01*
X37039Y-21761D01*
X36963Y-21578D01*
X36925Y-21539D01*
X37063Y-21403D01*
X37139Y-21219D01*
X37139Y-24350D01*
X35899Y-24350D01*
X35899Y-18939D01*
X35899Y-18741D01*
X35823Y-18558D01*
X35683Y-18417D01*
X35499Y-18341D01*
X35479Y-18341D01*
X35479Y-16839D01*
X35479Y-16641D01*
X35403Y-16458D01*
X35263Y-16317D01*
X35239Y-16307D01*
X35239Y-15219D01*
X35239Y-15021D01*
X35163Y-14838D01*
X35023Y-14697D01*
X34839Y-14621D01*
X34641Y-14621D01*
X34458Y-14697D01*
X34317Y-14837D01*
X34241Y-15021D01*
X34241Y-15219D01*
X34317Y-15402D01*
X34457Y-15543D01*
X34641Y-15619D01*
X34839Y-15619D01*
X35022Y-15543D01*
X35163Y-15403D01*
X35239Y-15219D01*
X35239Y-16307D01*
X35079Y-16241D01*
X34881Y-16241D01*
X34698Y-16317D01*
X34557Y-16457D01*
X34481Y-16641D01*
X34481Y-16839D01*
X34557Y-17022D01*
X34697Y-17163D01*
X34881Y-17239D01*
X35079Y-17239D01*
X35262Y-17163D01*
X35403Y-17023D01*
X35479Y-16839D01*
X35479Y-18341D01*
X35301Y-18341D01*
X35118Y-18417D01*
X34977Y-18557D01*
X34901Y-18741D01*
X34901Y-18939D01*
X34977Y-19122D01*
X35117Y-19263D01*
X35301Y-19339D01*
X35499Y-19339D01*
X35682Y-19263D01*
X35823Y-19123D01*
X35899Y-18939D01*
X35899Y-24350D01*
X35599Y-24350D01*
X35599Y-23419D01*
X35599Y-23221D01*
X35523Y-23038D01*
X35383Y-22897D01*
X35199Y-22821D01*
X35001Y-22821D01*
X34818Y-22897D01*
X34677Y-23037D01*
X34601Y-23221D01*
X34601Y-23419D01*
X34677Y-23602D01*
X34817Y-23743D01*
X35001Y-23819D01*
X35199Y-23819D01*
X35382Y-23743D01*
X35523Y-23603D01*
X35599Y-23419D01*
X35599Y-24350D01*
X34499Y-24350D01*
X34499Y-22159D01*
X34499Y-21961D01*
X34479Y-21912D01*
X34479Y-18439D01*
X34479Y-18241D01*
X34403Y-18058D01*
X34263Y-17917D01*
X34079Y-17841D01*
X33881Y-17841D01*
X33698Y-17917D01*
X33557Y-18057D01*
X33481Y-18241D01*
X33481Y-18439D01*
X33557Y-18622D01*
X33697Y-18763D01*
X33881Y-18839D01*
X34079Y-18839D01*
X34262Y-18763D01*
X34403Y-18623D01*
X34479Y-18439D01*
X34479Y-21912D01*
X34423Y-21778D01*
X34283Y-21637D01*
X34099Y-21561D01*
X33901Y-21561D01*
X33718Y-21637D01*
X33577Y-21777D01*
X33501Y-21961D01*
X33501Y-22159D01*
X33577Y-22342D01*
X33717Y-22483D01*
X33901Y-22559D01*
X34099Y-22559D01*
X34282Y-22483D01*
X34423Y-22343D01*
X34499Y-22159D01*
X34499Y-24350D01*
X34349Y-24350D01*
X34349Y-24251D01*
X34349Y-23651D01*
X34311Y-23559D01*
X34241Y-23489D01*
X34150Y-23451D01*
X34051Y-23451D01*
X33451Y-23451D01*
X33359Y-23489D01*
X33289Y-23559D01*
X33259Y-23630D01*
X33259Y-15439D01*
X33259Y-15241D01*
X33183Y-15058D01*
X33043Y-14917D01*
X32859Y-14841D01*
X32661Y-14841D01*
X32478Y-14917D01*
X32337Y-15057D01*
X32261Y-15241D01*
X32261Y-15439D01*
X32337Y-15622D01*
X32477Y-15763D01*
X32661Y-15839D01*
X32859Y-15839D01*
X33042Y-15763D01*
X33183Y-15623D01*
X33259Y-15439D01*
X33259Y-23630D01*
X33251Y-23650D01*
X33251Y-23712D01*
X33199Y-23697D01*
X33199Y-20359D01*
X33199Y-20161D01*
X33123Y-19978D01*
X33075Y-19930D01*
X33083Y-19923D01*
X33159Y-19739D01*
X33159Y-19541D01*
X33083Y-19358D01*
X32943Y-19217D01*
X32919Y-19207D01*
X32919Y-16459D01*
X32919Y-16261D01*
X32843Y-16078D01*
X32703Y-15937D01*
X32519Y-15861D01*
X32321Y-15861D01*
X32139Y-15936D01*
X32139Y-15219D01*
X32139Y-15021D01*
X32063Y-14838D01*
X31923Y-14697D01*
X31739Y-14621D01*
X31541Y-14621D01*
X31399Y-14679D01*
X31399Y-12339D01*
X31399Y-12141D01*
X31323Y-11958D01*
X31183Y-11817D01*
X30999Y-11741D01*
X30801Y-11741D01*
X30618Y-11817D01*
X30477Y-11957D01*
X30401Y-12141D01*
X30401Y-12339D01*
X30477Y-12522D01*
X30617Y-12663D01*
X30801Y-12739D01*
X30999Y-12739D01*
X31182Y-12663D01*
X31323Y-12523D01*
X31399Y-12339D01*
X31399Y-14679D01*
X31358Y-14697D01*
X31217Y-14837D01*
X31141Y-15021D01*
X31141Y-15219D01*
X31217Y-15402D01*
X31357Y-15543D01*
X31541Y-15619D01*
X31739Y-15619D01*
X31922Y-15543D01*
X32063Y-15403D01*
X32139Y-15219D01*
X32139Y-15936D01*
X32138Y-15937D01*
X31997Y-16077D01*
X31921Y-16261D01*
X31921Y-16459D01*
X31997Y-16642D01*
X32137Y-16783D01*
X32321Y-16859D01*
X32519Y-16859D01*
X32702Y-16783D01*
X32843Y-16643D01*
X32919Y-16459D01*
X32919Y-19207D01*
X32759Y-19141D01*
X32561Y-19141D01*
X32378Y-19217D01*
X32237Y-19357D01*
X32161Y-19541D01*
X32161Y-19739D01*
X32237Y-19922D01*
X32284Y-19969D01*
X32277Y-19977D01*
X32201Y-20161D01*
X32201Y-20359D01*
X32277Y-20542D01*
X32417Y-20683D01*
X32601Y-20759D01*
X32799Y-20759D01*
X32982Y-20683D01*
X33123Y-20543D01*
X33199Y-20359D01*
X33199Y-23697D01*
X33178Y-23692D01*
X33108Y-23762D01*
X33108Y-23622D01*
X33081Y-23528D01*
X32879Y-23457D01*
X32666Y-23468D01*
X32519Y-23528D01*
X32492Y-23622D01*
X32800Y-23929D01*
X33108Y-23622D01*
X33108Y-23762D01*
X32871Y-24000D01*
X32800Y-24071D01*
X32729Y-24000D01*
X32694Y-23965D01*
X32422Y-23692D01*
X32328Y-23719D01*
X32304Y-23784D01*
X32265Y-23689D01*
X32111Y-23535D01*
X31909Y-23451D01*
X31691Y-23451D01*
X31489Y-23535D01*
X31335Y-23689D01*
X31300Y-23773D01*
X31265Y-23689D01*
X31111Y-23535D01*
X30909Y-23451D01*
X30691Y-23451D01*
X30489Y-23535D01*
X30335Y-23689D01*
X30300Y-23773D01*
X30265Y-23689D01*
X30155Y-23579D01*
X30339Y-23579D01*
X30522Y-23503D01*
X30663Y-23363D01*
X30739Y-23179D01*
X30739Y-22981D01*
X30713Y-22919D01*
X30899Y-22919D01*
X31082Y-22843D01*
X31223Y-22703D01*
X31299Y-22519D01*
X31299Y-22321D01*
X31223Y-22138D01*
X31083Y-21997D01*
X30899Y-21921D01*
X30701Y-21921D01*
X30518Y-21997D01*
X30377Y-22137D01*
X30301Y-22321D01*
X30301Y-22519D01*
X30326Y-22581D01*
X30141Y-22581D01*
X30079Y-22606D01*
X30079Y-18239D01*
X30079Y-18041D01*
X30003Y-17858D01*
X29863Y-17717D01*
X29679Y-17641D01*
X29481Y-17641D01*
X29298Y-17717D01*
X29157Y-17857D01*
X29081Y-18041D01*
X29041Y-18041D01*
X28858Y-18117D01*
X28717Y-18257D01*
X28679Y-18349D01*
X28679Y-17299D01*
X28679Y-17101D01*
X28603Y-16918D01*
X28463Y-16777D01*
X28279Y-16701D01*
X28081Y-16701D01*
X27898Y-16777D01*
X27757Y-16917D01*
X27681Y-17101D01*
X27681Y-17299D01*
X27757Y-17482D01*
X27897Y-17623D01*
X28081Y-17699D01*
X28279Y-17699D01*
X28462Y-17623D01*
X28603Y-17483D01*
X28679Y-17299D01*
X28679Y-18349D01*
X28641Y-18441D01*
X28641Y-18639D01*
X28709Y-18804D01*
X28603Y-18697D01*
X28419Y-18621D01*
X28221Y-18621D01*
X28038Y-18697D01*
X27905Y-18828D01*
X27843Y-18678D01*
X27703Y-18537D01*
X27519Y-18461D01*
X27321Y-18461D01*
X27138Y-18537D01*
X26999Y-18675D01*
X26999Y-14319D01*
X26999Y-14121D01*
X26923Y-13938D01*
X26783Y-13797D01*
X26599Y-13721D01*
X26401Y-13721D01*
X26218Y-13797D01*
X26077Y-13937D01*
X26001Y-14121D01*
X26001Y-14319D01*
X26077Y-14502D01*
X26154Y-14580D01*
X26057Y-14677D01*
X25981Y-14861D01*
X25981Y-15059D01*
X26057Y-15242D01*
X26197Y-15383D01*
X26381Y-15459D01*
X26579Y-15459D01*
X26762Y-15383D01*
X26903Y-15243D01*
X26979Y-15059D01*
X26979Y-14861D01*
X26903Y-14678D01*
X26825Y-14599D01*
X26923Y-14503D01*
X26999Y-14319D01*
X26999Y-18675D01*
X26997Y-18677D01*
X26939Y-18817D01*
X26939Y-18701D01*
X26863Y-18518D01*
X26723Y-18377D01*
X26539Y-18301D01*
X26341Y-18301D01*
X26158Y-18377D01*
X26017Y-18517D01*
X25941Y-18701D01*
X25941Y-18899D01*
X26017Y-19082D01*
X26157Y-19223D01*
X26341Y-19299D01*
X26539Y-19299D01*
X26722Y-19223D01*
X26863Y-19083D01*
X26921Y-18942D01*
X26921Y-19059D01*
X26997Y-19242D01*
X27137Y-19383D01*
X27321Y-19459D01*
X27519Y-19459D01*
X27702Y-19383D01*
X27834Y-19251D01*
X27897Y-19402D01*
X28037Y-19543D01*
X28221Y-19619D01*
X28419Y-19619D01*
X28602Y-19543D01*
X28743Y-19403D01*
X28819Y-19219D01*
X28819Y-19021D01*
X28750Y-18855D01*
X28857Y-18963D01*
X29041Y-19039D01*
X29239Y-19039D01*
X29422Y-18963D01*
X29563Y-18823D01*
X29639Y-18639D01*
X29679Y-18639D01*
X29862Y-18563D01*
X30003Y-18423D01*
X30079Y-18239D01*
X30079Y-22606D01*
X30031Y-22626D01*
X30059Y-22559D01*
X30059Y-22361D01*
X29983Y-22178D01*
X29843Y-22037D01*
X29659Y-21961D01*
X29461Y-21961D01*
X29439Y-21970D01*
X29439Y-20219D01*
X29439Y-20021D01*
X29363Y-19838D01*
X29223Y-19697D01*
X29039Y-19621D01*
X28841Y-19621D01*
X28658Y-19697D01*
X28517Y-19837D01*
X28441Y-20021D01*
X28441Y-20219D01*
X28517Y-20402D01*
X28657Y-20543D01*
X28841Y-20619D01*
X29039Y-20619D01*
X29222Y-20543D01*
X29363Y-20403D01*
X29439Y-20219D01*
X29439Y-21970D01*
X29278Y-22037D01*
X29240Y-22074D01*
X29203Y-22037D01*
X29019Y-21961D01*
X28821Y-21961D01*
X28638Y-22037D01*
X28497Y-22177D01*
X28421Y-22361D01*
X28421Y-22559D01*
X28497Y-22742D01*
X28637Y-22883D01*
X28821Y-22959D01*
X29019Y-22959D01*
X29202Y-22883D01*
X29239Y-22845D01*
X29277Y-22883D01*
X29461Y-22959D01*
X29659Y-22959D01*
X29768Y-22913D01*
X29741Y-22981D01*
X29741Y-23179D01*
X29817Y-23362D01*
X29905Y-23451D01*
X29691Y-23451D01*
X29489Y-23535D01*
X29335Y-23689D01*
X29251Y-23891D01*
X29251Y-24109D01*
X29335Y-24311D01*
X29374Y-24350D01*
X28199Y-24350D01*
X28199Y-20299D01*
X28199Y-20101D01*
X28123Y-19918D01*
X27983Y-19777D01*
X27799Y-19701D01*
X27601Y-19701D01*
X27418Y-19777D01*
X27277Y-19917D01*
X27201Y-20101D01*
X27201Y-20299D01*
X27277Y-20482D01*
X27417Y-20623D01*
X27601Y-20699D01*
X27799Y-20699D01*
X27982Y-20623D01*
X28123Y-20483D01*
X28199Y-20299D01*
X28199Y-24350D01*
X27595Y-24350D01*
X27603Y-24343D01*
X27679Y-24159D01*
X27679Y-23961D01*
X27603Y-23778D01*
X27463Y-23637D01*
X27279Y-23561D01*
X27081Y-23561D01*
X26898Y-23637D01*
X26757Y-23777D01*
X26681Y-23961D01*
X26681Y-24159D01*
X26757Y-24342D01*
X26764Y-24350D01*
X25679Y-24350D01*
X25679Y-23759D01*
X25679Y-23561D01*
X25603Y-23378D01*
X25463Y-23237D01*
X25379Y-23202D01*
X25379Y-15259D01*
X25379Y-15061D01*
X25303Y-14878D01*
X25163Y-14737D01*
X24979Y-14661D01*
X24781Y-14661D01*
X24598Y-14737D01*
X24457Y-14877D01*
X24381Y-15061D01*
X24381Y-15259D01*
X24457Y-15442D01*
X24597Y-15583D01*
X24781Y-15659D01*
X24979Y-15659D01*
X25162Y-15583D01*
X25303Y-15443D01*
X25379Y-15259D01*
X25379Y-23202D01*
X25339Y-23185D01*
X25339Y-18659D01*
X25339Y-18461D01*
X25263Y-18278D01*
X25123Y-18137D01*
X24939Y-18061D01*
X24741Y-18061D01*
X24558Y-18137D01*
X24417Y-18277D01*
X24341Y-18461D01*
X24341Y-18659D01*
X24417Y-18842D01*
X24557Y-18983D01*
X24741Y-19059D01*
X24939Y-19059D01*
X25122Y-18983D01*
X25263Y-18843D01*
X25339Y-18659D01*
X25339Y-23185D01*
X25279Y-23161D01*
X25081Y-23161D01*
X24898Y-23237D01*
X24757Y-23377D01*
X24681Y-23561D01*
X24681Y-23759D01*
X24757Y-23942D01*
X24897Y-24083D01*
X25081Y-24159D01*
X25279Y-24159D01*
X25462Y-24083D01*
X25603Y-23943D01*
X25679Y-23759D01*
X25679Y-24350D01*
X24679Y-24350D01*
X24679Y-19979D01*
X24679Y-19781D01*
X24603Y-19598D01*
X24463Y-19457D01*
X24279Y-19381D01*
X24081Y-19381D01*
X23898Y-19457D01*
X23819Y-19535D01*
X23819Y-16139D01*
X23819Y-15941D01*
X23743Y-15758D01*
X23603Y-15617D01*
X23419Y-15541D01*
X23221Y-15541D01*
X23038Y-15617D01*
X22897Y-15757D01*
X22821Y-15941D01*
X22821Y-16139D01*
X22897Y-16322D01*
X23037Y-16463D01*
X23221Y-16539D01*
X23419Y-16539D01*
X23602Y-16463D01*
X23743Y-16323D01*
X23819Y-16139D01*
X23819Y-19535D01*
X23757Y-19597D01*
X23681Y-19781D01*
X23681Y-19979D01*
X23757Y-20162D01*
X23897Y-20303D01*
X24081Y-20379D01*
X24279Y-20379D01*
X24462Y-20303D01*
X24603Y-20163D01*
X24679Y-19979D01*
X24679Y-24350D01*
X23639Y-24350D01*
X23639Y-18519D01*
X23639Y-18321D01*
X23563Y-18138D01*
X23423Y-17997D01*
X23239Y-17921D01*
X23041Y-17921D01*
X22858Y-17997D01*
X22717Y-18137D01*
X22641Y-18321D01*
X22641Y-18361D01*
X22639Y-18361D01*
X22441Y-18361D01*
X22258Y-18437D01*
X22117Y-18577D01*
X22041Y-18761D01*
X22041Y-18959D01*
X22117Y-19142D01*
X22257Y-19283D01*
X22441Y-19359D01*
X22639Y-19359D01*
X22822Y-19283D01*
X22963Y-19143D01*
X23039Y-18959D01*
X23039Y-18918D01*
X23041Y-18919D01*
X23239Y-18919D01*
X23422Y-18843D01*
X23563Y-18703D01*
X23639Y-18519D01*
X23639Y-24350D01*
X22739Y-24350D01*
X22739Y-21399D01*
X22739Y-21201D01*
X22663Y-21018D01*
X22523Y-20877D01*
X22339Y-20801D01*
X22141Y-20801D01*
X21958Y-20877D01*
X21817Y-21017D01*
X21741Y-21201D01*
X21741Y-21399D01*
X21817Y-21582D01*
X21957Y-21723D01*
X22141Y-21799D01*
X22339Y-21799D01*
X22522Y-21723D01*
X22663Y-21583D01*
X22739Y-21399D01*
X22739Y-24350D01*
X20699Y-24350D01*
X20699Y-19459D01*
X20699Y-19261D01*
X20623Y-19078D01*
X20483Y-18937D01*
X20339Y-18877D01*
X20339Y-16919D01*
X20339Y-16721D01*
X20263Y-16538D01*
X20123Y-16397D01*
X19939Y-16321D01*
X19741Y-16321D01*
X19558Y-16397D01*
X19417Y-16537D01*
X19341Y-16721D01*
X19341Y-16919D01*
X19417Y-17102D01*
X19557Y-17243D01*
X19741Y-17319D01*
X19939Y-17319D01*
X20122Y-17243D01*
X20263Y-17103D01*
X20339Y-16919D01*
X20339Y-18877D01*
X20299Y-18861D01*
X20101Y-18861D01*
X19918Y-18937D01*
X19839Y-19014D01*
X19743Y-18917D01*
X19559Y-18841D01*
X19361Y-18841D01*
X19178Y-18917D01*
X19037Y-19057D01*
X18961Y-19241D01*
X18961Y-19439D01*
X19037Y-19622D01*
X19177Y-19763D01*
X19361Y-19839D01*
X19559Y-19839D01*
X19742Y-19763D01*
X19820Y-19685D01*
X19917Y-19783D01*
X20101Y-19859D01*
X20299Y-19859D01*
X20482Y-19783D01*
X20623Y-19643D01*
X20699Y-19459D01*
X20699Y-24350D01*
X18359Y-24350D01*
X18359Y-19499D01*
X18359Y-19301D01*
X18283Y-19118D01*
X18143Y-18977D01*
X18079Y-18950D01*
X18079Y-15839D01*
X18079Y-15641D01*
X18003Y-15458D01*
X17863Y-15317D01*
X17679Y-15241D01*
X17559Y-15241D01*
X17559Y-14079D01*
X17559Y-13881D01*
X17483Y-13698D01*
X17343Y-13557D01*
X17159Y-13481D01*
X16961Y-13481D01*
X16778Y-13557D01*
X16637Y-13697D01*
X16561Y-13881D01*
X16561Y-14079D01*
X16637Y-14262D01*
X16777Y-14403D01*
X16961Y-14479D01*
X17159Y-14479D01*
X17342Y-14403D01*
X17483Y-14263D01*
X17559Y-14079D01*
X17559Y-15241D01*
X17481Y-15241D01*
X17298Y-15317D01*
X17157Y-15457D01*
X17081Y-15641D01*
X17081Y-15839D01*
X17157Y-16022D01*
X17297Y-16163D01*
X17481Y-16239D01*
X17679Y-16239D01*
X17862Y-16163D01*
X18003Y-16023D01*
X18079Y-15839D01*
X18079Y-18950D01*
X17959Y-18901D01*
X17761Y-18901D01*
X17635Y-18953D01*
X17563Y-18778D01*
X17423Y-18637D01*
X17239Y-18561D01*
X17041Y-18561D01*
X16858Y-18637D01*
X16717Y-18777D01*
X16641Y-18961D01*
X16641Y-19159D01*
X16717Y-19342D01*
X16857Y-19483D01*
X17041Y-19559D01*
X17239Y-19559D01*
X17364Y-19506D01*
X17437Y-19682D01*
X17577Y-19823D01*
X17761Y-19899D01*
X17959Y-19899D01*
X18142Y-19823D01*
X18283Y-19683D01*
X18359Y-19499D01*
X18359Y-24350D01*
X16119Y-24350D01*
X16119Y-16519D01*
X16119Y-16321D01*
X16043Y-16138D01*
X15903Y-15997D01*
X15719Y-15921D01*
X15521Y-15921D01*
X15338Y-15997D01*
X15197Y-16137D01*
X15121Y-16321D01*
X15121Y-16519D01*
X15197Y-16702D01*
X15337Y-16843D01*
X15521Y-16919D01*
X15719Y-16919D01*
X15902Y-16843D01*
X16043Y-16703D01*
X16119Y-16519D01*
X16119Y-24350D01*
X15819Y-24350D01*
X15819Y-18859D01*
X15819Y-18661D01*
X15743Y-18478D01*
X15603Y-18337D01*
X15419Y-18261D01*
X15221Y-18261D01*
X15038Y-18337D01*
X14897Y-18477D01*
X14839Y-18617D01*
X14839Y-14599D01*
X14839Y-14401D01*
X14763Y-14218D01*
X14623Y-14077D01*
X14439Y-14001D01*
X14241Y-14001D01*
X14058Y-14077D01*
X13917Y-14217D01*
X13841Y-14401D01*
X13841Y-14599D01*
X13917Y-14782D01*
X14057Y-14923D01*
X14241Y-14999D01*
X14439Y-14999D01*
X14622Y-14923D01*
X14763Y-14783D01*
X14839Y-14599D01*
X14839Y-18617D01*
X14821Y-18661D01*
X14821Y-18859D01*
X14897Y-19042D01*
X15037Y-19183D01*
X15221Y-19259D01*
X15419Y-19259D01*
X15602Y-19183D01*
X15743Y-19043D01*
X15819Y-18859D01*
X15819Y-24350D01*
X13959Y-24350D01*
X13959Y-18159D01*
X13959Y-17961D01*
X13883Y-17778D01*
X13743Y-17637D01*
X13559Y-17561D01*
X13361Y-17561D01*
X13178Y-17637D01*
X13037Y-17777D01*
X12961Y-17961D01*
X12961Y-18159D01*
X13037Y-18342D01*
X13177Y-18483D01*
X13361Y-18559D01*
X13559Y-18559D01*
X13742Y-18483D01*
X13883Y-18343D01*
X13959Y-18159D01*
X13959Y-24350D01*
X13819Y-24350D01*
X13819Y-19279D01*
X13819Y-19081D01*
X13743Y-18898D01*
X13603Y-18757D01*
X13419Y-18681D01*
X13221Y-18681D01*
X13038Y-18757D01*
X12897Y-18897D01*
X12821Y-19081D01*
X12821Y-19279D01*
X12897Y-19462D01*
X13037Y-19603D01*
X13221Y-19679D01*
X13419Y-19679D01*
X13602Y-19603D01*
X13743Y-19463D01*
X13819Y-19279D01*
X13819Y-24350D01*
X12079Y-24350D01*
X12079Y-16719D01*
X12079Y-16521D01*
X12003Y-16338D01*
X11863Y-16197D01*
X11679Y-16121D01*
X11481Y-16121D01*
X11298Y-16197D01*
X11157Y-16337D01*
X11081Y-16521D01*
X11081Y-16719D01*
X11157Y-16902D01*
X11297Y-17043D01*
X11481Y-17119D01*
X11679Y-17119D01*
X11862Y-17043D01*
X12003Y-16903D01*
X12079Y-16719D01*
X12079Y-24350D01*
X10450Y-24350D01*
X10450Y-15028D01*
X10790Y-15170D01*
X11208Y-15170D01*
X11594Y-15010D01*
X11890Y-14715D01*
X11932Y-14611D01*
X11937Y-14622D01*
X12077Y-14763D01*
X12261Y-14839D01*
X12459Y-14839D01*
X12642Y-14763D01*
X12783Y-14623D01*
X12822Y-14527D01*
X12937Y-14643D01*
X13121Y-14719D01*
X13319Y-14719D01*
X13502Y-14643D01*
X13643Y-14503D01*
X13719Y-14319D01*
X13719Y-14121D01*
X13643Y-13938D01*
X13503Y-13797D01*
X13319Y-13721D01*
X13121Y-13721D01*
X12938Y-13797D01*
X12797Y-13937D01*
X12757Y-14032D01*
X12643Y-13917D01*
X12459Y-13841D01*
X12261Y-13841D01*
X12078Y-13917D01*
X12050Y-13944D01*
X12050Y-13912D01*
X11890Y-13526D01*
X11814Y-13450D01*
X15344Y-13450D01*
X15237Y-13557D01*
X15161Y-13741D01*
X15161Y-13939D01*
X15237Y-14122D01*
X15377Y-14263D01*
X15561Y-14339D01*
X15759Y-14339D01*
X15942Y-14263D01*
X16083Y-14123D01*
X16159Y-13939D01*
X16159Y-13741D01*
X16083Y-13558D01*
X15975Y-13450D01*
X24650Y-13450D01*
X24650Y-10450D01*
X40350Y-10450D01*
X40350Y-13235D01*
X40345Y-13230D01*
X39960Y-13070D01*
X39542Y-13070D01*
X39156Y-13230D01*
X38860Y-13525D01*
X38745Y-13799D01*
X38743Y-13797D01*
X38559Y-13721D01*
X38361Y-13721D01*
X38178Y-13797D01*
X38037Y-13937D01*
X37961Y-14121D01*
X37961Y-14319D01*
X38037Y-14502D01*
X38177Y-14643D01*
X38361Y-14719D01*
X38559Y-14719D01*
X38742Y-14643D01*
X38804Y-14580D01*
X38860Y-14714D01*
X39155Y-15010D01*
X39540Y-15170D01*
X39958Y-15170D01*
X40344Y-15010D01*
X40350Y-15004D01*
X40350Y-24350D01*
M02*
