G04 (created by PCBNEW-RS274X (2012-01-19 BZR 3256)-stable) date 5/26/2013 3:34:06 PM*
G01*
G70*
G90*
%MOIN*%
G04 Gerber Fmt 3.4, Leading zero omitted, Abs format*
%FSLAX34Y34*%
G04 APERTURE LIST*
%ADD10C,0.006000*%
%ADD11R,0.060000X0.060000*%
%ADD12C,0.060000*%
%ADD13C,0.160000*%
%ADD14C,0.110000*%
%ADD15C,0.050000*%
%ADD16C,0.007000*%
%ADD17C,0.010000*%
G04 APERTURE END LIST*
G54D10*
G54D11*
X33800Y-24000D03*
G54D12*
X32800Y-24000D03*
X31800Y-24000D03*
X30800Y-24000D03*
X29800Y-24000D03*
G54D13*
X39750Y-14120D03*
X11000Y-14120D03*
G54D14*
X36350Y-13600D03*
G54D15*
X29560Y-22460D03*
X36040Y-14520D03*
X28940Y-20120D03*
X28320Y-19120D03*
X31640Y-15120D03*
X27420Y-18960D03*
X26500Y-14220D03*
X26440Y-18800D03*
X22540Y-18860D03*
X24180Y-19880D03*
X26480Y-14960D03*
X35920Y-15800D03*
X28180Y-17200D03*
X15320Y-18760D03*
X24880Y-15160D03*
X33980Y-18340D03*
X38460Y-14220D03*
X39340Y-19500D03*
X36520Y-18740D03*
X34740Y-15120D03*
X34000Y-22060D03*
X32420Y-16360D03*
X32700Y-20260D03*
X14340Y-14500D03*
X13460Y-18060D03*
X19460Y-19340D03*
X32760Y-15340D03*
X35400Y-18840D03*
X17140Y-19060D03*
X24840Y-18560D03*
X17060Y-13980D03*
X36640Y-21120D03*
X34980Y-16740D03*
X23140Y-18420D03*
X29580Y-18140D03*
X27700Y-20200D03*
X36540Y-21860D03*
X37740Y-21260D03*
X17860Y-19400D03*
X15620Y-16420D03*
X12360Y-14340D03*
X30900Y-12240D03*
X13220Y-14220D03*
X11580Y-16620D03*
X20200Y-19360D03*
X30800Y-22420D03*
X35100Y-23320D03*
X15660Y-13840D03*
X28920Y-22460D03*
X30240Y-23080D03*
X22240Y-21300D03*
X25180Y-23660D03*
X27180Y-24060D03*
X19840Y-16820D03*
X13320Y-19180D03*
X32660Y-19640D03*
X29140Y-18540D03*
X17580Y-15740D03*
X23320Y-16040D03*
X38020Y-18280D03*
X35740Y-23320D03*
X33980Y-12980D03*
X34800Y-18840D03*
X29500Y-11840D03*
X34340Y-17540D03*
X24680Y-17800D03*
X18880Y-19380D03*
X33900Y-17140D03*
X13980Y-22080D03*
X33360Y-13000D03*
X27540Y-17160D03*
X15000Y-22820D03*
X28200Y-23700D03*
X17180Y-18360D03*
X37820Y-11620D03*
X29520Y-19020D03*
X28280Y-20240D03*
X20920Y-22820D03*
X17000Y-22820D03*
X13860Y-13920D03*
X18960Y-22820D03*
X26860Y-11760D03*
G54D16*
X12681Y-11676D02*
X12681Y-11076D01*
X13281Y-11676D02*
X12981Y-11976D01*
X13281Y-11076D02*
X13281Y-11676D01*
X12681Y-11676D02*
X12981Y-11976D01*
G54D10*
G36*
X40350Y-24350D02*
X38519Y-24350D01*
X38519Y-18379D01*
X38519Y-18181D01*
X38443Y-17998D01*
X38319Y-17873D01*
X38319Y-11719D01*
X38319Y-11521D01*
X38243Y-11338D01*
X38103Y-11197D01*
X37919Y-11121D01*
X37721Y-11121D01*
X37538Y-11197D01*
X37397Y-11337D01*
X37321Y-11521D01*
X37321Y-11719D01*
X37397Y-11902D01*
X37537Y-12043D01*
X37721Y-12119D01*
X37919Y-12119D01*
X38102Y-12043D01*
X38243Y-11903D01*
X38319Y-11719D01*
X38319Y-17873D01*
X38303Y-17857D01*
X38119Y-17781D01*
X37921Y-17781D01*
X37738Y-17857D01*
X37597Y-17997D01*
X37521Y-18181D01*
X37521Y-18379D01*
X37597Y-18562D01*
X37737Y-18703D01*
X37921Y-18779D01*
X38119Y-18779D01*
X38302Y-18703D01*
X38443Y-18563D01*
X38519Y-18379D01*
X38519Y-24350D01*
X37149Y-24350D01*
X37149Y-13760D01*
X37149Y-13442D01*
X37028Y-13148D01*
X36803Y-12923D01*
X36510Y-12801D01*
X36192Y-12801D01*
X35898Y-12922D01*
X35673Y-13147D01*
X35551Y-13440D01*
X35551Y-13758D01*
X35672Y-14052D01*
X35737Y-14117D01*
X35617Y-14237D01*
X35541Y-14421D01*
X35541Y-14619D01*
X35617Y-14802D01*
X35757Y-14943D01*
X35941Y-15019D01*
X36139Y-15019D01*
X36322Y-14943D01*
X36463Y-14803D01*
X36539Y-14619D01*
X36539Y-14421D01*
X36526Y-14391D01*
X36802Y-14278D01*
X37027Y-14053D01*
X37149Y-13760D01*
X37149Y-24350D01*
X36239Y-24350D01*
X36239Y-23419D01*
X36239Y-23221D01*
X36163Y-23038D01*
X36023Y-22897D01*
X35839Y-22821D01*
X35641Y-22821D01*
X35458Y-22897D01*
X35420Y-22934D01*
X35383Y-22897D01*
X35299Y-22862D01*
X35299Y-18939D01*
X35299Y-18741D01*
X35223Y-18558D01*
X35083Y-18417D01*
X34899Y-18341D01*
X34839Y-18341D01*
X34839Y-17639D01*
X34839Y-17441D01*
X34763Y-17258D01*
X34623Y-17117D01*
X34479Y-17057D01*
X34479Y-13079D01*
X34479Y-12881D01*
X34403Y-12698D01*
X34263Y-12557D01*
X34079Y-12481D01*
X33881Y-12481D01*
X33698Y-12557D01*
X33660Y-12594D01*
X33643Y-12577D01*
X33459Y-12501D01*
X33261Y-12501D01*
X33078Y-12577D01*
X32937Y-12717D01*
X32861Y-12901D01*
X32861Y-13099D01*
X32937Y-13282D01*
X33077Y-13423D01*
X33261Y-13499D01*
X33459Y-13499D01*
X33642Y-13423D01*
X33679Y-13385D01*
X33697Y-13403D01*
X33881Y-13479D01*
X34079Y-13479D01*
X34262Y-13403D01*
X34403Y-13263D01*
X34479Y-13079D01*
X34479Y-17057D01*
X34439Y-17041D01*
X34399Y-17041D01*
X34323Y-16858D01*
X34183Y-16717D01*
X33999Y-16641D01*
X33801Y-16641D01*
X33618Y-16717D01*
X33477Y-16857D01*
X33401Y-17041D01*
X33401Y-17239D01*
X33477Y-17422D01*
X33617Y-17563D01*
X33801Y-17639D01*
X33841Y-17639D01*
X33917Y-17822D01*
X34057Y-17963D01*
X34241Y-18039D01*
X34439Y-18039D01*
X34622Y-17963D01*
X34763Y-17823D01*
X34839Y-17639D01*
X34839Y-18341D01*
X34701Y-18341D01*
X34518Y-18417D01*
X34377Y-18557D01*
X34301Y-18741D01*
X34301Y-18939D01*
X34377Y-19122D01*
X34517Y-19263D01*
X34701Y-19339D01*
X34899Y-19339D01*
X35082Y-19263D01*
X35223Y-19123D01*
X35299Y-18939D01*
X35299Y-22862D01*
X35199Y-22821D01*
X35001Y-22821D01*
X34818Y-22897D01*
X34677Y-23037D01*
X34601Y-23221D01*
X34601Y-23419D01*
X34677Y-23602D01*
X34817Y-23743D01*
X35001Y-23819D01*
X35199Y-23819D01*
X35382Y-23743D01*
X35419Y-23705D01*
X35457Y-23743D01*
X35641Y-23819D01*
X35839Y-23819D01*
X36022Y-23743D01*
X36163Y-23603D01*
X36239Y-23419D01*
X36239Y-24350D01*
X34349Y-24350D01*
X34349Y-24251D01*
X34349Y-23651D01*
X34311Y-23559D01*
X34241Y-23489D01*
X34150Y-23451D01*
X34051Y-23451D01*
X33451Y-23451D01*
X33359Y-23489D01*
X33289Y-23559D01*
X33251Y-23650D01*
X33251Y-23675D01*
X33159Y-23583D01*
X33159Y-19739D01*
X33159Y-19541D01*
X33083Y-19358D01*
X32943Y-19217D01*
X32759Y-19141D01*
X32561Y-19141D01*
X32378Y-19217D01*
X32237Y-19357D01*
X32161Y-19541D01*
X32161Y-19739D01*
X32237Y-19922D01*
X32377Y-20063D01*
X32561Y-20139D01*
X32759Y-20139D01*
X32942Y-20063D01*
X33083Y-19923D01*
X33159Y-19739D01*
X33159Y-23583D01*
X33111Y-23535D01*
X32909Y-23451D01*
X32691Y-23451D01*
X32489Y-23535D01*
X32335Y-23689D01*
X32297Y-23780D01*
X32272Y-23719D01*
X32178Y-23692D01*
X32139Y-23731D01*
X32139Y-15219D01*
X32139Y-15021D01*
X32063Y-14838D01*
X31923Y-14697D01*
X31739Y-14621D01*
X31541Y-14621D01*
X31358Y-14697D01*
X31217Y-14837D01*
X31141Y-15021D01*
X31141Y-15219D01*
X31217Y-15402D01*
X31357Y-15543D01*
X31541Y-15619D01*
X31739Y-15619D01*
X31922Y-15543D01*
X32063Y-15403D01*
X32139Y-15219D01*
X32139Y-23731D01*
X32108Y-23762D01*
X32108Y-23622D01*
X32081Y-23528D01*
X31879Y-23457D01*
X31666Y-23468D01*
X31519Y-23528D01*
X31492Y-23622D01*
X31800Y-23929D01*
X32108Y-23622D01*
X32108Y-23762D01*
X31871Y-24000D01*
X31800Y-24071D01*
X31729Y-24000D01*
X31694Y-23965D01*
X31422Y-23692D01*
X31328Y-23719D01*
X31304Y-23784D01*
X31265Y-23689D01*
X31111Y-23535D01*
X30909Y-23451D01*
X30691Y-23451D01*
X30489Y-23535D01*
X30335Y-23689D01*
X30300Y-23773D01*
X30265Y-23689D01*
X30155Y-23579D01*
X30339Y-23579D01*
X30522Y-23503D01*
X30663Y-23363D01*
X30739Y-23179D01*
X30739Y-22981D01*
X30713Y-22919D01*
X30899Y-22919D01*
X31082Y-22843D01*
X31223Y-22703D01*
X31299Y-22519D01*
X31299Y-22321D01*
X31223Y-22138D01*
X31083Y-21997D01*
X30899Y-21921D01*
X30701Y-21921D01*
X30518Y-21997D01*
X30377Y-22137D01*
X30301Y-22321D01*
X30301Y-22519D01*
X30326Y-22581D01*
X30141Y-22581D01*
X30031Y-22626D01*
X30059Y-22559D01*
X30059Y-22361D01*
X30019Y-22264D01*
X30019Y-19119D01*
X30019Y-18921D01*
X29999Y-18872D01*
X29999Y-11939D01*
X29999Y-11741D01*
X29923Y-11558D01*
X29783Y-11417D01*
X29599Y-11341D01*
X29401Y-11341D01*
X29218Y-11417D01*
X29077Y-11557D01*
X29001Y-11741D01*
X29001Y-11939D01*
X29077Y-12122D01*
X29217Y-12263D01*
X29401Y-12339D01*
X29599Y-12339D01*
X29782Y-12263D01*
X29923Y-12123D01*
X29999Y-11939D01*
X29999Y-18872D01*
X29943Y-18738D01*
X29803Y-18597D01*
X29639Y-18529D01*
X29639Y-18441D01*
X29563Y-18258D01*
X29423Y-18117D01*
X29239Y-18041D01*
X29041Y-18041D01*
X28858Y-18117D01*
X28717Y-18257D01*
X28641Y-18441D01*
X28641Y-18639D01*
X28709Y-18804D01*
X28603Y-18697D01*
X28419Y-18621D01*
X28221Y-18621D01*
X28039Y-18696D01*
X28039Y-17259D01*
X28039Y-17061D01*
X27963Y-16878D01*
X27823Y-16737D01*
X27639Y-16661D01*
X27441Y-16661D01*
X27359Y-16695D01*
X27359Y-11859D01*
X27359Y-11661D01*
X27283Y-11478D01*
X27143Y-11337D01*
X26959Y-11261D01*
X26761Y-11261D01*
X26578Y-11337D01*
X26437Y-11477D01*
X26361Y-11661D01*
X26361Y-11859D01*
X26437Y-12042D01*
X26577Y-12183D01*
X26761Y-12259D01*
X26959Y-12259D01*
X27142Y-12183D01*
X27283Y-12043D01*
X27359Y-11859D01*
X27359Y-16695D01*
X27258Y-16737D01*
X27117Y-16877D01*
X27041Y-17061D01*
X27041Y-17259D01*
X27117Y-17442D01*
X27257Y-17583D01*
X27441Y-17659D01*
X27639Y-17659D01*
X27822Y-17583D01*
X27963Y-17443D01*
X28039Y-17259D01*
X28039Y-18696D01*
X28038Y-18697D01*
X27905Y-18828D01*
X27843Y-18678D01*
X27703Y-18537D01*
X27519Y-18461D01*
X27321Y-18461D01*
X27138Y-18537D01*
X26999Y-18675D01*
X26999Y-14319D01*
X26999Y-14121D01*
X26923Y-13938D01*
X26783Y-13797D01*
X26599Y-13721D01*
X26401Y-13721D01*
X26218Y-13797D01*
X26077Y-13937D01*
X26001Y-14121D01*
X26001Y-14319D01*
X26077Y-14502D01*
X26217Y-14643D01*
X26401Y-14719D01*
X26599Y-14719D01*
X26782Y-14643D01*
X26923Y-14503D01*
X26999Y-14319D01*
X26999Y-18675D01*
X26997Y-18677D01*
X26939Y-18817D01*
X26939Y-18701D01*
X26863Y-18518D01*
X26723Y-18377D01*
X26539Y-18301D01*
X26341Y-18301D01*
X26158Y-18377D01*
X26017Y-18517D01*
X25941Y-18701D01*
X25941Y-18899D01*
X26017Y-19082D01*
X26157Y-19223D01*
X26341Y-19299D01*
X26539Y-19299D01*
X26722Y-19223D01*
X26863Y-19083D01*
X26921Y-18942D01*
X26921Y-19059D01*
X26997Y-19242D01*
X27137Y-19383D01*
X27321Y-19459D01*
X27519Y-19459D01*
X27702Y-19383D01*
X27834Y-19251D01*
X27897Y-19402D01*
X28037Y-19543D01*
X28221Y-19619D01*
X28419Y-19619D01*
X28602Y-19543D01*
X28743Y-19403D01*
X28819Y-19219D01*
X28819Y-19021D01*
X28750Y-18855D01*
X28857Y-18963D01*
X29021Y-19030D01*
X29021Y-19119D01*
X29097Y-19302D01*
X29237Y-19443D01*
X29421Y-19519D01*
X29619Y-19519D01*
X29802Y-19443D01*
X29943Y-19303D01*
X30019Y-19119D01*
X30019Y-22264D01*
X29983Y-22178D01*
X29843Y-22037D01*
X29659Y-21961D01*
X29461Y-21961D01*
X29439Y-21970D01*
X29439Y-20219D01*
X29439Y-20021D01*
X29363Y-19838D01*
X29223Y-19697D01*
X29039Y-19621D01*
X28841Y-19621D01*
X28658Y-19697D01*
X28544Y-19809D01*
X28379Y-19741D01*
X28181Y-19741D01*
X27998Y-19817D01*
X27857Y-19957D01*
X27781Y-20141D01*
X27781Y-20339D01*
X27857Y-20522D01*
X27997Y-20663D01*
X28181Y-20739D01*
X28379Y-20739D01*
X28562Y-20663D01*
X28675Y-20550D01*
X28841Y-20619D01*
X29039Y-20619D01*
X29222Y-20543D01*
X29363Y-20403D01*
X29439Y-20219D01*
X29439Y-21970D01*
X29278Y-22037D01*
X29240Y-22074D01*
X29203Y-22037D01*
X29019Y-21961D01*
X28821Y-21961D01*
X28638Y-22037D01*
X28497Y-22177D01*
X28421Y-22361D01*
X28421Y-22559D01*
X28497Y-22742D01*
X28637Y-22883D01*
X28821Y-22959D01*
X29019Y-22959D01*
X29202Y-22883D01*
X29239Y-22845D01*
X29277Y-22883D01*
X29461Y-22959D01*
X29659Y-22959D01*
X29768Y-22913D01*
X29741Y-22981D01*
X29741Y-23179D01*
X29817Y-23362D01*
X29905Y-23451D01*
X29691Y-23451D01*
X29489Y-23535D01*
X29335Y-23689D01*
X29251Y-23891D01*
X29251Y-24109D01*
X29335Y-24311D01*
X29374Y-24350D01*
X28699Y-24350D01*
X28699Y-23799D01*
X28699Y-23601D01*
X28623Y-23418D01*
X28483Y-23277D01*
X28299Y-23201D01*
X28101Y-23201D01*
X27918Y-23277D01*
X27777Y-23417D01*
X27701Y-23601D01*
X27701Y-23799D01*
X27777Y-23982D01*
X27917Y-24123D01*
X28101Y-24199D01*
X28299Y-24199D01*
X28482Y-24123D01*
X28623Y-23983D01*
X28699Y-23799D01*
X28699Y-24350D01*
X27595Y-24350D01*
X27603Y-24343D01*
X27679Y-24159D01*
X27679Y-23961D01*
X27603Y-23778D01*
X27463Y-23637D01*
X27279Y-23561D01*
X27081Y-23561D01*
X26898Y-23637D01*
X26757Y-23777D01*
X26681Y-23961D01*
X26681Y-24159D01*
X26757Y-24342D01*
X26764Y-24350D01*
X25679Y-24350D01*
X25679Y-23759D01*
X25679Y-23561D01*
X25603Y-23378D01*
X25463Y-23237D01*
X25279Y-23161D01*
X25179Y-23161D01*
X25179Y-17899D01*
X25179Y-17701D01*
X25103Y-17518D01*
X24963Y-17377D01*
X24779Y-17301D01*
X24581Y-17301D01*
X24398Y-17377D01*
X24257Y-17517D01*
X24181Y-17701D01*
X24181Y-17899D01*
X24257Y-18082D01*
X24397Y-18223D01*
X24581Y-18299D01*
X24779Y-18299D01*
X24962Y-18223D01*
X25103Y-18083D01*
X25179Y-17899D01*
X25179Y-23161D01*
X25081Y-23161D01*
X24898Y-23237D01*
X24757Y-23377D01*
X24681Y-23561D01*
X24681Y-23759D01*
X24757Y-23942D01*
X24897Y-24083D01*
X25081Y-24159D01*
X25279Y-24159D01*
X25462Y-24083D01*
X25603Y-23943D01*
X25679Y-23759D01*
X25679Y-24350D01*
X24679Y-24350D01*
X24679Y-19979D01*
X24679Y-19781D01*
X24603Y-19598D01*
X24463Y-19457D01*
X24279Y-19381D01*
X24081Y-19381D01*
X23898Y-19457D01*
X23819Y-19535D01*
X23819Y-16139D01*
X23819Y-15941D01*
X23743Y-15758D01*
X23603Y-15617D01*
X23419Y-15541D01*
X23221Y-15541D01*
X23038Y-15617D01*
X22897Y-15757D01*
X22821Y-15941D01*
X22821Y-16139D01*
X22897Y-16322D01*
X23037Y-16463D01*
X23221Y-16539D01*
X23419Y-16539D01*
X23602Y-16463D01*
X23743Y-16323D01*
X23819Y-16139D01*
X23819Y-19535D01*
X23757Y-19597D01*
X23681Y-19781D01*
X23681Y-19979D01*
X23757Y-20162D01*
X23897Y-20303D01*
X24081Y-20379D01*
X24279Y-20379D01*
X24462Y-20303D01*
X24603Y-20163D01*
X24679Y-19979D01*
X24679Y-24350D01*
X23039Y-24350D01*
X23039Y-18959D01*
X23039Y-18761D01*
X22963Y-18578D01*
X22823Y-18437D01*
X22639Y-18361D01*
X22441Y-18361D01*
X22258Y-18437D01*
X22117Y-18577D01*
X22041Y-18761D01*
X22041Y-18959D01*
X22117Y-19142D01*
X22257Y-19283D01*
X22441Y-19359D01*
X22639Y-19359D01*
X22822Y-19283D01*
X22963Y-19143D01*
X23039Y-18959D01*
X23039Y-24350D01*
X22739Y-24350D01*
X22739Y-21399D01*
X22739Y-21201D01*
X22663Y-21018D01*
X22523Y-20877D01*
X22339Y-20801D01*
X22141Y-20801D01*
X21958Y-20877D01*
X21817Y-21017D01*
X21741Y-21201D01*
X21741Y-21399D01*
X21817Y-21582D01*
X21957Y-21723D01*
X22141Y-21799D01*
X22339Y-21799D01*
X22522Y-21723D01*
X22663Y-21583D01*
X22739Y-21399D01*
X22739Y-24350D01*
X21419Y-24350D01*
X21419Y-22919D01*
X21419Y-22721D01*
X21343Y-22538D01*
X21203Y-22397D01*
X21019Y-22321D01*
X20821Y-22321D01*
X20638Y-22397D01*
X20497Y-22537D01*
X20421Y-22721D01*
X20421Y-22919D01*
X20497Y-23102D01*
X20637Y-23243D01*
X20821Y-23319D01*
X21019Y-23319D01*
X21202Y-23243D01*
X21343Y-23103D01*
X21419Y-22919D01*
X21419Y-24350D01*
X20339Y-24350D01*
X20339Y-16919D01*
X20339Y-16721D01*
X20263Y-16538D01*
X20123Y-16397D01*
X19939Y-16321D01*
X19741Y-16321D01*
X19558Y-16397D01*
X19417Y-16537D01*
X19341Y-16721D01*
X19341Y-16919D01*
X19417Y-17102D01*
X19557Y-17243D01*
X19741Y-17319D01*
X19939Y-17319D01*
X20122Y-17243D01*
X20263Y-17103D01*
X20339Y-16919D01*
X20339Y-24350D01*
X19459Y-24350D01*
X19459Y-22919D01*
X19459Y-22721D01*
X19383Y-22538D01*
X19379Y-22533D01*
X19379Y-19479D01*
X19379Y-19281D01*
X19303Y-19098D01*
X19163Y-18957D01*
X18979Y-18881D01*
X18781Y-18881D01*
X18598Y-18957D01*
X18457Y-19097D01*
X18381Y-19281D01*
X18381Y-19479D01*
X18457Y-19662D01*
X18597Y-19803D01*
X18781Y-19879D01*
X18979Y-19879D01*
X19162Y-19803D01*
X19303Y-19663D01*
X19379Y-19479D01*
X19379Y-22533D01*
X19243Y-22397D01*
X19059Y-22321D01*
X18861Y-22321D01*
X18678Y-22397D01*
X18537Y-22537D01*
X18461Y-22721D01*
X18461Y-22919D01*
X18537Y-23102D01*
X18677Y-23243D01*
X18861Y-23319D01*
X19059Y-23319D01*
X19242Y-23243D01*
X19383Y-23103D01*
X19459Y-22919D01*
X19459Y-24350D01*
X18079Y-24350D01*
X18079Y-15839D01*
X18079Y-15641D01*
X18003Y-15458D01*
X17863Y-15317D01*
X17679Y-15241D01*
X17481Y-15241D01*
X17298Y-15317D01*
X17157Y-15457D01*
X17081Y-15641D01*
X17081Y-15839D01*
X17157Y-16022D01*
X17297Y-16163D01*
X17481Y-16239D01*
X17679Y-16239D01*
X17862Y-16163D01*
X18003Y-16023D01*
X18079Y-15839D01*
X18079Y-24350D01*
X17679Y-24350D01*
X17679Y-18459D01*
X17679Y-18261D01*
X17603Y-18078D01*
X17463Y-17937D01*
X17279Y-17861D01*
X17081Y-17861D01*
X16898Y-17937D01*
X16757Y-18077D01*
X16681Y-18261D01*
X16681Y-18459D01*
X16757Y-18642D01*
X16897Y-18783D01*
X17081Y-18859D01*
X17279Y-18859D01*
X17462Y-18783D01*
X17603Y-18643D01*
X17679Y-18459D01*
X17679Y-24350D01*
X17499Y-24350D01*
X17499Y-22919D01*
X17499Y-22721D01*
X17423Y-22538D01*
X17283Y-22397D01*
X17099Y-22321D01*
X16901Y-22321D01*
X16718Y-22397D01*
X16577Y-22537D01*
X16501Y-22721D01*
X16501Y-22919D01*
X16577Y-23102D01*
X16717Y-23243D01*
X16901Y-23319D01*
X17099Y-23319D01*
X17282Y-23243D01*
X17423Y-23103D01*
X17499Y-22919D01*
X17499Y-24350D01*
X15499Y-24350D01*
X15499Y-22919D01*
X15499Y-22721D01*
X15423Y-22538D01*
X15283Y-22397D01*
X15099Y-22321D01*
X14901Y-22321D01*
X14718Y-22397D01*
X14577Y-22537D01*
X14501Y-22721D01*
X14501Y-22919D01*
X14577Y-23102D01*
X14717Y-23243D01*
X14901Y-23319D01*
X15099Y-23319D01*
X15282Y-23243D01*
X15423Y-23103D01*
X15499Y-22919D01*
X15499Y-24350D01*
X14479Y-24350D01*
X14479Y-22179D01*
X14479Y-21981D01*
X14403Y-21798D01*
X14263Y-21657D01*
X14079Y-21581D01*
X13881Y-21581D01*
X13819Y-21606D01*
X13819Y-19279D01*
X13819Y-19081D01*
X13743Y-18898D01*
X13603Y-18757D01*
X13419Y-18681D01*
X13221Y-18681D01*
X13038Y-18757D01*
X12897Y-18897D01*
X12821Y-19081D01*
X12821Y-19279D01*
X12897Y-19462D01*
X13037Y-19603D01*
X13221Y-19679D01*
X13419Y-19679D01*
X13602Y-19603D01*
X13743Y-19463D01*
X13819Y-19279D01*
X13819Y-21606D01*
X13698Y-21657D01*
X13557Y-21797D01*
X13481Y-21981D01*
X13481Y-22179D01*
X13557Y-22362D01*
X13697Y-22503D01*
X13881Y-22579D01*
X14079Y-22579D01*
X14262Y-22503D01*
X14403Y-22363D01*
X14479Y-22179D01*
X14479Y-24350D01*
X12030Y-24350D01*
X10450Y-24350D01*
X10450Y-15007D01*
X10804Y-15150D01*
X11214Y-15147D01*
X11576Y-14997D01*
X11662Y-14853D01*
X11035Y-14226D01*
X11000Y-14191D01*
X10929Y-14120D01*
X11000Y-14049D01*
X11071Y-14120D01*
X11106Y-14155D01*
X11733Y-14782D01*
X11877Y-14696D01*
X12030Y-14316D01*
X12027Y-13906D01*
X11877Y-13544D01*
X11777Y-13484D01*
X11811Y-13450D01*
X13691Y-13450D01*
X13578Y-13497D01*
X13437Y-13637D01*
X13361Y-13821D01*
X13361Y-14019D01*
X13437Y-14202D01*
X13577Y-14343D01*
X13761Y-14419D01*
X13959Y-14419D01*
X14142Y-14343D01*
X14283Y-14203D01*
X14359Y-14019D01*
X14359Y-13821D01*
X14283Y-13638D01*
X14143Y-13497D01*
X14029Y-13450D01*
X15344Y-13450D01*
X15237Y-13557D01*
X15161Y-13741D01*
X15161Y-13939D01*
X15237Y-14122D01*
X15377Y-14263D01*
X15561Y-14339D01*
X15759Y-14339D01*
X15942Y-14263D01*
X16083Y-14123D01*
X16159Y-13939D01*
X16159Y-13741D01*
X16083Y-13558D01*
X15975Y-13450D01*
X24650Y-13450D01*
X24650Y-10450D01*
X40350Y-10450D01*
X40350Y-13283D01*
X40326Y-13243D01*
X39946Y-13090D01*
X39536Y-13093D01*
X39174Y-13243D01*
X39088Y-13387D01*
X39715Y-14014D01*
X39750Y-14049D01*
X39821Y-14120D01*
X39750Y-14191D01*
X39715Y-14226D01*
X39679Y-14262D01*
X39679Y-14120D01*
X39017Y-13458D01*
X38873Y-13544D01*
X38720Y-13924D01*
X38723Y-14334D01*
X38873Y-14696D01*
X39017Y-14782D01*
X39679Y-14120D01*
X39679Y-14262D01*
X39088Y-14853D01*
X39174Y-14997D01*
X39554Y-15150D01*
X39964Y-15147D01*
X40326Y-14997D01*
X40350Y-14956D01*
X40350Y-24350D01*
X40350Y-24350D01*
G37*
G54D17*
X40350Y-24350D02*
X38519Y-24350D01*
X38519Y-18379D01*
X38519Y-18181D01*
X38443Y-17998D01*
X38319Y-17873D01*
X38319Y-11719D01*
X38319Y-11521D01*
X38243Y-11338D01*
X38103Y-11197D01*
X37919Y-11121D01*
X37721Y-11121D01*
X37538Y-11197D01*
X37397Y-11337D01*
X37321Y-11521D01*
X37321Y-11719D01*
X37397Y-11902D01*
X37537Y-12043D01*
X37721Y-12119D01*
X37919Y-12119D01*
X38102Y-12043D01*
X38243Y-11903D01*
X38319Y-11719D01*
X38319Y-17873D01*
X38303Y-17857D01*
X38119Y-17781D01*
X37921Y-17781D01*
X37738Y-17857D01*
X37597Y-17997D01*
X37521Y-18181D01*
X37521Y-18379D01*
X37597Y-18562D01*
X37737Y-18703D01*
X37921Y-18779D01*
X38119Y-18779D01*
X38302Y-18703D01*
X38443Y-18563D01*
X38519Y-18379D01*
X38519Y-24350D01*
X37149Y-24350D01*
X37149Y-13760D01*
X37149Y-13442D01*
X37028Y-13148D01*
X36803Y-12923D01*
X36510Y-12801D01*
X36192Y-12801D01*
X35898Y-12922D01*
X35673Y-13147D01*
X35551Y-13440D01*
X35551Y-13758D01*
X35672Y-14052D01*
X35737Y-14117D01*
X35617Y-14237D01*
X35541Y-14421D01*
X35541Y-14619D01*
X35617Y-14802D01*
X35757Y-14943D01*
X35941Y-15019D01*
X36139Y-15019D01*
X36322Y-14943D01*
X36463Y-14803D01*
X36539Y-14619D01*
X36539Y-14421D01*
X36526Y-14391D01*
X36802Y-14278D01*
X37027Y-14053D01*
X37149Y-13760D01*
X37149Y-24350D01*
X36239Y-24350D01*
X36239Y-23419D01*
X36239Y-23221D01*
X36163Y-23038D01*
X36023Y-22897D01*
X35839Y-22821D01*
X35641Y-22821D01*
X35458Y-22897D01*
X35420Y-22934D01*
X35383Y-22897D01*
X35299Y-22862D01*
X35299Y-18939D01*
X35299Y-18741D01*
X35223Y-18558D01*
X35083Y-18417D01*
X34899Y-18341D01*
X34839Y-18341D01*
X34839Y-17639D01*
X34839Y-17441D01*
X34763Y-17258D01*
X34623Y-17117D01*
X34479Y-17057D01*
X34479Y-13079D01*
X34479Y-12881D01*
X34403Y-12698D01*
X34263Y-12557D01*
X34079Y-12481D01*
X33881Y-12481D01*
X33698Y-12557D01*
X33660Y-12594D01*
X33643Y-12577D01*
X33459Y-12501D01*
X33261Y-12501D01*
X33078Y-12577D01*
X32937Y-12717D01*
X32861Y-12901D01*
X32861Y-13099D01*
X32937Y-13282D01*
X33077Y-13423D01*
X33261Y-13499D01*
X33459Y-13499D01*
X33642Y-13423D01*
X33679Y-13385D01*
X33697Y-13403D01*
X33881Y-13479D01*
X34079Y-13479D01*
X34262Y-13403D01*
X34403Y-13263D01*
X34479Y-13079D01*
X34479Y-17057D01*
X34439Y-17041D01*
X34399Y-17041D01*
X34323Y-16858D01*
X34183Y-16717D01*
X33999Y-16641D01*
X33801Y-16641D01*
X33618Y-16717D01*
X33477Y-16857D01*
X33401Y-17041D01*
X33401Y-17239D01*
X33477Y-17422D01*
X33617Y-17563D01*
X33801Y-17639D01*
X33841Y-17639D01*
X33917Y-17822D01*
X34057Y-17963D01*
X34241Y-18039D01*
X34439Y-18039D01*
X34622Y-17963D01*
X34763Y-17823D01*
X34839Y-17639D01*
X34839Y-18341D01*
X34701Y-18341D01*
X34518Y-18417D01*
X34377Y-18557D01*
X34301Y-18741D01*
X34301Y-18939D01*
X34377Y-19122D01*
X34517Y-19263D01*
X34701Y-19339D01*
X34899Y-19339D01*
X35082Y-19263D01*
X35223Y-19123D01*
X35299Y-18939D01*
X35299Y-22862D01*
X35199Y-22821D01*
X35001Y-22821D01*
X34818Y-22897D01*
X34677Y-23037D01*
X34601Y-23221D01*
X34601Y-23419D01*
X34677Y-23602D01*
X34817Y-23743D01*
X35001Y-23819D01*
X35199Y-23819D01*
X35382Y-23743D01*
X35419Y-23705D01*
X35457Y-23743D01*
X35641Y-23819D01*
X35839Y-23819D01*
X36022Y-23743D01*
X36163Y-23603D01*
X36239Y-23419D01*
X36239Y-24350D01*
X34349Y-24350D01*
X34349Y-24251D01*
X34349Y-23651D01*
X34311Y-23559D01*
X34241Y-23489D01*
X34150Y-23451D01*
X34051Y-23451D01*
X33451Y-23451D01*
X33359Y-23489D01*
X33289Y-23559D01*
X33251Y-23650D01*
X33251Y-23675D01*
X33159Y-23583D01*
X33159Y-19739D01*
X33159Y-19541D01*
X33083Y-19358D01*
X32943Y-19217D01*
X32759Y-19141D01*
X32561Y-19141D01*
X32378Y-19217D01*
X32237Y-19357D01*
X32161Y-19541D01*
X32161Y-19739D01*
X32237Y-19922D01*
X32377Y-20063D01*
X32561Y-20139D01*
X32759Y-20139D01*
X32942Y-20063D01*
X33083Y-19923D01*
X33159Y-19739D01*
X33159Y-23583D01*
X33111Y-23535D01*
X32909Y-23451D01*
X32691Y-23451D01*
X32489Y-23535D01*
X32335Y-23689D01*
X32297Y-23780D01*
X32272Y-23719D01*
X32178Y-23692D01*
X32139Y-23731D01*
X32139Y-15219D01*
X32139Y-15021D01*
X32063Y-14838D01*
X31923Y-14697D01*
X31739Y-14621D01*
X31541Y-14621D01*
X31358Y-14697D01*
X31217Y-14837D01*
X31141Y-15021D01*
X31141Y-15219D01*
X31217Y-15402D01*
X31357Y-15543D01*
X31541Y-15619D01*
X31739Y-15619D01*
X31922Y-15543D01*
X32063Y-15403D01*
X32139Y-15219D01*
X32139Y-23731D01*
X32108Y-23762D01*
X32108Y-23622D01*
X32081Y-23528D01*
X31879Y-23457D01*
X31666Y-23468D01*
X31519Y-23528D01*
X31492Y-23622D01*
X31800Y-23929D01*
X32108Y-23622D01*
X32108Y-23762D01*
X31871Y-24000D01*
X31800Y-24071D01*
X31729Y-24000D01*
X31694Y-23965D01*
X31422Y-23692D01*
X31328Y-23719D01*
X31304Y-23784D01*
X31265Y-23689D01*
X31111Y-23535D01*
X30909Y-23451D01*
X30691Y-23451D01*
X30489Y-23535D01*
X30335Y-23689D01*
X30300Y-23773D01*
X30265Y-23689D01*
X30155Y-23579D01*
X30339Y-23579D01*
X30522Y-23503D01*
X30663Y-23363D01*
X30739Y-23179D01*
X30739Y-22981D01*
X30713Y-22919D01*
X30899Y-22919D01*
X31082Y-22843D01*
X31223Y-22703D01*
X31299Y-22519D01*
X31299Y-22321D01*
X31223Y-22138D01*
X31083Y-21997D01*
X30899Y-21921D01*
X30701Y-21921D01*
X30518Y-21997D01*
X30377Y-22137D01*
X30301Y-22321D01*
X30301Y-22519D01*
X30326Y-22581D01*
X30141Y-22581D01*
X30031Y-22626D01*
X30059Y-22559D01*
X30059Y-22361D01*
X30019Y-22264D01*
X30019Y-19119D01*
X30019Y-18921D01*
X29999Y-18872D01*
X29999Y-11939D01*
X29999Y-11741D01*
X29923Y-11558D01*
X29783Y-11417D01*
X29599Y-11341D01*
X29401Y-11341D01*
X29218Y-11417D01*
X29077Y-11557D01*
X29001Y-11741D01*
X29001Y-11939D01*
X29077Y-12122D01*
X29217Y-12263D01*
X29401Y-12339D01*
X29599Y-12339D01*
X29782Y-12263D01*
X29923Y-12123D01*
X29999Y-11939D01*
X29999Y-18872D01*
X29943Y-18738D01*
X29803Y-18597D01*
X29639Y-18529D01*
X29639Y-18441D01*
X29563Y-18258D01*
X29423Y-18117D01*
X29239Y-18041D01*
X29041Y-18041D01*
X28858Y-18117D01*
X28717Y-18257D01*
X28641Y-18441D01*
X28641Y-18639D01*
X28709Y-18804D01*
X28603Y-18697D01*
X28419Y-18621D01*
X28221Y-18621D01*
X28039Y-18696D01*
X28039Y-17259D01*
X28039Y-17061D01*
X27963Y-16878D01*
X27823Y-16737D01*
X27639Y-16661D01*
X27441Y-16661D01*
X27359Y-16695D01*
X27359Y-11859D01*
X27359Y-11661D01*
X27283Y-11478D01*
X27143Y-11337D01*
X26959Y-11261D01*
X26761Y-11261D01*
X26578Y-11337D01*
X26437Y-11477D01*
X26361Y-11661D01*
X26361Y-11859D01*
X26437Y-12042D01*
X26577Y-12183D01*
X26761Y-12259D01*
X26959Y-12259D01*
X27142Y-12183D01*
X27283Y-12043D01*
X27359Y-11859D01*
X27359Y-16695D01*
X27258Y-16737D01*
X27117Y-16877D01*
X27041Y-17061D01*
X27041Y-17259D01*
X27117Y-17442D01*
X27257Y-17583D01*
X27441Y-17659D01*
X27639Y-17659D01*
X27822Y-17583D01*
X27963Y-17443D01*
X28039Y-17259D01*
X28039Y-18696D01*
X28038Y-18697D01*
X27905Y-18828D01*
X27843Y-18678D01*
X27703Y-18537D01*
X27519Y-18461D01*
X27321Y-18461D01*
X27138Y-18537D01*
X26999Y-18675D01*
X26999Y-14319D01*
X26999Y-14121D01*
X26923Y-13938D01*
X26783Y-13797D01*
X26599Y-13721D01*
X26401Y-13721D01*
X26218Y-13797D01*
X26077Y-13937D01*
X26001Y-14121D01*
X26001Y-14319D01*
X26077Y-14502D01*
X26217Y-14643D01*
X26401Y-14719D01*
X26599Y-14719D01*
X26782Y-14643D01*
X26923Y-14503D01*
X26999Y-14319D01*
X26999Y-18675D01*
X26997Y-18677D01*
X26939Y-18817D01*
X26939Y-18701D01*
X26863Y-18518D01*
X26723Y-18377D01*
X26539Y-18301D01*
X26341Y-18301D01*
X26158Y-18377D01*
X26017Y-18517D01*
X25941Y-18701D01*
X25941Y-18899D01*
X26017Y-19082D01*
X26157Y-19223D01*
X26341Y-19299D01*
X26539Y-19299D01*
X26722Y-19223D01*
X26863Y-19083D01*
X26921Y-18942D01*
X26921Y-19059D01*
X26997Y-19242D01*
X27137Y-19383D01*
X27321Y-19459D01*
X27519Y-19459D01*
X27702Y-19383D01*
X27834Y-19251D01*
X27897Y-19402D01*
X28037Y-19543D01*
X28221Y-19619D01*
X28419Y-19619D01*
X28602Y-19543D01*
X28743Y-19403D01*
X28819Y-19219D01*
X28819Y-19021D01*
X28750Y-18855D01*
X28857Y-18963D01*
X29021Y-19030D01*
X29021Y-19119D01*
X29097Y-19302D01*
X29237Y-19443D01*
X29421Y-19519D01*
X29619Y-19519D01*
X29802Y-19443D01*
X29943Y-19303D01*
X30019Y-19119D01*
X30019Y-22264D01*
X29983Y-22178D01*
X29843Y-22037D01*
X29659Y-21961D01*
X29461Y-21961D01*
X29439Y-21970D01*
X29439Y-20219D01*
X29439Y-20021D01*
X29363Y-19838D01*
X29223Y-19697D01*
X29039Y-19621D01*
X28841Y-19621D01*
X28658Y-19697D01*
X28544Y-19809D01*
X28379Y-19741D01*
X28181Y-19741D01*
X27998Y-19817D01*
X27857Y-19957D01*
X27781Y-20141D01*
X27781Y-20339D01*
X27857Y-20522D01*
X27997Y-20663D01*
X28181Y-20739D01*
X28379Y-20739D01*
X28562Y-20663D01*
X28675Y-20550D01*
X28841Y-20619D01*
X29039Y-20619D01*
X29222Y-20543D01*
X29363Y-20403D01*
X29439Y-20219D01*
X29439Y-21970D01*
X29278Y-22037D01*
X29240Y-22074D01*
X29203Y-22037D01*
X29019Y-21961D01*
X28821Y-21961D01*
X28638Y-22037D01*
X28497Y-22177D01*
X28421Y-22361D01*
X28421Y-22559D01*
X28497Y-22742D01*
X28637Y-22883D01*
X28821Y-22959D01*
X29019Y-22959D01*
X29202Y-22883D01*
X29239Y-22845D01*
X29277Y-22883D01*
X29461Y-22959D01*
X29659Y-22959D01*
X29768Y-22913D01*
X29741Y-22981D01*
X29741Y-23179D01*
X29817Y-23362D01*
X29905Y-23451D01*
X29691Y-23451D01*
X29489Y-23535D01*
X29335Y-23689D01*
X29251Y-23891D01*
X29251Y-24109D01*
X29335Y-24311D01*
X29374Y-24350D01*
X28699Y-24350D01*
X28699Y-23799D01*
X28699Y-23601D01*
X28623Y-23418D01*
X28483Y-23277D01*
X28299Y-23201D01*
X28101Y-23201D01*
X27918Y-23277D01*
X27777Y-23417D01*
X27701Y-23601D01*
X27701Y-23799D01*
X27777Y-23982D01*
X27917Y-24123D01*
X28101Y-24199D01*
X28299Y-24199D01*
X28482Y-24123D01*
X28623Y-23983D01*
X28699Y-23799D01*
X28699Y-24350D01*
X27595Y-24350D01*
X27603Y-24343D01*
X27679Y-24159D01*
X27679Y-23961D01*
X27603Y-23778D01*
X27463Y-23637D01*
X27279Y-23561D01*
X27081Y-23561D01*
X26898Y-23637D01*
X26757Y-23777D01*
X26681Y-23961D01*
X26681Y-24159D01*
X26757Y-24342D01*
X26764Y-24350D01*
X25679Y-24350D01*
X25679Y-23759D01*
X25679Y-23561D01*
X25603Y-23378D01*
X25463Y-23237D01*
X25279Y-23161D01*
X25179Y-23161D01*
X25179Y-17899D01*
X25179Y-17701D01*
X25103Y-17518D01*
X24963Y-17377D01*
X24779Y-17301D01*
X24581Y-17301D01*
X24398Y-17377D01*
X24257Y-17517D01*
X24181Y-17701D01*
X24181Y-17899D01*
X24257Y-18082D01*
X24397Y-18223D01*
X24581Y-18299D01*
X24779Y-18299D01*
X24962Y-18223D01*
X25103Y-18083D01*
X25179Y-17899D01*
X25179Y-23161D01*
X25081Y-23161D01*
X24898Y-23237D01*
X24757Y-23377D01*
X24681Y-23561D01*
X24681Y-23759D01*
X24757Y-23942D01*
X24897Y-24083D01*
X25081Y-24159D01*
X25279Y-24159D01*
X25462Y-24083D01*
X25603Y-23943D01*
X25679Y-23759D01*
X25679Y-24350D01*
X24679Y-24350D01*
X24679Y-19979D01*
X24679Y-19781D01*
X24603Y-19598D01*
X24463Y-19457D01*
X24279Y-19381D01*
X24081Y-19381D01*
X23898Y-19457D01*
X23819Y-19535D01*
X23819Y-16139D01*
X23819Y-15941D01*
X23743Y-15758D01*
X23603Y-15617D01*
X23419Y-15541D01*
X23221Y-15541D01*
X23038Y-15617D01*
X22897Y-15757D01*
X22821Y-15941D01*
X22821Y-16139D01*
X22897Y-16322D01*
X23037Y-16463D01*
X23221Y-16539D01*
X23419Y-16539D01*
X23602Y-16463D01*
X23743Y-16323D01*
X23819Y-16139D01*
X23819Y-19535D01*
X23757Y-19597D01*
X23681Y-19781D01*
X23681Y-19979D01*
X23757Y-20162D01*
X23897Y-20303D01*
X24081Y-20379D01*
X24279Y-20379D01*
X24462Y-20303D01*
X24603Y-20163D01*
X24679Y-19979D01*
X24679Y-24350D01*
X23039Y-24350D01*
X23039Y-18959D01*
X23039Y-18761D01*
X22963Y-18578D01*
X22823Y-18437D01*
X22639Y-18361D01*
X22441Y-18361D01*
X22258Y-18437D01*
X22117Y-18577D01*
X22041Y-18761D01*
X22041Y-18959D01*
X22117Y-19142D01*
X22257Y-19283D01*
X22441Y-19359D01*
X22639Y-19359D01*
X22822Y-19283D01*
X22963Y-19143D01*
X23039Y-18959D01*
X23039Y-24350D01*
X22739Y-24350D01*
X22739Y-21399D01*
X22739Y-21201D01*
X22663Y-21018D01*
X22523Y-20877D01*
X22339Y-20801D01*
X22141Y-20801D01*
X21958Y-20877D01*
X21817Y-21017D01*
X21741Y-21201D01*
X21741Y-21399D01*
X21817Y-21582D01*
X21957Y-21723D01*
X22141Y-21799D01*
X22339Y-21799D01*
X22522Y-21723D01*
X22663Y-21583D01*
X22739Y-21399D01*
X22739Y-24350D01*
X21419Y-24350D01*
X21419Y-22919D01*
X21419Y-22721D01*
X21343Y-22538D01*
X21203Y-22397D01*
X21019Y-22321D01*
X20821Y-22321D01*
X20638Y-22397D01*
X20497Y-22537D01*
X20421Y-22721D01*
X20421Y-22919D01*
X20497Y-23102D01*
X20637Y-23243D01*
X20821Y-23319D01*
X21019Y-23319D01*
X21202Y-23243D01*
X21343Y-23103D01*
X21419Y-22919D01*
X21419Y-24350D01*
X20339Y-24350D01*
X20339Y-16919D01*
X20339Y-16721D01*
X20263Y-16538D01*
X20123Y-16397D01*
X19939Y-16321D01*
X19741Y-16321D01*
X19558Y-16397D01*
X19417Y-16537D01*
X19341Y-16721D01*
X19341Y-16919D01*
X19417Y-17102D01*
X19557Y-17243D01*
X19741Y-17319D01*
X19939Y-17319D01*
X20122Y-17243D01*
X20263Y-17103D01*
X20339Y-16919D01*
X20339Y-24350D01*
X19459Y-24350D01*
X19459Y-22919D01*
X19459Y-22721D01*
X19383Y-22538D01*
X19379Y-22533D01*
X19379Y-19479D01*
X19379Y-19281D01*
X19303Y-19098D01*
X19163Y-18957D01*
X18979Y-18881D01*
X18781Y-18881D01*
X18598Y-18957D01*
X18457Y-19097D01*
X18381Y-19281D01*
X18381Y-19479D01*
X18457Y-19662D01*
X18597Y-19803D01*
X18781Y-19879D01*
X18979Y-19879D01*
X19162Y-19803D01*
X19303Y-19663D01*
X19379Y-19479D01*
X19379Y-22533D01*
X19243Y-22397D01*
X19059Y-22321D01*
X18861Y-22321D01*
X18678Y-22397D01*
X18537Y-22537D01*
X18461Y-22721D01*
X18461Y-22919D01*
X18537Y-23102D01*
X18677Y-23243D01*
X18861Y-23319D01*
X19059Y-23319D01*
X19242Y-23243D01*
X19383Y-23103D01*
X19459Y-22919D01*
X19459Y-24350D01*
X18079Y-24350D01*
X18079Y-15839D01*
X18079Y-15641D01*
X18003Y-15458D01*
X17863Y-15317D01*
X17679Y-15241D01*
X17481Y-15241D01*
X17298Y-15317D01*
X17157Y-15457D01*
X17081Y-15641D01*
X17081Y-15839D01*
X17157Y-16022D01*
X17297Y-16163D01*
X17481Y-16239D01*
X17679Y-16239D01*
X17862Y-16163D01*
X18003Y-16023D01*
X18079Y-15839D01*
X18079Y-24350D01*
X17679Y-24350D01*
X17679Y-18459D01*
X17679Y-18261D01*
X17603Y-18078D01*
X17463Y-17937D01*
X17279Y-17861D01*
X17081Y-17861D01*
X16898Y-17937D01*
X16757Y-18077D01*
X16681Y-18261D01*
X16681Y-18459D01*
X16757Y-18642D01*
X16897Y-18783D01*
X17081Y-18859D01*
X17279Y-18859D01*
X17462Y-18783D01*
X17603Y-18643D01*
X17679Y-18459D01*
X17679Y-24350D01*
X17499Y-24350D01*
X17499Y-22919D01*
X17499Y-22721D01*
X17423Y-22538D01*
X17283Y-22397D01*
X17099Y-22321D01*
X16901Y-22321D01*
X16718Y-22397D01*
X16577Y-22537D01*
X16501Y-22721D01*
X16501Y-22919D01*
X16577Y-23102D01*
X16717Y-23243D01*
X16901Y-23319D01*
X17099Y-23319D01*
X17282Y-23243D01*
X17423Y-23103D01*
X17499Y-22919D01*
X17499Y-24350D01*
X15499Y-24350D01*
X15499Y-22919D01*
X15499Y-22721D01*
X15423Y-22538D01*
X15283Y-22397D01*
X15099Y-22321D01*
X14901Y-22321D01*
X14718Y-22397D01*
X14577Y-22537D01*
X14501Y-22721D01*
X14501Y-22919D01*
X14577Y-23102D01*
X14717Y-23243D01*
X14901Y-23319D01*
X15099Y-23319D01*
X15282Y-23243D01*
X15423Y-23103D01*
X15499Y-22919D01*
X15499Y-24350D01*
X14479Y-24350D01*
X14479Y-22179D01*
X14479Y-21981D01*
X14403Y-21798D01*
X14263Y-21657D01*
X14079Y-21581D01*
X13881Y-21581D01*
X13819Y-21606D01*
X13819Y-19279D01*
X13819Y-19081D01*
X13743Y-18898D01*
X13603Y-18757D01*
X13419Y-18681D01*
X13221Y-18681D01*
X13038Y-18757D01*
X12897Y-18897D01*
X12821Y-19081D01*
X12821Y-19279D01*
X12897Y-19462D01*
X13037Y-19603D01*
X13221Y-19679D01*
X13419Y-19679D01*
X13602Y-19603D01*
X13743Y-19463D01*
X13819Y-19279D01*
X13819Y-21606D01*
X13698Y-21657D01*
X13557Y-21797D01*
X13481Y-21981D01*
X13481Y-22179D01*
X13557Y-22362D01*
X13697Y-22503D01*
X13881Y-22579D01*
X14079Y-22579D01*
X14262Y-22503D01*
X14403Y-22363D01*
X14479Y-22179D01*
X14479Y-24350D01*
X12030Y-24350D01*
X10450Y-24350D01*
X10450Y-15007D01*
X10804Y-15150D01*
X11214Y-15147D01*
X11576Y-14997D01*
X11662Y-14853D01*
X11035Y-14226D01*
X11000Y-14191D01*
X10929Y-14120D01*
X11000Y-14049D01*
X11071Y-14120D01*
X11106Y-14155D01*
X11733Y-14782D01*
X11877Y-14696D01*
X12030Y-14316D01*
X12027Y-13906D01*
X11877Y-13544D01*
X11777Y-13484D01*
X11811Y-13450D01*
X13691Y-13450D01*
X13578Y-13497D01*
X13437Y-13637D01*
X13361Y-13821D01*
X13361Y-14019D01*
X13437Y-14202D01*
X13577Y-14343D01*
X13761Y-14419D01*
X13959Y-14419D01*
X14142Y-14343D01*
X14283Y-14203D01*
X14359Y-14019D01*
X14359Y-13821D01*
X14283Y-13638D01*
X14143Y-13497D01*
X14029Y-13450D01*
X15344Y-13450D01*
X15237Y-13557D01*
X15161Y-13741D01*
X15161Y-13939D01*
X15237Y-14122D01*
X15377Y-14263D01*
X15561Y-14339D01*
X15759Y-14339D01*
X15942Y-14263D01*
X16083Y-14123D01*
X16159Y-13939D01*
X16159Y-13741D01*
X16083Y-13558D01*
X15975Y-13450D01*
X24650Y-13450D01*
X24650Y-10450D01*
X40350Y-10450D01*
X40350Y-13283D01*
X40326Y-13243D01*
X39946Y-13090D01*
X39536Y-13093D01*
X39174Y-13243D01*
X39088Y-13387D01*
X39715Y-14014D01*
X39750Y-14049D01*
X39821Y-14120D01*
X39750Y-14191D01*
X39715Y-14226D01*
X39679Y-14262D01*
X39679Y-14120D01*
X39017Y-13458D01*
X38873Y-13544D01*
X38720Y-13924D01*
X38723Y-14334D01*
X38873Y-14696D01*
X39017Y-14782D01*
X39679Y-14120D01*
X39679Y-14262D01*
X39088Y-14853D01*
X39174Y-14997D01*
X39554Y-15150D01*
X39964Y-15147D01*
X40326Y-14997D01*
X40350Y-14956D01*
X40350Y-24350D01*
M02*
