M48
;DRILL file {Pcbnew (2012-01-19 BZR 3256)-stable} date 5/26/2013 3:34:13 PM
;FORMAT={-:-/ absolute / inch / decimal}
FMAT,2
INCH,TZ
T1C0.020
T2C0.040
T3C0.090
T4C0.125
%
G90
G05
M72
T1
X1.158Y-1.662
X1.236Y-1.434
X1.322Y-1.422
X1.332Y-1.918
X1.346Y-1.806
X1.386Y-1.392
X1.398Y-2.208
X1.434Y-1.450
X1.500Y-2.282
X1.532Y-1.876
X1.562Y-1.642
X1.566Y-1.384
X1.700Y-2.282
X1.706Y-1.398
X1.714Y-1.906
X1.718Y-1.836
X1.758Y-1.574
X1.786Y-1.940
X1.888Y-1.938
X1.896Y-2.282
X1.946Y-1.934
X1.984Y-1.682
X2.020Y-1.936
X2.092Y-2.282
X2.224Y-2.130
X2.254Y-1.886
X2.314Y-1.842
X2.332Y-1.604
X2.418Y-1.988
X2.468Y-1.780
X2.484Y-1.856
X2.488Y-1.516
X2.518Y-2.366
X2.644Y-1.880
X2.648Y-1.496
X2.650Y-1.422
X2.686Y-1.176
X2.718Y-2.406
X2.742Y-1.896
X2.754Y-1.716
X2.770Y-2.020
X2.818Y-1.720
X2.820Y-2.370
X2.828Y-2.024
X2.832Y-1.912
X2.892Y-2.246
X2.894Y-2.012
X2.914Y-1.854
X2.950Y-1.184
X2.952Y-1.902
X2.956Y-2.246
X2.958Y-1.814
X3.024Y-2.308
X3.080Y-2.242
X3.090Y-1.224
X3.164Y-1.512
X3.242Y-1.636
X3.266Y-1.964
X3.270Y-2.026
X3.276Y-1.534
X3.336Y-1.300
X3.390Y-1.714
X3.398Y-1.298
X3.398Y-1.834
X3.400Y-2.206
X3.434Y-1.754
X3.474Y-1.512
X3.480Y-1.884
X3.498Y-1.674
X3.510Y-2.332
X3.540Y-1.884
X3.574Y-2.332
X3.592Y-1.580
X3.604Y-1.452
X3.652Y-1.874
X3.654Y-2.186
X3.664Y-2.112
X3.774Y-2.126
X3.782Y-1.162
X3.802Y-1.828
X3.846Y-1.422
X3.934Y-1.950
T2
X2.980Y-2.400
X3.080Y-2.400
X3.180Y-2.400
X3.280Y-2.400
X3.380Y-2.400
T3
X3.635Y-1.360
T4
X1.100Y-1.412
X3.975Y-1.412
T0
M30
