G75*
G70*
%OFA0B0*%
%FSLAX24Y24*%
%IPPOS*%
%LPD*%
%AMOC8*
5,1,8,0,0,1.08239X$1,22.5*
%
%ADD10C,0.0970*%
%ADD11C,0.0634*%
%ADD12C,0.0820*%
%ADD13R,0.0820X0.0820*%
%ADD14C,0.0476*%
D10*
X001350Y001350D03*
X011350Y003600D03*
X021350Y001350D03*
X021350Y026350D03*
X001350Y026350D03*
D11*
X009320Y024800D03*
X011880Y024800D03*
D12*
X003600Y024300D03*
X003500Y025300D03*
X003600Y026300D03*
X003600Y021300D03*
X003500Y020300D03*
X003600Y019300D03*
X003020Y015400D03*
X001880Y015400D03*
X001880Y013400D03*
X003020Y013400D03*
X003020Y011400D03*
X001880Y011400D03*
X001830Y009400D03*
X002970Y009400D03*
X005350Y001450D03*
X006350Y001450D03*
X014400Y001450D03*
X015400Y001350D03*
X016400Y001450D03*
X017400Y001350D03*
X018400Y001450D03*
X020850Y005230D03*
X020850Y006370D03*
X020900Y009300D03*
X020900Y010300D03*
X020900Y011300D03*
X020900Y012300D03*
X020900Y013300D03*
X017800Y012520D03*
X017800Y011380D03*
D13*
X020900Y014300D03*
D14*
X018700Y011850D03*
X018700Y011800D03*
X016900Y010400D03*
X016900Y010350D03*
X018250Y009300D03*
X015400Y012300D03*
X015450Y014300D03*
X015450Y015050D03*
X014400Y017300D03*
X012400Y015050D03*
X012900Y014300D03*
X010400Y016300D03*
X010900Y017300D03*
X009900Y019300D03*
X008400Y019800D03*
X006900Y021600D03*
X006900Y023800D03*
X005900Y024800D03*
X007400Y017300D03*
X003550Y017300D03*
X006300Y011350D03*
X007900Y009800D03*
X009900Y008800D03*
X010850Y008200D03*
X011850Y009850D03*
X011800Y009900D03*
X012400Y008800D03*
X009650Y002700D03*
X017900Y017900D03*
X016900Y018800D03*
X017450Y020000D03*
X016950Y020800D03*
X016900Y020800D03*
X018650Y020600D03*
X012400Y021800D03*
M02*
