G75*
G70*
%OFA0B0*%
%FSLAX24Y24*%
%IPPOS*%
%LPD*%
%AMOC8*
5,1,8,0,0,1.08239X$1,22.5*
%
%ADD10C,0.0554*%
%ADD11C,0.0740*%
%ADD12R,0.0740X0.0740*%
%ADD13C,0.0396*%
%ADD14C,0.0160*%
D10*
X009320Y024800D03*
X011880Y024800D03*
D11*
X005350Y001450D03*
X006350Y001450D03*
X002970Y009400D03*
X001830Y009400D03*
X001880Y011400D03*
X003020Y011400D03*
X003020Y013400D03*
X001880Y013400D03*
X001880Y015400D03*
X003020Y015400D03*
X003600Y019300D03*
X003500Y020300D03*
X003600Y021300D03*
X003600Y024300D03*
X003500Y025300D03*
X003600Y026300D03*
X017800Y012520D03*
X017800Y011380D03*
X020900Y011300D03*
X020900Y010300D03*
X020900Y009300D03*
X020850Y006370D03*
X020850Y005230D03*
X018400Y001450D03*
X017400Y001350D03*
X016400Y001450D03*
X015400Y001350D03*
X014400Y001450D03*
X020900Y012300D03*
X020900Y013300D03*
D12*
X020900Y014300D03*
D13*
X018700Y011850D03*
X018700Y011800D03*
X016900Y010400D03*
X016900Y010350D03*
X018250Y009300D03*
X015400Y012300D03*
X015450Y014300D03*
X015450Y015050D03*
X014400Y017300D03*
X012400Y015050D03*
X012900Y014300D03*
X010400Y016300D03*
X010900Y017300D03*
X009900Y019300D03*
X008400Y019800D03*
X006900Y021600D03*
X006900Y023800D03*
X005900Y024800D03*
X007400Y017300D03*
X003550Y017300D03*
X006300Y011350D03*
X007900Y009800D03*
X009900Y008800D03*
X010850Y008200D03*
X011850Y009850D03*
X011800Y009900D03*
X012400Y008800D03*
X009650Y002700D03*
X017900Y017900D03*
X016900Y018800D03*
X017450Y020000D03*
X016950Y020800D03*
X016900Y020800D03*
X018650Y020600D03*
X012400Y021800D03*
D14*
X012400Y024800D01*
X014750Y024800D01*
X017900Y021650D01*
X017900Y020600D01*
X018650Y020600D01*
X017900Y020600D02*
X017900Y017900D01*
X017350Y017200D02*
X017350Y019900D01*
X017450Y020000D01*
X016900Y020800D02*
X016900Y018800D01*
X015400Y018800D01*
X014900Y019300D01*
X009900Y019300D01*
X008400Y019800D02*
X008400Y017300D01*
X007400Y017300D01*
X003550Y017300D01*
X003400Y020200D02*
X002800Y020200D01*
X002550Y020450D01*
X002550Y023200D01*
X004350Y023200D01*
X004950Y023800D01*
X006900Y023800D01*
X010900Y023800D01*
X011900Y024800D01*
X012400Y024800D01*
X011900Y024800D02*
X011880Y024800D01*
X009320Y024800D02*
X005900Y024800D01*
X003500Y025300D02*
X002800Y025300D01*
X002550Y025050D01*
X002550Y023200D01*
X003600Y021300D02*
X005100Y021300D01*
X005400Y021600D01*
X006900Y021600D01*
X003500Y020300D02*
X003400Y020200D01*
X008400Y017300D02*
X010900Y017300D01*
X014400Y017300D01*
X015450Y015050D02*
X012400Y015050D01*
X012900Y014300D02*
X015450Y014300D01*
X016900Y013300D02*
X015400Y012300D01*
X016900Y013300D02*
X016900Y018800D01*
X017350Y017200D02*
X017800Y016750D01*
X017800Y012520D01*
X018700Y011800D02*
X018700Y010550D01*
X019200Y010050D01*
X019200Y007050D01*
X019900Y006350D01*
X020830Y006350D01*
X020850Y006370D01*
X018400Y007100D02*
X018400Y001450D01*
X017400Y001350D02*
X017400Y005150D01*
X016900Y005650D01*
X011350Y005650D01*
X010850Y006150D01*
X010850Y008200D01*
X009900Y008800D02*
X012400Y008800D01*
X011850Y009850D02*
X015650Y009850D01*
X018400Y007100D01*
X018250Y009300D02*
X017900Y009650D01*
X017600Y009650D01*
X016900Y010350D01*
X010400Y016300D02*
X006300Y012100D01*
X006300Y011350D01*
X006300Y010900D01*
X007400Y009800D01*
X007900Y009800D01*
X009650Y002700D02*
X005750Y002700D01*
X005350Y002300D01*
X005350Y001450D01*
M02*
