G75*
G70*
%OFA0B0*%
%FSLAX24Y24*%
%IPPOS*%
%LPD*%
%AMOC8*
5,1,8,0,0,1.08239X$1,22.5*
%
%ADD10C,0.0000*%
%ADD11C,0.0060*%
%ADD12R,0.0591X0.0197*%
%ADD13R,0.0197X0.0591*%
%ADD14R,0.0433X0.0394*%
%ADD15R,0.0276X0.0669*%
%ADD16C,0.0554*%
%ADD17R,0.0394X0.0433*%
%ADD18R,0.0315X0.0354*%
%ADD19R,0.0354X0.0315*%
%ADD20C,0.0740*%
%ADD21R,0.0880X0.0480*%
%ADD22R,0.0866X0.1417*%
%ADD23R,0.0740X0.0740*%
%ADD24C,0.0160*%
%ADD25C,0.0396*%
D10*
X000100Y000100D02*
X000100Y027600D01*
X022600Y027600D01*
X022600Y000100D01*
X000100Y000100D01*
X000905Y001350D02*
X000907Y001392D01*
X000913Y001433D01*
X000922Y001474D01*
X000936Y001513D01*
X000953Y001551D01*
X000974Y001587D01*
X000997Y001622D01*
X001024Y001653D01*
X001054Y001683D01*
X001087Y001709D01*
X001122Y001732D01*
X001158Y001752D01*
X001197Y001768D01*
X001237Y001780D01*
X001277Y001789D01*
X001319Y001794D01*
X001360Y001795D01*
X001402Y001792D01*
X001443Y001785D01*
X001484Y001774D01*
X001523Y001760D01*
X001560Y001742D01*
X001596Y001721D01*
X001630Y001696D01*
X001661Y001668D01*
X001689Y001638D01*
X001715Y001605D01*
X001737Y001569D01*
X001756Y001532D01*
X001771Y001493D01*
X001783Y001453D01*
X001791Y001412D01*
X001795Y001371D01*
X001795Y001329D01*
X001791Y001288D01*
X001783Y001247D01*
X001771Y001207D01*
X001756Y001168D01*
X001737Y001131D01*
X001715Y001095D01*
X001689Y001062D01*
X001661Y001032D01*
X001630Y001004D01*
X001596Y000979D01*
X001560Y000958D01*
X001523Y000940D01*
X001484Y000926D01*
X001443Y000915D01*
X001402Y000908D01*
X001360Y000905D01*
X001319Y000906D01*
X001277Y000911D01*
X001237Y000920D01*
X001197Y000932D01*
X001158Y000948D01*
X001122Y000968D01*
X001087Y000991D01*
X001054Y001017D01*
X001024Y001047D01*
X000997Y001078D01*
X000974Y001113D01*
X000953Y001149D01*
X000936Y001187D01*
X000922Y001226D01*
X000913Y001267D01*
X000907Y001308D01*
X000905Y001350D01*
X010905Y003600D02*
X010907Y003642D01*
X010913Y003683D01*
X010922Y003724D01*
X010936Y003763D01*
X010953Y003801D01*
X010974Y003837D01*
X010997Y003872D01*
X011024Y003903D01*
X011054Y003933D01*
X011087Y003959D01*
X011122Y003982D01*
X011158Y004002D01*
X011197Y004018D01*
X011237Y004030D01*
X011277Y004039D01*
X011319Y004044D01*
X011360Y004045D01*
X011402Y004042D01*
X011443Y004035D01*
X011484Y004024D01*
X011523Y004010D01*
X011560Y003992D01*
X011596Y003971D01*
X011630Y003946D01*
X011661Y003918D01*
X011689Y003888D01*
X011715Y003855D01*
X011737Y003819D01*
X011756Y003782D01*
X011771Y003743D01*
X011783Y003703D01*
X011791Y003662D01*
X011795Y003621D01*
X011795Y003579D01*
X011791Y003538D01*
X011783Y003497D01*
X011771Y003457D01*
X011756Y003418D01*
X011737Y003381D01*
X011715Y003345D01*
X011689Y003312D01*
X011661Y003282D01*
X011630Y003254D01*
X011596Y003229D01*
X011560Y003208D01*
X011523Y003190D01*
X011484Y003176D01*
X011443Y003165D01*
X011402Y003158D01*
X011360Y003155D01*
X011319Y003156D01*
X011277Y003161D01*
X011237Y003170D01*
X011197Y003182D01*
X011158Y003198D01*
X011122Y003218D01*
X011087Y003241D01*
X011054Y003267D01*
X011024Y003297D01*
X010997Y003328D01*
X010974Y003363D01*
X010953Y003399D01*
X010936Y003437D01*
X010922Y003476D01*
X010913Y003517D01*
X010907Y003558D01*
X010905Y003600D01*
X020905Y001350D02*
X020907Y001392D01*
X020913Y001433D01*
X020922Y001474D01*
X020936Y001513D01*
X020953Y001551D01*
X020974Y001587D01*
X020997Y001622D01*
X021024Y001653D01*
X021054Y001683D01*
X021087Y001709D01*
X021122Y001732D01*
X021158Y001752D01*
X021197Y001768D01*
X021237Y001780D01*
X021277Y001789D01*
X021319Y001794D01*
X021360Y001795D01*
X021402Y001792D01*
X021443Y001785D01*
X021484Y001774D01*
X021523Y001760D01*
X021560Y001742D01*
X021596Y001721D01*
X021630Y001696D01*
X021661Y001668D01*
X021689Y001638D01*
X021715Y001605D01*
X021737Y001569D01*
X021756Y001532D01*
X021771Y001493D01*
X021783Y001453D01*
X021791Y001412D01*
X021795Y001371D01*
X021795Y001329D01*
X021791Y001288D01*
X021783Y001247D01*
X021771Y001207D01*
X021756Y001168D01*
X021737Y001131D01*
X021715Y001095D01*
X021689Y001062D01*
X021661Y001032D01*
X021630Y001004D01*
X021596Y000979D01*
X021560Y000958D01*
X021523Y000940D01*
X021484Y000926D01*
X021443Y000915D01*
X021402Y000908D01*
X021360Y000905D01*
X021319Y000906D01*
X021277Y000911D01*
X021237Y000920D01*
X021197Y000932D01*
X021158Y000948D01*
X021122Y000968D01*
X021087Y000991D01*
X021054Y001017D01*
X021024Y001047D01*
X020997Y001078D01*
X020974Y001113D01*
X020953Y001149D01*
X020936Y001187D01*
X020922Y001226D01*
X020913Y001267D01*
X020907Y001308D01*
X020905Y001350D01*
X020905Y026350D02*
X020907Y026392D01*
X020913Y026433D01*
X020922Y026474D01*
X020936Y026513D01*
X020953Y026551D01*
X020974Y026587D01*
X020997Y026622D01*
X021024Y026653D01*
X021054Y026683D01*
X021087Y026709D01*
X021122Y026732D01*
X021158Y026752D01*
X021197Y026768D01*
X021237Y026780D01*
X021277Y026789D01*
X021319Y026794D01*
X021360Y026795D01*
X021402Y026792D01*
X021443Y026785D01*
X021484Y026774D01*
X021523Y026760D01*
X021560Y026742D01*
X021596Y026721D01*
X021630Y026696D01*
X021661Y026668D01*
X021689Y026638D01*
X021715Y026605D01*
X021737Y026569D01*
X021756Y026532D01*
X021771Y026493D01*
X021783Y026453D01*
X021791Y026412D01*
X021795Y026371D01*
X021795Y026329D01*
X021791Y026288D01*
X021783Y026247D01*
X021771Y026207D01*
X021756Y026168D01*
X021737Y026131D01*
X021715Y026095D01*
X021689Y026062D01*
X021661Y026032D01*
X021630Y026004D01*
X021596Y025979D01*
X021560Y025958D01*
X021523Y025940D01*
X021484Y025926D01*
X021443Y025915D01*
X021402Y025908D01*
X021360Y025905D01*
X021319Y025906D01*
X021277Y025911D01*
X021237Y025920D01*
X021197Y025932D01*
X021158Y025948D01*
X021122Y025968D01*
X021087Y025991D01*
X021054Y026017D01*
X021024Y026047D01*
X020997Y026078D01*
X020974Y026113D01*
X020953Y026149D01*
X020936Y026187D01*
X020922Y026226D01*
X020913Y026267D01*
X020907Y026308D01*
X020905Y026350D01*
X000905Y026350D02*
X000907Y026392D01*
X000913Y026433D01*
X000922Y026474D01*
X000936Y026513D01*
X000953Y026551D01*
X000974Y026587D01*
X000997Y026622D01*
X001024Y026653D01*
X001054Y026683D01*
X001087Y026709D01*
X001122Y026732D01*
X001158Y026752D01*
X001197Y026768D01*
X001237Y026780D01*
X001277Y026789D01*
X001319Y026794D01*
X001360Y026795D01*
X001402Y026792D01*
X001443Y026785D01*
X001484Y026774D01*
X001523Y026760D01*
X001560Y026742D01*
X001596Y026721D01*
X001630Y026696D01*
X001661Y026668D01*
X001689Y026638D01*
X001715Y026605D01*
X001737Y026569D01*
X001756Y026532D01*
X001771Y026493D01*
X001783Y026453D01*
X001791Y026412D01*
X001795Y026371D01*
X001795Y026329D01*
X001791Y026288D01*
X001783Y026247D01*
X001771Y026207D01*
X001756Y026168D01*
X001737Y026131D01*
X001715Y026095D01*
X001689Y026062D01*
X001661Y026032D01*
X001630Y026004D01*
X001596Y025979D01*
X001560Y025958D01*
X001523Y025940D01*
X001484Y025926D01*
X001443Y025915D01*
X001402Y025908D01*
X001360Y025905D01*
X001319Y025906D01*
X001277Y025911D01*
X001237Y025920D01*
X001197Y025932D01*
X001158Y025948D01*
X001122Y025968D01*
X001087Y025991D01*
X001054Y026017D01*
X001024Y026047D01*
X000997Y026078D01*
X000974Y026113D01*
X000953Y026149D01*
X000936Y026187D01*
X000922Y026226D01*
X000913Y026267D01*
X000907Y026308D01*
X000905Y026350D01*
D11*
X014494Y003721D02*
X014494Y003080D01*
X014707Y003080D02*
X014280Y003080D01*
X014280Y003507D02*
X014494Y003721D01*
X004757Y000630D02*
X004330Y000630D01*
X004544Y000630D02*
X004544Y001271D01*
X004330Y001057D01*
D12*
X007617Y011225D03*
X007617Y011540D03*
X007617Y011855D03*
X007617Y012170D03*
X007617Y012485D03*
X007617Y012800D03*
X007617Y013115D03*
X007617Y013430D03*
X007617Y013745D03*
X007617Y014060D03*
X007617Y014375D03*
X012183Y014375D03*
X012183Y014060D03*
X012183Y013745D03*
X012183Y013430D03*
X012183Y013115D03*
X012183Y012800D03*
X012183Y012485D03*
X012183Y012170D03*
X012183Y011855D03*
X012183Y011540D03*
X012183Y011225D03*
D13*
X011475Y010517D03*
X011160Y010517D03*
X010845Y010517D03*
X010530Y010517D03*
X010215Y010517D03*
X009900Y010517D03*
X009585Y010517D03*
X009270Y010517D03*
X008955Y010517D03*
X008640Y010517D03*
X008325Y010517D03*
X008325Y015083D03*
X008640Y015083D03*
X008955Y015083D03*
X009270Y015083D03*
X009585Y015083D03*
X009900Y015083D03*
X010215Y015083D03*
X010530Y015083D03*
X010845Y015083D03*
X011160Y015083D03*
X011475Y015083D03*
D14*
X014065Y012300D03*
X014735Y012300D03*
X010235Y018300D03*
X009565Y018300D03*
X011065Y021800D03*
X011735Y021800D03*
X004685Y015400D03*
X004015Y015400D03*
X003965Y013400D03*
X004635Y013400D03*
X004635Y011400D03*
X003965Y011400D03*
X003915Y009400D03*
X004585Y009400D03*
X008365Y008800D03*
X009035Y008800D03*
D15*
X012928Y015800D03*
X013400Y015800D03*
X013872Y015800D03*
D16*
X011880Y024800D03*
X009320Y024800D03*
D17*
X006900Y023135D03*
X006900Y022465D03*
X006750Y010435D03*
X006750Y009765D03*
X012400Y007735D03*
X012400Y007065D03*
D18*
X010274Y020406D03*
X009900Y021233D03*
X009526Y020406D03*
X008274Y020406D03*
X007526Y020406D03*
X007900Y021233D03*
D19*
X006194Y016674D03*
X006194Y015926D03*
X005367Y016300D03*
D20*
X003020Y015400D03*
X001880Y015400D03*
X001880Y013400D03*
X003020Y013400D03*
X003020Y011400D03*
X001880Y011400D03*
X001830Y009400D03*
X002970Y009400D03*
X005350Y001450D03*
X006350Y001450D03*
X014400Y001450D03*
X015400Y001350D03*
X016400Y001450D03*
X017400Y001350D03*
X018400Y001450D03*
X020850Y005230D03*
X020850Y006370D03*
X020900Y009300D03*
X020900Y010300D03*
X020900Y011300D03*
X020900Y012300D03*
X020900Y013300D03*
X017800Y012520D03*
X017800Y011380D03*
X003600Y019300D03*
X003500Y020300D03*
X003600Y021300D03*
X003600Y024300D03*
X003500Y025300D03*
X003600Y026300D03*
D21*
X018680Y023210D03*
X018680Y022300D03*
X018680Y021390D03*
X018680Y019710D03*
X018680Y018800D03*
X018680Y017890D03*
D22*
X021120Y018800D03*
X021120Y022300D03*
D23*
X020900Y014300D03*
D24*
X020800Y013400D02*
X020900Y013300D01*
X020800Y013400D02*
X019600Y013400D01*
X017950Y015050D01*
X015450Y015050D01*
X015450Y014300D02*
X017650Y014300D01*
X019700Y012250D01*
X020800Y012250D01*
X020900Y012300D01*
X020900Y011300D02*
X019200Y011300D01*
X016700Y008800D01*
X015450Y008800D01*
X015400Y008750D01*
X015400Y001350D01*
X014400Y001450D02*
X014400Y002250D01*
X014000Y002650D01*
X013850Y002650D01*
X013800Y002700D01*
X012400Y002700D01*
X009650Y002700D01*
X008365Y001865D02*
X012535Y001865D01*
X013850Y000550D01*
X016150Y000550D01*
X016400Y000800D01*
X016400Y001450D01*
X016450Y001400D01*
X012400Y002700D02*
X012400Y007065D01*
X012385Y007050D01*
X010700Y007050D01*
X010215Y007535D01*
X010215Y010517D01*
X009900Y010517D02*
X009900Y008800D01*
X009035Y008800D01*
X008365Y008800D02*
X008365Y001865D01*
X007950Y001450D01*
X006350Y001450D01*
X010850Y008200D02*
X011160Y008510D01*
X011160Y010517D01*
X011475Y010517D02*
X011475Y010225D01*
X011800Y009900D01*
X011850Y009850D01*
X012400Y009450D02*
X013400Y010450D01*
X014735Y011785D01*
X014735Y012300D01*
X015400Y012300D01*
X014400Y013300D02*
X016650Y013300D01*
X016900Y013050D01*
X016900Y010350D01*
X017800Y011380D02*
X018280Y011380D01*
X018700Y011800D01*
X018250Y009300D02*
X020900Y009300D01*
X020900Y007900D01*
X021950Y006850D01*
X021950Y005400D01*
X021800Y005250D01*
X020870Y005250D01*
X020850Y005230D01*
X015450Y008800D02*
X012400Y008800D01*
X012400Y009450D01*
X012400Y008800D02*
X012400Y007735D01*
X013400Y010450D02*
X013400Y012300D01*
X012900Y012800D01*
X012183Y012800D01*
X012183Y013115D02*
X014215Y013115D01*
X014215Y012450D01*
X014065Y012300D01*
X014215Y013115D02*
X014400Y013300D01*
X014400Y016800D01*
X013900Y016800D01*
X012900Y016800D01*
X012400Y016300D01*
X010400Y016300D01*
X009900Y015800D01*
X009900Y015083D01*
X009585Y015083D02*
X009585Y018985D01*
X009900Y019300D01*
X009526Y019926D02*
X008900Y019300D01*
X008900Y018800D01*
X008400Y018300D01*
X007900Y018300D01*
X007500Y018700D01*
X007500Y020180D01*
X007526Y020406D01*
X008274Y020406D02*
X008274Y019926D01*
X008400Y019800D01*
X009526Y019926D02*
X009526Y020406D01*
X009900Y021233D02*
X009900Y021800D01*
X009400Y022300D01*
X008400Y022300D01*
X007900Y022800D01*
X007900Y023600D01*
X006900Y024600D01*
X006900Y026050D01*
X006650Y026300D01*
X003600Y026300D01*
X003600Y024300D02*
X002300Y024300D01*
X002050Y024050D01*
X002050Y019800D01*
X002550Y019300D01*
X003600Y019300D01*
X003600Y017350D01*
X003550Y017300D01*
X002700Y016450D01*
X002150Y016450D01*
X001900Y016200D01*
X001900Y015420D01*
X001880Y015400D01*
X001880Y013400D01*
X001880Y011400D01*
X001880Y009450D01*
X001830Y009400D01*
X002970Y009400D02*
X003915Y009400D01*
X004585Y009400D02*
X004600Y009415D01*
X004600Y010150D01*
X005700Y011250D01*
X005700Y012550D01*
X006265Y013115D01*
X007617Y013115D01*
X007617Y013430D02*
X006030Y013430D01*
X004650Y012050D01*
X004650Y011415D01*
X004635Y011400D01*
X003965Y011400D02*
X003020Y011400D01*
X003020Y013400D02*
X003965Y013400D01*
X004635Y013400D02*
X005400Y013400D01*
X005745Y013745D01*
X007617Y013745D01*
X007607Y014050D02*
X007617Y014060D01*
X007607Y014050D02*
X005500Y014050D01*
X004685Y014865D01*
X004685Y015400D01*
X004015Y015400D02*
X003020Y015400D01*
X001950Y015470D02*
X001880Y015400D01*
X005367Y016300D02*
X005367Y017834D01*
X005900Y018367D01*
X005900Y024800D01*
X006900Y023800D02*
X006900Y023135D01*
X006900Y022465D02*
X006900Y021600D01*
X007217Y021283D01*
X007850Y021283D01*
X007900Y021233D01*
X009900Y021800D02*
X011065Y021800D01*
X011735Y021800D02*
X012400Y021800D01*
X014400Y022800D02*
X014400Y017300D01*
X014400Y016800D01*
X013900Y016800D02*
X013400Y016300D01*
X013400Y015800D01*
X013872Y015800D02*
X013900Y015772D01*
X013900Y013800D01*
X013530Y013430D01*
X012183Y013430D01*
X012183Y013745D02*
X012845Y013745D01*
X013400Y014300D01*
X013400Y014800D01*
X012900Y015300D01*
X012900Y015772D01*
X012928Y015800D01*
X012400Y015050D02*
X012183Y014833D01*
X012183Y014375D01*
X012183Y014060D02*
X012660Y014060D01*
X012900Y014300D01*
X010900Y017300D02*
X010900Y018250D01*
X010850Y018300D01*
X010235Y018300D01*
X009585Y018280D02*
X009565Y018300D01*
X009585Y018280D02*
X009585Y015083D01*
X008955Y015083D02*
X008955Y017745D01*
X008400Y018300D01*
X007400Y017300D02*
X007400Y016900D01*
X007200Y016700D01*
X006220Y016700D01*
X006194Y016674D01*
X006194Y015926D02*
X006220Y015900D01*
X007100Y015900D01*
X007617Y015383D01*
X007617Y014375D01*
X007617Y012800D02*
X007000Y012800D01*
X006300Y012100D01*
X006300Y011350D01*
X006750Y010900D02*
X006750Y010435D01*
X006750Y010900D02*
X007000Y011150D01*
X007000Y012300D01*
X007185Y012485D01*
X007617Y012485D01*
X009585Y010517D02*
X009585Y009838D01*
X009335Y009588D01*
X008588Y009588D01*
X008350Y009350D01*
X007900Y009800D01*
X006785Y009800D01*
X006750Y009765D01*
X008350Y009350D02*
X008350Y008815D01*
X008365Y008800D01*
X010900Y018250D02*
X010900Y019300D01*
X010274Y019926D01*
X010274Y020406D01*
X014400Y022800D02*
X014810Y023210D01*
X014810Y021640D01*
X017700Y018750D01*
X018630Y018750D01*
X018680Y018800D01*
X018680Y017890D02*
X018490Y017890D01*
X017900Y017900D01*
X018680Y019710D02*
X018390Y020000D01*
X017450Y020000D01*
X016900Y020800D02*
X016900Y021500D01*
X017700Y022300D01*
X018680Y022300D01*
X018680Y021390D02*
X018680Y020630D01*
X018650Y020600D01*
X018680Y023210D02*
X014810Y023210D01*
D25*
X016900Y020800D03*
X016950Y020800D03*
X017450Y020000D03*
X016900Y018800D03*
X017900Y017900D03*
X018650Y020600D03*
X014400Y017300D03*
X015450Y015050D03*
X015450Y014300D03*
X015400Y012300D03*
X016900Y010400D03*
X016900Y010350D03*
X018250Y009300D03*
X018700Y011800D03*
X018700Y011850D03*
X012900Y014300D03*
X012400Y015050D03*
X010900Y017300D03*
X010400Y016300D03*
X009900Y019300D03*
X008400Y019800D03*
X006900Y021600D03*
X006900Y023800D03*
X005900Y024800D03*
X007400Y017300D03*
X003550Y017300D03*
X006300Y011350D03*
X007900Y009800D03*
X009900Y008800D03*
X010850Y008200D03*
X011850Y009850D03*
X011800Y009900D03*
X012400Y008800D03*
X009650Y002700D03*
X012400Y021800D03*
M02*
