%
M48
M72
T01C0.0236
T02C0.0354
T03C0.0400
T04C0.0890
%
T01
X7900Y9800
X6300Y11350
X9900Y8800
X10850Y8200
X11850Y9850
X11800Y9900
X12400Y8800
X15400Y12300
X15450Y14300
X15450Y15050
X14400Y17300
X12400Y15050
X12900Y14300
X10400Y16300
X10900Y17300
X9900Y19300
X8400Y19800
X6900Y21600
X6900Y23800
X5900Y24800
X7400Y17300
X3550Y17300
X12400Y21800
X16900Y20800
X16950Y20800
X17450Y20000
X16900Y18800
X17900Y17900
X18650Y20600
X18700Y11850
X18700Y11800
X16900Y10400
X16900Y10350
X18250Y9300
X9650Y2700
T02
X9320Y24800
X11880Y24800
T03
X3600Y24300
X3500Y25300
X3600Y26300
X3600Y21300
X3500Y20300
X3600Y19300
X3020Y15400
X1880Y15400
X1880Y13400
X3020Y13400
X3020Y11400
X1880Y11400
X1830Y9400
X2970Y9400
X5350Y1450
X6350Y1450
X14400Y1450
X15400Y1350
X16400Y1450
X17400Y1350
X18400Y1450
X20850Y5230
X20850Y6370
X20900Y9300
X20900Y10300
X20900Y11300
X20900Y12300
X20900Y13300
X20900Y14300
X17800Y12520
X17800Y11380
T04
X1350Y1350
X11350Y3600
X21350Y1350
X21350Y26350
X1350Y26350
M30
